<svg xmlns="http://www.w3.org/2000/svg" width="1300" height="1000" viewBox="0 0 1300 1000">
  <g fill="none" fill-rule="evenodd">
    <rect width="1300" height="1000" fill="#FFFFFF"/>
    <path fill="#F2F2F2" fill-rule="nonzero" d="M1090.48,672.54 C1089.32,675.04 1088.16333,677.506667 1087.01,679.94 C1085.21,683.72 1083.43333,687.426667 1081.68,691.06 C1080.9,692.67 1080.12,694.25 1079.36,695.83 C1070.76,713.4 1062.73,728.94 1055.91,741.72 C1043.31301,765.318113 1018.84837,780.167127 992.1,780.45 L840.45,782.1 L838.85,782.1 L825.85,782.24 L814.73,782.36 L780.66,782.75 L779.28,782.75 L761.92,782.94 L761.39,782.94 L654.39,784.1 L558.88,785.1 L547.77,785.22 L478.77,785.97 L478.66,785.97 L433.91,786.45 L433.43,786.45 L291.93,787.98 L249.6,788.44 C245.995668,788.481154 242.392213,788.300815 238.81,787.9 L238.81,787.9 C237.59,787.76 236.37,787.6 235.16,787.41 C215.417987,784.362541 197.316126,774.642805 183.87,759.87 C165.66,739.75 152.41,716.45 143.51,691.06 C142.223333,687.4 141.023333,683.693333 139.91,679.94 C109.1,575.75 146.66,441.39 214.26,351.5 C217.093333,347.74 219.973333,344.073333 222.9,340.5 L222.97,340.42 C243.76,314.9 267.07,293.58 291.9,278.42 C335.9,251.51 384.65,243.93 432.6,266.52 C473.17,285.64 511.05,294.63 547.77,297.07 C551.48,297.31 555.19,297.49 558.88,297.6 C643.11,300.25 722.05,269.9 814.75,250.31 C818.44,249.53 822.14,248.76 825.87,248.03 C892,234.87 965.36,227.93 1052.6,242.52 C1061.66358,244.000662 1070.60725,246.139657 1079.36,248.92 C1083.20667,250.16 1086.91333,251.493333 1090.48,252.92 C1132.12,269.86 1154.83,301.16 1164.48,340.38 C1165.39333,344.02 1166.18333,347.723333 1166.85,351.49 C1183.96,445.83 1133.85,579.65 1090.48,672.54 Z"/>
    <path fill="#000000" fill-rule="nonzero" d="M626.02,679.94 C625.616882,683.680353 624.992454,687.393528 624.15,691.06 L717.85,691.06 L717.85,679.94 L626.02,679.94 Z M547.77,742.75 L558.88,742.66 L558.88,715.19 C555.07,715.02 551.36,714.85 547.77,714.67 L547.77,742.75 Z M314.85,679.94 L314.85,691.06 L513.35,691.06 L513.35,679.94 L314.85,679.94 Z M1164.53,340.39 L1090.53,340.39 L1090.53,252.93 C1086.96333,251.476667 1083.25667,250.143333 1079.41,248.93 L1079.41,340.43 L825.87,340.43 L825.87,248 C822.14,248.73 818.44,249.5 814.75,250.28 L814.75,340.39 L558.88,340.39 L558.88,297.57 C555.19,297.46 551.48,297.28 547.77,297.04 L547.77,340.39 L291.9,340.39 L291.9,278.39 C267.07,293.55 243.76,314.87 222.97,340.39 L222.9,340.39 L222.9,340.47 C219.966667,344.07 217.086667,347.736667 214.26,351.47 L222.9,351.47 L222.9,679.94 L139.9,679.94 C141.006667,683.693333 142.206667,687.4 143.5,691.06 L222.89,691.06 L222.89,784.68 C226.884417,785.901668 230.961629,786.83408 235.09,787.47 C236.3,787.66 237.52,787.82 238.74,787.96 L238.74,787.96 C242.322213,788.360815 245.925668,788.541154 249.53,788.5 L291.86,788.04 L291.86,691.04 L547.77,691.04 L547.77,785.25 L558.88,785.13 L558.88,691.06 L814.75,691.06 L814.75,782.37 L825.87,782.25 L825.87,691.06 L1079.36,691.06 L1079.36,695.83 C1080.12,694.25 1080.9,692.67 1081.68,691.06 C1083.43333,687.433333 1085.21,683.726667 1087.01,679.94 C1088.16333,677.506667 1089.32,675.04 1090.48,672.54 L1090.48,351.54 L1166.9,351.54 C1166.22667,347.746667 1165.43667,344.03 1164.53,340.39 Z M291.9,679.94 L291.9,351.5 L547.77,351.5 L547.77,679.94 L291.9,679.94 Z M558.9,679.94 L558.9,351.5 L814.75,351.5 L814.75,679.94 L558.9,679.94 Z M1079.38,679.94 L825.87,679.94 L825.87,351.5 L1079.36,351.5 L1079.38,679.94 Z" opacity=".1"/>
    <path fill="#3F3D56" fill-rule="nonzero" d="M963.73,564.08 C949.874398,538.491722 930.236646,516.491276 906.38,499.83 C904.674961,498.653047 902.707687,497.911457 900.65,497.67 C903.46,479.19 902.87,458.77 892.44,443.37 C867.69,406.83 741.59,444.54 741.59,444.54 C653.2,413.9 576.59,452.79 576.59,452.79 C576.59,452.79 478.77,437.47 433.99,449.26 C412.87,454.82 407.74,476.36 408.22,497.58 L408.15,497.58 C404.356755,497.573233 400.767348,499.296148 398.4,502.26 C386.49,517.14 350.51,562.97 351.49,571.82 C352.67,582.43 391.56,720.31 389.8,786.9 L933.09,780.9 C933.09,780.9 942.09,646.9 964.6,573.55 C965.575634,570.402689 965.262745,566.996869 963.73,564.08 Z"/>
    <polygon fill="#000000" fill-rule="nonzero" points="396.88 572.42 419.27 527.63 438.12 614.84 438.34 655.32" opacity=".1"/>
    <polygon fill="#000000" fill-rule="nonzero" points="910.7 572.42 888.31 527.63 862.34 610.32 867.34 657.32" opacity=".1"/>
    <polygon fill="#3F3D56" fill-rule="nonzero" points="436.48 612.46 862.38 610.13 867.1 657.27 438.12 656.09"/>
    <polygon fill="#000000" fill-rule="nonzero" points="436.48 612.46 862.38 610.13 867.1 657.27 438.12 656.09" opacity=".1"/>
    <rect width="433" height="50.68" x="436.34" y="652.68" fill="#FFFFFF" fill-rule="nonzero" opacity=".1" rx="10.47"/>
    <path fill="#FFE09C" fill-rule="nonzero" d="M780.73,483.14 C780.73,483.14 779.29,481.14 777.59,482.22 C776.78,482.75 772.97,487.55 769.23,492.43 C767.39,494.82 765.56,497.23 764.11,499.15 C762.32,501.51 761.11,503.15 761.11,503.15 L760.39,504.5 L756.02,512.67 L751.91,520.35 L750.91,523.97 L764.79,528.69 L780.59,524.38 L779.91,521.45 L779.79,520.95 L779.92,514.21 L780.28,495.21 L780.45,486.66 L780.45,485.66 L780.73,483.14 Z"/>
    <path fill="#E7C4C3" fill-rule="nonzero" d="M748.95,529.98 C748.95,529.98 763.95,535.33 771.64,532.53 C771.64,532.53 778.29,530.41 780.91,528.36 C780.91,528.36 783.7,526.9 779.91,522.14 C779.91,522.14 770.2,528.09 761.01,525.75 L751.82,523.4 L748.95,529.98 Z"/>
    <ellipse cx="763.578" cy="519.622" fill="#FF7F8E" fill-rule="nonzero" transform="rotate(-30.37 763.578 519.622)" rx="4.91" ry="4.16"/>
    <ellipse cx="773.553" cy="507.662" fill="#FF7F8E" fill-rule="nonzero" transform="rotate(-30.37 773.553 507.662)" rx="4.91" ry="4.16"/>
    <path fill="#FF7F8E" fill-rule="nonzero" d="M779.91 514.21C778.3815 513.57211 776.639274 513.709851 775.23 514.58 772.89 515.95 771.93 518.67 773.1 520.65 774.27 522.63 777.1 523.13 779.43 521.76 779.59 521.66 779.75 521.56 779.9 521.45L779.78 520.95 779.91 514.21zM762.94 506.28C762.377733 505.350449 761.447162 504.703411 760.38 504.5L756.01 512.67C757.56329 513.370238 759.363408 513.25023 760.81 512.35 763.15 510.98 764.1 508.26 762.94 506.28zM772.66 494.31C771.92566 493.135029 770.635559 492.42377 769.25 492.43 767.41 494.82 765.58 497.23 764.13 499.15L764.19 499.27C765.35 501.27 768.19 501.74 770.53 500.37 772.87 499 773.8 496.29 772.66 494.31zM780.44 486.65C779.924075 486.779427 779.429137 486.981443 778.97 487.25 776.63 488.62 775.68 491.34 776.84 493.32 777.578079 494.501062 778.877343 495.213195 780.27 495.2L780.44 486.65z"/>
    <path fill="#94CC79" fill-rule="nonzero" d="M757.15 519.44L756.35 518.09C757.547868 517.73233 758.653482 517.1181 759.59 516.29 759.65 516.23 759.7 516.16 759.75 516.1 760.75 514.84 760.54 517.46 760.54 517.46 760.54 517.46 758.08 519.55 757.15 519.44zM768.95 517.35L768.15 515.99C769.347 515.630272 770.452193 515.016276 771.39 514.19 771.39 514.13 771.5 514.07 771.55 514 772.55 512.75 772.34 515.36 772.34 515.36 772.34 515.36 769.88 517.46 768.95 517.35zM767.87 511.75L767.07 510.39C768.266141 510.033235 769.371267 509.422688 770.31 508.6 770.36 508.53 770.42 508.47 770.47 508.41 771.47 507.15 771.26 509.76 771.26 509.76 771.26 509.76 768.8 511.84 767.87 511.75zM769.3 501.65L768.5 500.29C769.697 499.930272 770.802193 499.316276 771.74 498.49 771.74 498.43 771.85 498.37 771.9 498.3 772.9 497.04 772.69 499.66 772.69 499.66 772.69 499.66 770.23 501.75 769.3 501.65zM776.07 489.43L775.28 488.07C776.474445 487.711299 777.576585 487.097104 778.51 486.27 778.568634 486.211327 778.622161 486.147763 778.67 486.08 779.67 484.83 779.47 487.44 779.47 487.44 779.47 487.44 777 489.53 776.07 489.43zM775.31 501.9L774.51 500.54C775.707127 500.185587 776.812733 499.574773 777.75 498.75 777.75 498.68 777.86 498.62 777.91 498.56 778.91 497.3 778.7 499.91 778.7 499.91 778.7 499.91 776.24 502.01 775.31 501.9z"/>
    <path fill="#E7C4C3" fill-rule="nonzero" d="M746.49,525.75 C746.49,525.75 744.57,530.75 748.95,529.95 C750.899166,527.690276 752.23215,524.965753 752.82,522.04 C752.82,522.04 762.29,501.29 765.09,499.39 C765.09,499.39 777.43,482.52 778.76,482.27 C778.76,482.27 779.19,480.63 774.88,484.1 C770.57,487.57 761.13,500.93 761.13,500.93 L752.13,515.6 L750.01,521.45 L746.49,525.75 Z"/>
    <path fill="#FFFFFF" fill-rule="nonzero" d="M746.49,525.75 C746.49,525.75 744.57,530.75 748.95,529.95 C750.899166,527.690276 752.23215,524.965753 752.82,522.04 C752.82,522.04 762.29,501.29 765.09,499.39 C765.09,499.39 777.43,482.52 778.76,482.27 C778.76,482.27 779.19,480.63 774.88,484.1 C770.57,487.57 761.13,500.93 761.13,500.93 L752.13,515.6 L750.01,521.45 L746.49,525.75 Z" opacity=".2"/>
    <path fill="#FBBEBE" fill-rule="nonzero" d="M597.74,627.32 C599.390387,632.743339 601.422118,638.043217 603.82,643.18 C610.706048,641.73995 617.48006,639.808337 624.09,637.4 C624.3,637.33 620.3,632.1 619.88,631.67 C618.251118,629.869627 616.30983,628.378934 614.15,627.27 C612.04,626.35 609.44,627.05 607.15,627.17 C604.03,627.33 600.893333,627.38 597.74,627.32 Z"/>
    <path fill="#2F2E41" fill-rule="nonzero" d="M614.19,635.53 C610.75,634.45 608.65,630.98 607.25,627.64 C605.85,624.3 604.72,620.64 602.06,618.2 C601.033909,618.356424 600.154899,619.017559 599.72,619.96 C599.304872,620.896998 598.840901,621.811587 598.33,622.7 C597.23,624.3 595.33,625.08 593.88,626.44 C592.43,627.8 591.62,629.87 590.11,631.24 C588.21,632.96 585.53,633.39 583.04,633.96 C579.183064,634.835582 575.457862,636.214041 571.96,638.06 C570.672768,638.836874 569.296045,639.45472 567.86,639.9 C566.278704,640.208384 564.658322,640.262396 563.06,640.06 L552.06,639.28 C551.080227,639.154332 550.086272,639.194902 549.12,639.4 C546.832778,640.234486 545.395305,642.505694 545.62,644.93 C545.904992,647.304561 547.165915,649.453203 549.1,650.86 C551.022187,652.226168 553.139297,653.294836 555.38,654.03 C564.975634,657.657476 574.856361,660.480541 584.92,662.47 L584.92,664.65 C591.915612,668.098299 599.610683,669.891192 607.41,669.89 C607.985223,669.930828 608.561753,669.831308 609.09,669.6 C609.811657,669.077979 610.316873,668.309481 610.51,667.44 C613.158071,659.694875 614.703216,651.615683 615.1,643.44 C615.295882,641.371575 615.136929,639.284888 614.63,637.27 C614.03,635.27 616.09,636.12 614.18,635.34"/>
    <path fill="#2F2E41" fill-rule="nonzero" d="M825.51,593.99 C792.84,595.99 760.51,586.38 727.85,585.36 C723.78331,585.103231 719.700475,585.365339 715.7,586.14 C711.5,587.08 707.58,588.98 703.7,590.8 C686.15,598.96 668.01,605.72 649.88,612.47 L629.06,620.23 C624.9,621.78 620.59,623.35 616.16,623.08 C614.16,622.96 611.73,622.66 610.62,624.31 C607.23,629.31 608.83,636.7 611.07,642.31 C611.79,644.13 613.07,646.11 614.97,646.31 C616.34,646.45 617.62,645.66 618.97,645.31 C622.76,644.31 626.54,646.85 630.44,647.26 C635.26,647.77 639.73,645.03 644.28,643.35 C651.82,640.56 660.07,640.65 668,639.35 C681.3,637.13 693.62,630.96 705.14,623.93 C709.52,621.25 713.96,618.38 719,617.4 C724.79,616.27 730.74,617.76 736.43,619.4 C749.972645,623.229701 763.304407,627.76931 776.37,633 C783.25,635.76 790.09,638.71 797.25,640.62 C812.73842,644.692471 829.120431,643.736445 844.03,637.89 C849.25,635.82 854.94,632.17 855.24,626.53 C855.41,623.31 852.91,620.53 851.24,617.73 C850.18,615.96 849.11,614.2 847.94,612.5 C842.27,604.24 835.43,593.4 825.51,593.99 Z"/>
    <path fill="#000000" fill-rule="nonzero" d="M825.51,593.99 C792.84,595.99 760.51,586.38 727.85,585.36 C723.78331,585.103231 719.700475,585.365339 715.7,586.14 C711.5,587.08 707.58,588.98 703.7,590.8 C686.15,598.96 668.01,605.72 649.88,612.47 L629.06,620.23 C624.9,621.78 620.59,623.35 616.16,623.08 C614.16,622.96 611.73,622.66 610.62,624.31 C607.23,629.31 608.83,636.7 611.07,642.31 C611.79,644.13 613.07,646.11 614.97,646.31 C616.34,646.45 617.62,645.66 618.97,645.31 C622.76,644.31 626.54,646.85 630.44,647.26 C635.26,647.77 639.73,645.03 644.28,643.35 C651.82,640.56 660.07,640.65 668,639.35 C681.3,637.13 693.62,630.96 705.14,623.93 C709.52,621.25 713.96,618.38 719,617.4 C724.79,616.27 730.74,617.76 736.43,619.4 C749.972645,623.229701 763.304407,627.76931 776.37,633 C783.25,635.76 790.09,638.71 797.25,640.62 C812.73842,644.692471 829.120431,643.736445 844.03,637.89 C849.25,635.82 854.94,632.17 855.24,626.53 C855.41,623.31 852.91,620.53 851.24,617.73 C850.18,615.96 849.11,614.2 847.94,612.5 C842.27,604.24 835.43,593.4 825.51,593.99 Z" opacity=".1"/>
    <path fill="#FBBEBE" fill-rule="nonzero" d="M660.46,628.91 C665.566667,630.65 670.726667,632.253333 675.94,633.72 C678.85,628.94 684.3,625.61 685.54,620.15 C685.645303,619.905801 685.641027,619.628205 685.528253,619.387366 C685.415479,619.146526 685.204997,618.965487 684.95,618.89 C681.225032,616.826871 677.089298,615.614497 672.84,615.34 C669.48,615.13 667.95,618.63 666.42,621.1 C665.81,622.09 661.83,629.38 660.46,628.91 Z"/>
    <path fill="#2F2E41" fill-rule="nonzero" d="M667.66,625.42 C664.572571,624.898004 661.845092,623.106282 660.14,620.48 C659.42,619.22 658.65,617.48 657.21,617.61 C655.77,617.74 655.21,619.3 654.95,620.61 C653.98027,625.568583 652.571385,630.431078 650.74,635.14 C648.901347,639.85889 645.784944,643.972543 641.74,647.02 C639.84,648.33 637.74,649.32 635.88,650.7 C634.21,651.93 632.76,653.49 630.88,654.44 C629.651221,655.00912 628.38088,655.483826 627.08,655.86 C625.171669,656.533291 623.346502,657.422388 621.64,658.51 C620.141185,659.376953 618.87232,660.590948 617.94,662.05 C616.982164,663.551957 616.865029,665.441229 617.63,667.05 C618.429724,668.357687 619.751051,669.260413 621.26,669.53 C622.749392,669.790175 624.26888,669.830605 625.77,669.65 C631.72,669.21 637.67,668.65 643.62,668.15 C646.134201,667.997639 648.634071,667.663432 651.1,667.15 C652.41,666.83 653.68,666.42 654.98,666.08 C657.205156,665.50828 659.484457,665.173089 661.78,665.08 C662.452045,665.027222 663.128179,665.088074 663.78,665.26 C665.16,665.71 666.13,667.08 667.56,667.36 C668.472393,667.447032 669.392599,667.323882 670.25,667 C674.53,665.83 679.04,665.86 683.47,665.62 C685.47,665.52 687.71,665.15 688.61,663.4 C689.73,661.22 687.87,658.78 687.14,656.4 C686.767291,654.903836 686.559387,653.371385 686.52,651.83 C686.183126,648.026509 685.066605,644.333139 683.24,640.98 C681.73,638.2 679.66,635.12 680.72,632.13 C681.08,631.13 681.8,630.13 681.72,629.13 C681.38,624.34 670.37,625.99 667.66,625.42 Z"/>
    <path fill="#FBBEBE" fill-rule="nonzero" d="M776.52,541.58 C770.737258,539.025258 766.105927,534.418865 763.52,528.65 C762.97,527.41 762.52,526.12 762,524.87 C760.284958,520.709369 757.620685,517.007467 754.22,514.06 C753.480415,513.25171 752.425069,512.806201 751.33,512.84 C750.265269,513.164308 749.456118,514.034526 749.21,515.12 C748.910724,516.258008 748.835999,517.443418 748.99,518.61 C749.28218,521.358434 749.756557,524.084432 750.41,526.77 L751.99,533.98 C752.184851,535.091538 752.520905,536.173631 752.99,537.2 C753.668461,538.415182 754.567085,539.49353 755.64,540.38 C757.09,541.72 758.56,543.01 760.05,544.27 C762.127348,546.257983 764.832346,547.460204 767.7,547.67 C774.18,548.87 780.78,550.61 786.26,554.84 C786.19,554.84 786.26,550 786.14,549.45 C785.89,548 785.69,546.56 784.75,545.58 C782.6,543.38 779.11,542.75 776.52,541.58 Z"/>
    <path fill="#000000" fill-rule="nonzero" d="M776.52,541.58 C770.737258,539.025258 766.105927,534.418865 763.52,528.65 C762.97,527.41 762.52,526.12 762,524.87 C760.284958,520.709369 757.620685,517.007467 754.22,514.06 C753.480415,513.25171 752.425069,512.806201 751.33,512.84 C750.265269,513.164308 749.456118,514.034526 749.21,515.12 C748.910724,516.258008 748.835999,517.443418 748.99,518.61 C749.28218,521.358434 749.756557,524.084432 750.41,526.77 L751.99,533.98 C752.184851,535.091538 752.520905,536.173631 752.99,537.2 C753.668461,538.415182 754.567085,539.49353 755.64,540.38 C757.09,541.72 758.56,543.01 760.05,544.27 C762.127348,546.257983 764.832346,547.460204 767.7,547.67 C774.18,548.87 780.78,550.61 786.26,554.84 C786.19,554.84 786.26,550 786.14,549.45 C785.89,548 785.69,546.56 784.75,545.58 C782.6,543.38 779.11,542.75 776.52,541.58 Z" opacity=".1"/>
    <ellipse cx="843.05" cy="478.38" fill="#2F2E41" fill-rule="nonzero" rx="7.95" ry="7.99"/>
    <path fill="#2F2E41" fill-rule="nonzero" d="M838.13,473.55 C835.98,473.31 833.58,473.14 831.85,474.46 C830.931645,475.267357 830.198293,476.263351 829.7,477.38 C827.921354,480.43761 826.533826,483.706531 825.57,487.11 C824.86,490.03 824.74,493.11 823.86,495.95 C822.23,501.27 818.06,505.76 817.58,511.31 C817.37,513.79 817.79,516.7 815.97,518.4 C815.526137,518.773331 815.051061,519.107891 814.55,519.4 C813.292583,520.242176 812.226202,521.33922 811.42,522.62 C810.873815,523.770393 810.121381,524.810922 809.2,525.69 C807.58,526.89 804.9,526.76 804.1,528.62 C803.3,530.48 805.36,532.62 804.88,534.62 C804.49,536.26 802.66,537.01 801.4,538.13 C799.78,539.56 799.04,541.71 798.4,543.77 C793.022994,544.786531 787.470292,543.402008 783.2,539.98 C785.41,545.44 785.46,551.47 785.56,557.37 C785.56,559.28 785.56,561.43 784.16,562.76 C790.49,562.9 796.66,564.61 802.83,566.01 C805.53,566.62 808.46,567.15 810.97,566.01 C812.386905,565.247381 813.65131,564.230433 814.7,563.01 C818.06,559.6 821.58,555.89 822.4,551.16 C822.86,548.52 822.4,545.8 822.54,543.16 C822.848994,539.843503 823.519645,536.570727 824.54,533.4 C826.319422,526.824952 827.514073,520.105461 828.11,513.32 C828.47,509.14 832.11,505.77 833.99,502.02 C837.59,494.96 841.26,487.6 841.53,479.67 C841.66,477.05 840.76,473.84 838.13,473.55 Z"/>
    <path fill="#000000" fill-rule="nonzero" d="M838.13,473.55 C835.98,473.31 833.58,473.14 831.85,474.46 C830.931645,475.267357 830.198293,476.263351 829.7,477.38 C827.921354,480.43761 826.533826,483.706531 825.57,487.11 C824.86,490.03 824.74,493.11 823.86,495.95 C822.23,501.27 818.06,505.76 817.58,511.31 C817.37,513.79 817.79,516.7 815.97,518.4 C815.526137,518.773331 815.051061,519.107891 814.55,519.4 C813.292583,520.242176 812.226202,521.33922 811.42,522.62 C810.873815,523.770393 810.121381,524.810922 809.2,525.69 C807.58,526.89 804.9,526.76 804.1,528.62 C803.3,530.48 805.36,532.62 804.88,534.62 C804.49,536.26 802.66,537.01 801.4,538.13 C799.78,539.56 799.04,541.71 798.4,543.77 C793.022994,544.786531 787.470292,543.402008 783.2,539.98 C785.41,545.44 785.46,551.47 785.56,557.37 C785.56,559.28 785.56,561.43 784.16,562.76 C790.49,562.9 796.66,564.61 802.83,566.01 C805.53,566.62 808.46,567.15 810.97,566.01 C812.386905,565.247381 813.65131,564.230433 814.7,563.01 C818.06,559.6 821.58,555.89 822.4,551.16 C822.86,548.52 822.4,545.8 822.54,543.16 C822.848994,539.843503 823.519645,536.570727 824.54,533.4 C826.319422,526.824952 827.514073,520.105461 828.11,513.32 C828.47,509.14 832.11,505.77 833.99,502.02 C837.59,494.96 841.26,487.6 841.53,479.67 C841.66,477.05 840.76,473.84 838.13,473.55 Z" opacity=".1"/>
    <path fill="#2F2E41" fill-rule="nonzero" d="M830.66,600.87 C823.86,597.63 818.88,591.6 813.38,586.43 C802.88,576.57 790.03,569.59 778.99,560.34 C771.67,554.22 765.13,547.08 757.09,541.95 C750.014121,537.452044 741.996473,534.646038 733.66,533.75 C732.704977,533.580269 731.723969,533.628123 730.79,533.89 C729.736002,534.356417 728.817405,535.08235 728.12,536 C724.557928,540.020626 721.390064,544.373928 718.66,549 C704.66,572.75 684.78,592.75 668.31,614.82 C667.232808,615.907135 667.146623,617.630836 668.11,618.82 L671.46,625.38 C673.33,629.06 676.34,633.38 680.38,632.61 C682.23,632.27 683.7,630.91 685.06,629.61 L700.06,615.24 L715.83,600.16 C725.07,591.33 734.46,582.29 740.49,571 C745.19,579.16 753.55,584.5 759.28,592 C761.46,594.84 763.28,598 765.18,601 C768.3,605.82 771.85,610.35 775.39,614.87 L793.48,637.96 C795.94,641.1 798.48,644.32 801.85,646.45 C806.14,649.16 811.35,649.88 816.39,650.33 C823.185541,650.936559 830.008388,651.18357 836.83,651.07 C842.03,650.98 847.39,650.64 852.06,648.33 C856.73,646.02 860.56,641.33 860.32,636.05 C860.034074,633.336675 859.142103,630.722277 857.71,628.4 C851.29,616.5 842.84,606.65 830.66,600.87 Z"/>
    <ellipse cx="847.94" cy="483.91" fill="#E8E8F0" fill-rule="nonzero" rx="6.11" ry="6.15"/>
    <path fill="#FBBEBE" fill-rule="nonzero" d="M846.59,479.29 C847.964167,482.027592 848.20487,485.196245 847.26,488.11 C846.314387,490.984644 844.992942,493.721683 843.33,496.25 C841.899179,498.860053 840.185537,501.304761 838.22,503.54 C847.65,504 856.8,500.3 865.12,495.81 C871.82,492.21 878.5,487.75 882.12,481.01 C879.967875,481.531199 877.695652,481.11311 875.87,479.86 C874.074307,478.606196 872.465028,477.104651 871.09,475.4 L866.35,470.07 C865.237657,468.91167 864.261324,467.630023 863.44,466.25 C862.412658,464.362095 861.977113,462.20876 862.19,460.07 C860.308956,462.040863 858.204782,463.785951 855.92,465.27 C852.54,467.47 848.81,469.07 845.42,471.27 C844.22,472.04 841.54,473.27 842.23,474.86 C842.92,476.45 845.66,477.61 846.59,479.29 Z"/>
    <path fill="#000000" fill-rule="nonzero" d="M846.59,479.29 C847.964167,482.027592 848.20487,485.196245 847.26,488.11 C846.314387,490.984644 844.992942,493.721683 843.33,496.25 C841.899179,498.860053 840.185537,501.304761 838.22,503.54 C847.65,504 856.8,500.3 865.12,495.81 C871.82,492.21 878.5,487.75 882.12,481.01 C879.967875,481.531199 877.695652,481.11311 875.87,479.86 C874.074307,478.606196 872.465028,477.104651 871.09,475.4 L866.35,470.07 C865.237657,468.91167 864.261324,467.630023 863.44,466.25 C862.412658,464.362095 861.977113,462.20876 862.19,460.07 C860.308956,462.040863 858.204782,463.785951 855.92,465.27 C852.54,467.47 848.81,469.07 845.42,471.27 C844.22,472.04 841.54,473.27 842.23,474.86 C842.92,476.45 845.66,477.61 846.59,479.29 Z" opacity=".1"/>
    <path fill="#6C63FF" fill-rule="nonzero" d="M846.72,480.22 C844.95,483.22 844.57,486.72 846.72,489.44 C846.99,489.78 847.98,491.88 848.41,491.9 C848.826172,491.858377 849.211575,491.662107 849.49,491.35 C851.78,489.26 853.49,486.59 855.49,484.22 C857.49,481.85 860.04,479.7 863.1,479.22 C866.79,478.65 870.36,480.6 873.59,482.49 C874.994942,483.174987 876.220748,484.178231 877.17,485.42 C877.850788,486.651135 878.253565,488.016481 878.35,489.42 C879.46,497.83 879.44,506.35 879.41,514.83 C879.41,520.97 879.41,527.14 878.21,533.16 C877.61,536.28 876.71,539.33 876.28,542.47 C875.971496,545.242038 875.847889,548.03154 875.91,550.82 L875.91,562.5 C875.828933,564.643316 875.979809,566.789116 876.36,568.9 C876.91,571.46 878.12,573.82 878.93,576.31 C879.766283,579.171661 880.338675,582.103912 880.64,585.07 L882.24,597.16 C882.74,600.97 883.11,605.16 880.81,608.16 C879.81,609.54 878.4,610.65 877.35,612.03 C873.35,617.17 874.66,624.52 873.01,630.81 C871.711728,635.414845 869.039434,639.51399 865.35,642.56 C862.52,644.96 858.87,646.84 855.24,646.17 C850.33,645.26 847.38,640.17 846.04,635.3 C844.7,630.43 844.22,625.2 841.32,621.12 C838.95,617.78 835.32,615.68 831.96,613.3 C828.6,610.92 825.4,607.85 824.68,603.81 C824.36,602.05 824.56,600.24 824.37,598.46 C823.837499,593.864223 820.838579,589.925744 816.55,588.19 C814.04,587.19 810.94,586.86 809.55,584.56 C813.21,582.5 815.63,578.69 816.91,574.68 C818.19,570.67 818.45,566.41 818.7,562.21 L819.54,548.16 C819.91,541.88 820.08,535.66 822.85,530.02 C824.08,527.49 825.62,525.13 826.91,522.64 C828.611542,519.136196 830.065112,515.517308 831.26,511.81 C833.26,506.05 835.26,500.29 837.06,494.46 C837.77629,491.64375 838.844711,488.92902 840.24,486.38 C841.66,483.94 843.88,480.75 846.72,480.22 Z"/>
    <path fill="#2F2E41" fill-rule="nonzero" d="M815.52 571.5L819.24 571.63 820.03 566.02C820.130699 564.894811 820.393412 563.790069 820.81 562.74 821.425739 561.633187 822.142097 560.58543 822.95 559.61 826.61 554.44 826.34 547.61 827.25 541.3 828.46 532.92 831.96 525.08 835.42 517.37L842.66 501.28C844.093808 498.546588 844.783542 495.484167 844.66 492.4 844.73 489.91 845.46 480.87 845.53 478.4 845.53 477.48 843.53 477.99 843.08 477.17 842.18 475.38 840.94 480.23 839.25 481.29 837.56 482.35 836.62 484.29 835.91 486.15 834.35 490.2 833.4 494.46 831.91 498.55 830.42 502.64 828.44 506.66 825.17 509.55 823.69 510.85 821.99 511.87 820.59 513.26 816.1 517.7 815.66 524.71 815.5 531.04 815.42 534.75 814.66 571.5 815.52 571.5zM869.04 473.51C865.43 474.93 863.45 478.85 862.44 482.61 861.43 486.37 861.01 490.39 859.07 493.76 854.53 501.65 842.97 503.95 839.78 512.48 838.78 515.27 838.78 518.33 838.49 521.3 837.91 527.41 835.9 533.3 835.31 539.42 834.995147 544.16701 835.105587 548.932671 835.64 553.66L839.64 601.85C840.23 608.85 840.21 616.28 838.43 623.04 842.52 623.83 846.78 622.77 850.57 621.04 854.36 619.31 857.83 616.93 861.48 614.92 867.76 611.45 874.69 609 880.19 604.38 881.186797 603.604635 882.039742 602.660303 882.71 601.59 883.81 599.69 883.91 597.38 884.43 595.24 884.904254 593.529394 885.509372 591.857798 886.24 590.24 888.254605 585.383063 890.010401 580.422774 891.5 575.38 892.52315 572.035717 893.328176 568.628557 893.91 565.18 894.35 562.44 894.59 559.66 894.83 556.89 895.123008 552.549719 895.983673 548.266568 897.39 544.15 900.90417 534.337388 902.897203 524.045109 903.3 513.63 903.413259 512.126214 903.308849 510.613953 902.99 509.14 902.373167 507.352779 901.554546 505.641726 900.55 504.04 898.87 500.88 897.86 497.4 896.28 494.18 892.7 486.93 886.37 481.42 879.75 476.81 876.53 474.56 872.73 472.07 869.04 473.51z"/>
    <path fill="#FBBEBE" fill-rule="nonzero" d="M784.57,552.13 C781.698176,550.622793 779.098922,548.645467 776.88,546.28 C775.88,545.1 775.04,543.77 774.01,542.61 C771.413749,539.836026 768.039452,537.91184 764.33,537.09 C760.650022,536.281874 756.886728,535.915952 753.12,536 C750.599167,535.839421 748.070316,536.14451 745.66,536.9 C743.209043,537.701596 741.342793,539.707626 740.72,542.21 C740.17,545.21 742.13,548.12 744.48,550.05 C746.668341,551.835494 749.243368,553.085341 752,553.7 C754.246975,554.088748 756.513794,554.352487 758.79,554.49 C772.17,555.89 784.11,563.17 795.79,569.8 C806.09,575.633333 816.586667,581.08 827.28,586.14 C827.701484,582.934757 827.878662,579.702107 827.81,576.47 C827.75,574.06 827.63,570.38 825.35,568.96 C822.7,567.31 818.35,566.96 815.35,565.96 C808.457526,563.70003 801.725543,560.977168 795.2,557.81 C791.593333,556.043333 788.05,554.15 784.57,552.13 Z"/>
    <ellipse cx="843.676" cy="453.131" fill="#FBBEBE" fill-rule="nonzero" transform="rotate(-75.27 843.676 453.131)" rx="23.97" ry="23.84"/>
    <path fill="#2F2E41" fill-rule="nonzero" d="M875.86,500.69 C873.73,503.17 872.66,506.37 871.23,509.31 C868.29,515.37 863.67,520.57 861.36,526.91 C858.92,533.59 859,541.53 854.22,546.78 C853.39,547.69 852.39,548.57 852.15,549.78 C852.117109,550.514879 852.033578,551.246615 851.9,551.97 C851.22,553.87 848.1,553.97 847.52,555.91 C847.35,556.48 847.44,557.1 847.23,557.66 C846.75,558.91 845.1,559.1 843.99,559.86 C841.67,561.43 842.14,565.07 840.49,567.34 C839.014955,569.069764 836.719183,569.865632 834.49,569.42 C832.322617,568.975336 830.237658,568.196007 828.31,567.11 C827.625372,566.729669 826.8696,566.494767 826.09,566.42 C825.166111,566.449264 824.271686,566.752046 823.52,567.29 C819.12,570.09 817.05,575.64 817.08,580.88 C817.11,586.12 818.91,591.16 820.75,596.06 C821.004515,596.886053 821.419053,597.653967 821.97,598.32 C823.43,599.86 825.97,599.62 827.91,598.76 C829.85,597.9 831.61,596.55 833.69,596.17 C837.38,595.5 840.99,598.04 844.69,597.83 C847.43,597.67 849.86,596.08 852.13,594.54 C855.77,592.08 859.47,589.54 862.13,586.06 C863.77,583.92 864.97,581.49 866.4,579.2 C868.229899,576.409897 870.233873,573.737931 872.4,571.2 L886.14,554.38 C887.519295,552.787273 888.757303,551.077484 889.84,549.27 C891.090578,546.828578 892.056897,544.251726 892.72,541.59 C894.03,537.1 895.35,532.59 895.57,527.9 C895.646376,524.051955 895.311138,520.206771 894.57,516.43 C894.095752,512.665585 893.085523,508.988351 891.57,505.51 C888.74,499.27 881.47,494.14 875.86,500.69 Z"/>
    <path fill="#3F3D56" fill-rule="nonzero" d="M917.42,489.99 C919.652002,481.663422 917.747124,472.77151 912.3,466.09 C915.95,450.52 908,434.93 894,429.16 C894.5,414.56 885.25,401.16 871,397.4 C856.19,393.51 841,401.33 834.61,415.23 C825.61,410.56 816.09,411.06 812.95,416.55 C809.67,422.29 814.6,431.32 823.95,436.71 C826.897056,438.432248 830.122126,439.626844 833.48,440.24 C836.395918,448.487998 842.661075,455.119985 850.73,458.5 C850.227859,470.540143 856.578797,481.828548 867.13,487.65 C867.695207,491.753309 869.212276,495.667553 871.56,499.08 C871.284865,499.795973 871.051146,500.527181 870.86,501.27 C867.92,512.42 874.28,523.76 885.05,526.59 C895.82,529.42 906.94,522.68 909.87,511.53 C910.657526,508.557527 910.793968,505.450058 910.27,502.42 C913.726188,498.993824 916.195989,494.700171 917.42,489.99 L917.42,489.99 Z"/>
    <path fill="#000000" fill-rule="nonzero" d="M819.12 419.45C822.26 413.96 831.77 413.45 840.78 418.13 847.15 404.23 862.36 396.4 877.17 400.3 877.84 400.47 878.5 400.68 879.17 400.9 876.637227 399.337805 873.887536 398.158403 871.01 397.4 856.2 393.51 841.01 401.33 834.62 415.23 825.62 410.56 816.1 411.06 812.96 416.55 809.68 422.29 814.61 431.32 823.96 436.71 825.714841 437.719849 827.563497 438.557102 829.48 439.21 820.54 433.75 815.92 425.05 819.12 419.45zM877.04 504.17C877.231146 503.427181 877.464865 502.695973 877.74 501.98 875.392148 498.563921 873.87514 494.646412 873.31 490.54 862.758679 484.723643 856.406974 473.437747 856.91 461.4 848.841075 458.019985 842.575918 451.387998 839.66 443.14 837.70202 442.790843 835.787552 442.23092 833.95 441.47 837.035116 449.155591 843.077144 455.280485 850.72 458.47 850.217859 470.510143 856.568797 481.798548 867.12 487.62 867.685207 491.723309 869.202276 495.637553 871.55 499.05 871.274865 499.765973 871.041146 500.497181 870.85 501.24 867.92 512.35 874.23 523.65 884.94 526.53 877.909283 521.44753 874.762567 512.541128 877.04 504.17L877.04 504.17z" opacity=".1"/>
    <ellipse cx="850.989" cy="457.471" fill="#FBBEBE" fill-rule="nonzero" transform="rotate(-37.22 850.989 457.47)" rx="3.67" ry="4.91"/>
    <circle cx="560.8" cy="234.05" r="16.29" fill="#3F3D56" fill-rule="nonzero"/>
    <ellipse cx="596.15" cy="270.2" fill="#3F3D56" fill-rule="nonzero" rx="45.69" ry="59.2"/>
    <path fill="#000000" fill-rule="nonzero" d="M596.15,311.52 C573.26,311.52 554.3,289.71 550.97,261.26 C550.623604,264.227408 550.449978,267.212442 550.45,270.2 C550.45,302.89 570.91,329.4 596.15,329.4 C621.39,329.4 641.84,302.89 641.84,270.2 C641.840022,267.212442 641.666396,264.227408 641.32,261.26 C638,289.75 619.04,311.52 596.15,311.52 Z" opacity=".1"/>
    <path fill="#3F3D56" fill-rule="nonzero" d="M693.51,443.58 C692.51,447.58 688.3,450.84 683.62,453.09 C673.76,457.84 661.62,459.25 649.83,459.73 C646.830237,459.912021 643.820749,459.855176 640.83,459.56 C634.66,458.83 628.94,456.2 625.37,452.45 C624.86083,452.040587 624.507789,451.46866 624.37,450.83 C624.420362,450.055859 624.780904,449.334774 625.37,448.83 C631.66,441.97 642.14,437.75 652.66,434.75 C660.66,432.44 674.6,426.46 683.33,427.27 C691.81,428 694.75,438.48 693.51,443.58 Z"/>
    <path fill="#000000" fill-rule="nonzero" d="M693.51,443.58 C692.51,447.58 688.3,450.84 683.62,453.09 C673.76,457.84 661.62,459.25 649.83,459.73 C646.830237,459.912021 643.820749,459.855176 640.83,459.56 C634.66,458.83 628.94,456.2 625.37,452.45 C624.86083,452.040587 624.507789,451.46866 624.37,450.83 C624.420362,450.055859 624.780904,449.334774 625.37,448.83 C631.66,441.97 642.14,437.75 652.66,434.75 C660.66,432.44 674.6,426.46 683.33,427.27 C691.81,428 694.75,438.48 693.51,443.58 Z" opacity=".1"/>
    <path fill="#605D82" fill-rule="nonzero" d="M568.25,413.44 C565.251009,419.323636 564.707974,426.156531 566.74,432.44 C568.811641,438.688282 572.69239,444.180499 577.89,448.22 C590.66,458.47 608.18,459.88 624.51,459.75 C638.829043,459.620978 653.127693,458.63924 667.33,456.81 C672.06,456.2 676.84,455.48 681.22,453.59 C686.55,451.28 691.22,447.05 693.13,441.59 C695.04,436.13 693.69,429.37 689.13,425.71 C685.13,422.49 679.7,422.05 674.61,421.71 L645.46,419.96 C648.34,417.04 652.17,415.39 655.68,413.28 C660.33,410.46 663.42,405.74 666.81,401.49 C671.81,395.13 677.81,389.57 683.81,384.04 C684.81,389.48 688.2,393.95 692.25,397.71 C696.3,401.47 700.97,404.49 705.19,408.06 C715.39,416.72 722.73,428.48 733.46,436.48 C740.841654,434.539005 747.742601,431.093638 753.73,426.36 L749.56,418.81 C749.21775,418.019185 748.67693,417.330242 747.99,416.81 C746.8,416.09 745.28,416.46 743.91,416.26 C740.25,415.71 738.65,411.48 737.21,408.07 C733.27,398.69 725.71,391.42 719.21,383.56 C714.469431,377.765438 710.268611,371.549563 706.66,364.99 C704.49,361.08 702.51,356.99 699.56,353.62 C696.61,350.25 692.5,347.62 688.02,347.62 C684.02,347.62 680.42,349.62 677.02,351.62 C666.662825,357.773596 656.697049,364.563282 647.18,371.95 C642.18,375.81 637.25,379.9 631.41,382.27 C628.95,383.27 626.41,383.95 624,385.16 C619.87,387.29 616.73,390.89 613.35,394.08 C601.31,405.47 584.82,412.85 568.25,413.44 Z"/>
    <path fill="#FBBEBE" fill-rule="nonzero" d="M629.21,332.34 C629.080234,335.825502 628.338961,339.261083 627.02,342.49 C625.670403,345.732845 623.033258,348.268561 619.74,349.49 C617.422462,350.11131 614.992891,350.190014 612.64,349.72 C610.583936,349.498211 608.604607,348.814505 606.85,347.72 C604.12,345.84 602.76,342.49 602.26,339.21 C601.76,335.93 601.99,332.58 601.67,329.28 C601.358539,326.612833 600.85049,323.972316 600.15,321.38 C599.94,320.52 599.72,319.66 599.5,318.8 C599.28,317.94 599.09,317.08 598.9,316.22 C598.71,315.36 598.56,314.61 598.42,313.79 C598.28,312.97 598.2,312.41 598.13,311.72 C598.066238,309.658103 597.729988,307.613702 597.13,305.64 C596.560401,304.36229 595.845702,303.154349 595,302.04 C594.64,301.52 594.29,301.04 594,300.47 C593.069069,299.076822 592.635675,297.410189 592.77,295.74 C592.808314,295.48106 592.871952,295.226506 592.96,294.98 C592.990597,294.884395 593.02734,294.790866 593.07,294.7 C593.793855,294.501285 594.373523,293.959015 594.62,293.25 C594.756778,292.496396 594.691215,291.719996 594.43,291 C594.13607,289.994428 593.730195,289.025025 593.22,288.11 C592.89,287.51 591.76,286.42 591.75,285.73 C591.75,284.34 594.45,283.22 595.55,282.67 C598.910161,280.984579 602.658815,280.225183 606.41,280.47 C608.81,280.63 611.41,281.37 612.74,283.39 C613.94,285.2 613.74,287.55 614.29,289.66 C614.335927,289.96807 614.463706,290.258163 614.66,290.5 C614.921104,290.737429 615.249629,290.887712 615.6,290.93 C616.185798,291.048159 616.786732,291.071791 617.38,291 L617.38,291 C617.53851,290.991405 617.695865,290.967969 617.85,290.93 C618.774738,290.758998 619.649462,290.38314 620.41,289.83 C620.91,289.69 621.41,289.59 621.9,289.5 L621.96,289.5 C623.96,295.78 624.21,302.5 625.84,308.92 C626.65,312.1 627.84,315.24 627.97,318.52 C627.97,318.66 627.97,318.81 627.97,318.95 C627.97,320.01 627.91,321.07 627.97,322.12 C627.988156,322.590018 628.04164,323.058005 628.13,323.52 C628.310384,324.26464 628.530703,324.999034 628.79,325.72 L628.79,325.72 C628.86,325.95 628.93,326.18 628.99,326.42 C629.039452,326.587637 629.079514,326.757901 629.11,326.93 L629.11,326.93 C629.403053,328.719166 629.436733,330.541227 629.21,332.34 L629.21,332.34 Z"/>
    <circle cx="601.33" cy="267.82" r="23.44" fill="#FBBEBE" fill-rule="nonzero"/>
    <path fill="#FBBEBE" fill-rule="nonzero" d="M750.16,395.54 C749.47691,389.151042 747.204428,383.034937 743.55,377.75 L745.38,388.6 C743.828906,389.04436 742.161765,388.530488 741.13,387.29 C740.141183,386.057032 739.385489,384.654084 738.9,383.15 C736.23673,376.539795 732.752728,370.290765 728.53,364.55 C713.61,363.3 698.85,357.12 685.73,349.9 C672.61,342.68 660.32,334.05 647.36,326.54 C645.112992,325.184914 642.773951,323.988661 640.36,322.96 C636.31,321.34 631.76,320.5 627.92,318.59 L627.15,318.18 C626.279554,317.713071 625.455798,317.163901 624.69,316.54 C624.278587,316.200353 623.887887,315.836368 623.52,315.45 C621.60215,313.222005 620.080138,310.681937 619.02,307.94 C616.96,303.38 616.22,297.87 614.17,293.31 C615.115865,292.429531 616.17526,291.679547 617.32,291.08 L617.32,291.08 L617.82,290.83 C618.634683,290.449639 619.481289,290.141783 620.35,289.91 C620.85,289.77 621.35,289.67 621.84,289.58 L621.9,289.58 C624.224017,289.205395 626.603998,289.39401 628.84,290.13 C632.1,291.24 634.84,293.44 637.6,295.53 C641.95,298.82 646.47,301.92 650.42,305.69 C652.68,307.86 654.75,310.24 657.18,312.21 C659.206073,313.774034 661.341533,315.19099 663.57,316.45 L703.11,340 C707.57,342.65 712.04,345.31 716.4,348.13 C723.03,352.4 729.4,357.03 735.8,361.66 L747.09,369.84 C748.32673,370.641557 749.410403,371.657501 750.29,372.84 C751.064103,374.165955 751.544909,375.642473 751.7,377.17 C752.638157,383.329245 752.110543,389.622922 750.16,395.54 L750.16,395.54 Z"/>
    <path fill="#6C63FF" fill-rule="nonzero" d="M635.03,349.97 C633.44,357.06 626.28,361.35 622.53,367.58 C617.87,375.31 619.77,384.3 621.53,393.16 L611.94,401.42 C610.18,402.93 608.41,404.42 606.52,405.79 C603.747973,407.653344 600.851146,409.323948 597.85,410.79 L589.37,415.15 C586.7392,416.628061 583.952036,417.808665 581.06,418.67 C575.48,420.1 569.56,419.1 564.06,417.45 C563.409022,417.280327 562.783528,417.024749 562.2,416.69 C561.857014,416.48366 561.557997,416.211827 561.32,415.89 C560.771838,414.915489 560.574193,413.782555 560.76,412.68 C561.32,403.4 563.59,394.31 565.85,385.29 C567.037586,379.873025 568.645795,374.55691 570.66,369.39 C572.644081,364.967103 574.925988,360.683932 577.49,356.57 C580.49,351.5 583.49,346.39 587.49,342.04 C589.2,340.16 591.11,338.38 592.13,336.04 C593.54,332.82 592.99,329.13 593.28,325.63 C593.496188,322.995217 594.194437,320.422542 595.34,318.04 L595.34,318.04 C595.952711,316.757738 596.689563,315.538582 597.54,314.4 C597.93,315.3 598.31,316.2 598.7,317.09 L599.45,318.85 C599.78,319.6 600.1,320.36 600.45,321.11 C601.383333,323.256667 602.31,325.406667 603.23,327.56 C604.22261,330.272401 605.644009,332.807963 607.44,335.07 C609.35,337.23 612.16,338.8 615.02,338.49 C617.739896,338.036349 620.111804,336.384092 621.48,333.99 C622.819778,331.621935 623.787739,329.062067 624.35,326.4 C625.13786,323.160718 625.246812,319.793437 624.67,316.51 C623.67,310.18 621.02,303.72 619.07,297.84 C618.274591,295.880897 617.814827,293.801817 617.71,291.69 C617.708517,291.45154 617.731978,291.213579 617.78,290.98 L617.78,290.8 C618.594683,290.419639 619.441289,290.111783 620.31,289.88 C620.81,289.74 621.31,289.64 621.8,289.55 C623.52,298.883333 625.243333,308.196667 626.97,317.49 C626.97,317.71 627.06,317.93 627.1,318.15 C627.34,319.49 627.59,320.82 627.87,322.15 C628.15,323.48 628.39,324.56 628.69,325.75 L628.69,325.75 C628.79,326.15 628.9,326.56 629.01,326.96 L629.01,326.96 C629.32,328.06 629.66,329.14 630.01,330.22 C632.45,336.75 636.52,343.26 635.03,349.97 Z"/>
    <path fill="#2F2E41" fill-rule="nonzero" d="M730.17,449.64 C730.083512,451.017044 730.348475,452.393474 730.94,453.64 C732.4,456.32 735.94,456.93 738.94,457.18 C756.734365,458.64682 774.637362,458.103391 792.31,455.56 C793.270025,455.489905 794.200886,455.19901 795.03,454.71 C797.54,452.95 796.03,448.66 793.25,447.28 C790.47,445.9 787.25,446.28 784.25,445.65 C781.257658,444.893256 778.407488,443.657281 775.81,441.99 C769.71,438.483333 763.71,434.816667 757.81,430.99 C754.28,428.72 750.11,426.3 746.14,427.65 C735.35,431.29 730.09,438.03 730.17,449.64 Z"/>
    <path fill="#FBBEBE" fill-rule="nonzero" d="M598.99,315.75 L598.99,315.75 L598.9,316.24 L598.75,317.06 C598.26,319.58 597.65,322.06 596.96,324.59 C595.05,331.48 592.5,338.27 589.96,344.95 L569.55,398.75 C567.83,403.27 566.12,407.75 564.17,412.21 C563.52,413.68 562.85,415.21 562.17,416.67 C559.78,422.04 557.48,427.59 556.72,433.32 C556.22,437.11 555.72,440.98 556.47,444.73 C557.22,448.48 559.47,452.15 563.08,453.53 C564.82,454.21 567.31,455.12 566.83,456.93 C566.58,457.93 565.45,458.41 564.43,458.57 C561.721933,459.006702 558.96036,458.21087 556.9,456.4 C555,454.72 553.53,452.09 551,451.81 C549.25,451.62 547.64,452.67 546,453.4 C539.45,456.4 531.83,454.3 524.95,452.17 C525.49,449.39 528.29,447.55 531.06,447 C533.83,446.45 536.71,446.83 539.55,446.76 C540.458456,446.807488 541.359439,446.573512 542.13,446.09 C542.826358,445.467555 543.323759,444.653628 543.56,443.75 C545.38231,438.34269 546.73728,432.788987 547.61,427.15 C548.53,421.25 548.91,415.27 550.21,409.45 C551.21,404.91 552.79,400.51 554.13,396.05 C556.731289,386.87101 558.864044,377.565657 560.52,368.17 C561.359205,364.270159 561.960316,360.322864 562.32,356.35 C562.55,353.05 562.44,349.73 562.76,346.45 C563.291067,342.176161 564.180874,337.954597 565.42,333.83 C566.64,329.32 567.85,324.83 569.07,320.33 C570.87,313.67 572.8,306.76 577.36,301.59 C580.55967,297.906609 585.144104,295.715785 590.02,295.54 C590.924684,295.535883 591.826981,295.633157 592.71,295.83 L593.15,295.94 C594.115729,296.188748 595.041523,296.572532 595.9,297.08 C597.31,296.18 598.02,296.5 598.96,297.87 C599.775836,299.333083 600.160683,300.997284 600.07,302.67 C600.141984,307.054939 599.780224,311.436252 598.99,315.75 L598.99,315.75 Z"/>
    <path fill="#6C63FF" fill-rule="nonzero" d="M600.53,321.06 L600.47,321.12 L600.15,321.44 L596.96,324.63 L595.39,318.05 L590.02,295.51 C590.924684,295.505883 591.826981,295.603157 592.71,295.8 C592.748314,295.54106 592.811952,295.286506 592.9,295.04 L593.15,295.91 L594.97,302.1 L598.42,313.85 L598.99,315.79 L598.99,315.79 L600.53,321.06 Z"/>
    <rect width="50.86" height="31.79" x="579.58" y="233.25" fill="#3F3D56" fill-rule="nonzero" rx="12"/>
    <circle cx="633.41" cy="234.05" r="16.29" fill="#3F3D56" fill-rule="nonzero"/>
    <path fill="#000000" fill-rule="nonzero" d="M633.02 217.75L632.42 217.75C641.136857 218.124335 648.01109 225.300109 648.01109 234.025 648.01109 242.749891 641.136857 249.925665 632.42 250.3L633.02 250.3C642.016719 250.3 649.31 243.006719 649.31 234.01 649.31 225.013281 642.016719 217.72 633.02 217.72L633.02 217.75zM560.8 217.75L561.4 217.75C552.683143 218.124335 545.80891 225.300109 545.80891 234.025 545.80891 242.749891 552.683143 249.925665 561.4 250.3L560.8 250.3C551.803281 250.3 544.51 243.006719 544.51 234.01 544.51 225.013281 551.803281 217.72 560.8 217.72L560.8 217.75zM630.94 261.85L589.66 261.85C587.029502 261.850006 584.895515 259.720492 584.89 257.09L584.89 260.26C584.895501 262.892116 587.027884 265.024499 589.66 265.03L630.98 265.03C633.612116 265.024499 635.744499 262.892116 635.75 260.26L635.75 257.09C635.744713 258.35948 635.23465 259.574714 634.332307 260.467678 633.429963 261.360641 632.209466 261.857979 630.94 261.85L630.94 261.85z" opacity=".1"/>
    <path fill="#FFE09C" fill-rule="nonzero" d="M770.98,428.6 C770.98,428.6 773.56,429.05 773.98,426.96 C774.19,425.96 773.48,419.54 772.67,413.12 C772.28,409.96 771.86,406.81 771.52,404.29 C771.11,401.2 770.81,399.07 770.81,399.07 L770.34,397.51 L767.56,388.17 L764.94,379.37 L763.01,375.91 L749.12,382.67 L740.48,397.6 L743.16,399.29 L743.63,399.59 L748.56,404.75 L762.38,419.25 L768.6,425.78 L769.33,426.54 L770.98,428.6 Z"/>
    <path fill="#E7C4C3" fill-rule="nonzero" d="M760.06,369.97 C760.06,369.97 744.84,377.11 741.18,384.87 C741.18,384.87 737.76,391.4 737.33,394.87 C737.33,394.87 736.33,398.04 742.64,398.82 C742.64,398.82 745.51,387.17 754.12,382.11 L762.74,377.06 L760.06,369.97 Z"/>
    <ellipse cx="759.777" cy="386.755" fill="#FF7F8E" fill-rule="nonzero" transform="rotate(-74.995 759.777 386.755)" rx="5.192" ry="4.399"/>
    <ellipse cx="758.142" cy="404.871" fill="#FF7F8E" fill-rule="nonzero" transform="rotate(-75.08 758.142 404.871)" rx="5.17" ry="4.38"/>
    <path fill="#FF7F8E" fill-rule="nonzero" d="M748.56 404.75C750.177851 404.09325 751.380224 402.697305 751.79 401 752.53 398.24 751.23 395.49 748.89 394.87 746.55 394.25 744.06 395.98 743.33 398.74 743.272466 398.92648 743.229011 399.117015 743.2 399.31L743.67 399.61 748.56 404.75zM767.15 398.08C768.258646 398.360451 769.434313 398.15298 770.38 397.51L767.6 388.17C765.918177 388.794147 764.658088 390.215497 764.24 391.96 763.51 394.75 764.81 397.46 767.15 398.08zM768.76 414.24C770.18177 414.575509 771.675936 414.151847 772.71 413.12 772.32 409.96 771.9 406.81 771.56 404.29L771.43 404.29C769.09 403.66 766.6 405.4 765.86 408.16 765.12 410.92 766.43 413.62 768.76 414.24zM768.6 425.75C768.886921 425.265686 769.10565 424.744102 769.25 424.2 769.99 421.44 768.69 418.7 766.35 418.08 764.908982 417.730913 763.390478 418.163686 762.35 419.22L768.6 425.75z"/>
    <path fill="#94CC79" fill-rule="nonzero" d="M761.73 383.93L763.33 384.36C762.701335 385.517117 762.329554 386.796181 762.24 388.11 762.235417 388.196606 762.235417 388.283394 762.24 388.37 762.45 390.02 760.64 387.94 760.64 387.94 760.64 387.94 760.95 384.55 761.73 383.93zM754.44 394.25L756.05 394.68C755.415859 395.83126 755.043671 397.108309 754.96 398.42 754.955054 398.506596 754.955054 398.593404 754.96 398.68 755.17 400.33 753.36 398.25 753.36 398.25 753.36 398.25 753.66 394.86 754.44 394.25zM759.42 397.66L761.02 398.08C760.391335 399.237117 760.019554 400.516181 759.93 401.83 759.925054 401.916596 759.925054 402.003404 759.93 402.09 760.15 403.74 758.33 401.66 758.33 401.66 758.33 401.66 758.66 398.27 759.42 397.66zM765.82 406.27L767.43 406.69C766.796583 407.845157 766.424491 409.125289 766.34 410.44 766.335054 410.526596 766.335054 410.613404 766.34 410.7 766.55 412.35 764.74 410.27 764.74 410.27 764.74 410.27 765.05 406.88 765.82 406.27zM769.81 420.44L771.41 420.87C770.782419 422.023973 770.410661 423.299545 770.32 424.61 770.314655 424.696584 770.314655 424.783416 770.32 424.87 770.54 426.52 768.72 424.45 768.72 424.45 768.72 424.45 769.03 421.05 769.81 420.44zM761.13 410.53L762.73 410.96C762.097918 412.128852 761.732504 413.423167 761.66 414.75 761.654655 414.836584 761.654655 414.923416 761.66 415.01 761.87 416.66 760.06 414.59 760.06 414.59 760.06 414.59 760.36 411.14 761.13 410.53z"/>
    <path fill="#E7C4C3" fill-rule="nonzero" d="M765.01,371.29 C765.01,371.29 762.72,366.1 760.01,369.97 C760.238432,373.112139 761.271557,376.142637 763.01,378.77 C763.01,378.77 771.3,401.32 770.61,404.77 C770.61,404.77 773.88,426.55 773.07,427.77 C773.07,427.77 773.97,429.31 774.61,423.52 C775.25,417.73 772.44,400.72 772.44,400.72 L768.33,383.04 L765.58,377.04 L765.01,371.29 Z"/>
    <path fill="#FFFFFF" fill-rule="nonzero" d="M765.01,371.29 C765.01,371.29 762.72,366.1 760.01,369.97 C760.238432,373.112139 761.271557,376.142637 763.01,378.77 C763.01,378.77 771.3,401.32 770.61,404.77 C770.61,404.77 773.88,426.55 773.07,427.77 C773.07,427.77 773.97,429.31 774.61,423.52 C775.25,417.73 772.44,400.72 772.44,400.72 L768.33,383.04 L765.58,377.04 L765.01,371.29 Z" opacity=".2"/>
    <path fill="#FBBEBE" fill-rule="nonzero" d="M737.51,379.89 C737.51,379.89 741.62,391.73 745.38,388.58 L742.38,373.11 L737.51,379.89 Z"/>
    <path fill="#A0616A" fill-rule="nonzero" d="M456.41,428.52 C456.41,428.52 492.66,489.59 501.13,497.75 C501.13,497.75 537.35,535.35 518.94,532.75 C517.59,532.56 491.08,510.15 489.53,506.47 C487.98,502.79 437.86,437.68 437.86,437.68 L445.01,431.1 L456.41,428.52 Z"/>
    <path fill="#000000" fill-rule="nonzero" d="M456.41,428.52 C456.41,428.52 492.66,489.59 501.13,497.75 C501.13,497.75 537.35,535.35 518.94,532.75 C517.59,532.56 491.08,510.15 489.53,506.47 C487.98,502.79 437.86,437.68 437.86,437.68 L445.01,431.1 L456.41,428.52 Z" opacity=".1"/>
    <path fill="#2F2E41" fill-rule="nonzero" d="M489.56,627.97 C489.56,627.97 477.96,642.47 482.8,648.27 C487.64,654.07 511.75,665.16 519.53,664.7 C527.75,664.22 555.3,665.7 556.27,653.1 C556.27,653.1 558.2,647.3 533.07,646.33 C507.94,645.36 515.66,619.26 515.66,619.26 L489.56,627.97 Z"/>
    <path fill="#605D82" fill-rule="nonzero" d="M351.32,505.19 C351.32,505.19 339.72,544.82 374.52,551.59 L412.22,549.66 C412.22,549.66 465.39,539.02 479.9,546.76 C479.9,546.76 485.7,547.76 483.76,555.46 C481.82,563.16 486.66,615.4 486.66,615.4 L486.66,632.8 C486.66,632.8 519.53,632.8 523.4,628.93 C523.4,628.93 520.5,613.46 523.4,600.93 C526.3,588.4 518.57,548.72 518.57,548.72 L517.8,524.91 C517.680304,518.902252 514.327074,513.426966 509.03,510.59 C507.201641,509.621991 505.168658,509.104317 503.1,509.08 C503.1,509.08 437.36,498.45 414.16,500.38 C390.96,502.31 351.32,505.19 351.32,505.19 Z"/>
    <path fill="#6C63FF" fill-rule="nonzero" d="M416.09,378.54 C416.09,378.54 433.49,398.84 435.42,405.61 C437.35,412.38 458.66,429.75 458.66,429.75 C458.66,429.75 443.19,441.35 446.09,447.15 C448.99,452.95 425.79,427.82 425.79,427.82 L398.66,388.21 L416.09,378.54 Z"/>
    <path fill="#000000" fill-rule="nonzero" d="M416.09,378.54 C416.09,378.54 433.49,398.84 435.42,405.61 C437.35,412.38 458.66,429.75 458.66,429.75 C458.66,429.75 443.19,441.35 446.09,447.15 C448.99,452.95 425.79,427.82 425.79,427.82 L398.66,388.21 L416.09,378.54 Z" opacity=".1"/>
    <path fill="#A0616A" fill-rule="nonzero" d="M427.66,355.34 C427.66,355.34 418.96,383.34 418.96,394.01 C418.96,404.68 382.22,391.11 383.19,385.31 C384.16,379.51 404.46,358.24 405.43,349.54 C406.4,340.84 427.66,355.34 427.66,355.34 Z"/>
    <path fill="#000000" fill-rule="nonzero" d="M398.66,374.67 C398.66,374.67 364.82,365.97 359.99,415.28 C355.16,464.59 363.85,470.38 349.35,500.35 C334.85,530.32 447.96,504.22 447.96,504.22 C447.96,504.22 442.16,497.45 423.79,500.35 L415.09,474.25 C415.09,474.25 412.19,462.65 428.63,462.65 C445.07,462.65 437.33,428.81 437.33,428.81 C437.33,428.81 428.63,399.81 423.79,396.91 C418.95,394.01 410.29,376.61 398.66,374.67 Z" opacity=".1"/>
    <path fill="#6C63FF" fill-rule="nonzero" d="M398.66,372.75 C398.66,372.75 364.82,364.05 359.99,413.35 C355.16,462.65 363.85,468.46 349.35,498.43 C334.85,528.4 447.96,502.3 447.96,502.3 C447.96,502.3 442.16,495.53 423.79,498.43 L415.09,472.33 C415.09,472.33 412.22,460.75 428.66,460.75 C445.1,460.75 437.36,426.91 437.36,426.91 C437.36,426.91 428.66,397.91 423.82,395.01 C418.98,392.11 410.29,374.67 398.66,372.75 Z"/>
    <circle cx="418.99" cy="340.84" r="31.9" fill="#A0616A" fill-rule="nonzero"/>
    <polygon fill="#DADAE5" fill-rule="nonzero" points="412.83 504.18 493 552.1 567.59 482.6 478.67 451.63 414.68 495.19"/>
    <polygon points="500.67 363.85 476.1 439.27 565.21 468.03 602.66 361.61"/>
    <polygon fill="#DADAE5" fill-rule="nonzero" points="507.44 370.04 482.49 444.24 565.21 468.03 600.52 367.69"/>
    <polygon fill="#000000" fill-rule="nonzero" points="500.78 364.56 507.55 370.75 600.63 368.4 602.77 362.32" opacity=".03"/>
    <polygon fill="#000000" fill-rule="nonzero" points="476.21 439.97 500.78 364.56 507.55 370.75 483.23 443.09" opacity=".03"/>
    <polygon fill="#EFF0F4" fill-rule="nonzero" points="500.67 363.85 507.44 370.04 600.52 367.69 602.66 361.61"/>
    <polygon fill="#EFF0F4" fill-rule="nonzero" points="476.1 439.27 500.67 363.85 507.44 370.04 483.12 442.38"/>
    <polygon fill="#000000" fill-rule="nonzero" points="500.67 363.85 511.02 373.53 604.11 371.18 602.66 361.61" opacity=".03"/>
    <polygon fill="#000000" fill-rule="nonzero" points="476.1 439.27 500.67 363.85 511.02 373.53 486.7 445.87" opacity=".03"/>
    <polygon fill="#000000" fill-rule="nonzero" points="476.26 440.33 478.52 454.68 567.99 485.74 565.38 469.09" opacity=".03"/>
    <polygon fill="#000000" fill-rule="nonzero" points="410.12 487.49 476.26 440.33 479.15 454.67 414.18 502.99" opacity=".03"/>
    <polygon fill="#EFF0F4" fill-rule="nonzero" points="476.1 439.27 478.04 451.64 567.51 482.7 565.21 468.03"/>
    <polygon fill="#EFF0F4" fill-rule="nonzero" points="409.95 486.42 476.1 439.27 478.67 451.63 413.7 499.95"/>
    <polygon fill="#000000" fill-rule="nonzero" points="476.1 439.27 478.04 451.64 567.51 482.7 565.21 468.03" opacity=".03"/>
    <polygon fill="#000000" fill-rule="nonzero" points="409.95 486.42 476.1 439.27 478.67 451.63 413.7 499.95" opacity=".03"/>
    <polygon fill="#CCCAD6" fill-rule="nonzero" points="409.95 486.42 412.94 504.25 492.89 552.02 490.92 533.67"/>
    <path fill="#FFE09C" fill-rule="nonzero" d="M446.38,483.6 C446.38,483.6 444.99,486.25 447.11,487.47 C448.11,488.05 455.34,489.47 462.6,490.83 C466.16,491.49 469.73,492.13 472.6,492.63 C476.1,493.25 478.52,493.63 478.52,493.63 L480.36,493.63 L491.48,493.84 L501.94,494.04 L506.37,493.13 L503.82,475.75 L490.58,461.2 L487.81,463.54 L487.34,463.94 L480.06,467.48 L459.52,477.48 L450.28,481.98 L449.2,482.51 L446.38,483.6 Z"/>
    <path fill="#E7C4C3" fill-rule="nonzero" d="M513.85,491.99 C513.85,491.99 511.36,472.99 504.18,466.33 C504.18,466.33 498.28,460.33 494.65,458.69 C494.65,458.69 491.56,456.5 488.52,463.1 C488.52,463.1 500.19,470.24 502.71,481.35 L505.22,492.46 L513.85,491.99 Z"/>
    <ellipse cx="494.843" cy="482.032" fill="#FF7F8E" fill-rule="nonzero" transform="rotate(-57.43 494.843 482.032)" rx="5" ry="5.9"/>
    <ellipse cx="476.602" cy="477.906" fill="#FF7F8E" fill-rule="nonzero" transform="rotate(-57.43 476.602 477.906)" rx="5" ry="5.9"/>
    <path fill="#FF7F8E" fill-rule="nonzero" d="M480.06 467.49C480.217365 469.486099 481.336615 471.280629 483.06 472.3 485.8 474.05 489.23 473.59 490.71 471.3 492.19 469.01 491.18 465.67 488.43 463.92 488.242311 463.800363 488.048734 463.690224 487.85 463.59L487.38 463.99 480.06 467.49zM480.86 489.98C480.171523 491.088368 479.986135 492.436971 480.35 493.69L491.47 493.9C491.382893 491.832347 490.253408 489.949873 488.47 488.9 485.77 487.19 482.34 487.66 480.86 489.98zM462.74 486.15C461.880202 487.578787 461.827146 489.352373 462.6 490.83 466.16 491.49 469.73 492.13 472.6 492.63L472.69 492.5C474.17 490.18 473.15 486.87 470.41 485.12 467.67 483.37 464.23 483.83 462.74 486.15zM450.28 482C450.708333 482.477475 451.199482 482.894614 451.74 483.24 454.48 484.99 457.91 484.53 459.39 482.24 460.256084 480.804984 460.305437 479.020696 459.52 477.54L450.28 482z"/>
    <path fill="#94CC79" fill-rule="nonzero" d="M498.1 488.98L497.1 490.57C496.064004 489.488423 494.804804 488.645544 493.41 488.1L493.12 488.03C491.25 487.69 494.12 486.44 494.12 486.44 494.12 486.44 497.71 487.93 498.1 488.98zM489.41 477.5L488.41 479.1C487.375417 478.014315 486.116025 477.167895 484.72 476.62L484.43 476.55C482.57 476.22 485.43 474.96 485.43 474.96 485.43 474.96 489.02 476.45 489.41 477.5zM483.99 481.75L482.99 483.34C481.954004 482.258423 480.694804 481.415544 479.3 480.87L479.01 480.8C477.14 480.46 480.01 479.21 480.01 479.21 480.01 479.21 483.59 480.68 483.99 481.75zM472.42 485.75L471.42 487.35C470.385417 486.264315 469.126025 485.417895 467.73 484.87L467.44 484.8C465.57 484.47 468.44 483.21 468.44 483.21 468.44 483.21 472.02 484.66 472.42 485.75zM455.66 485.15L454.66 486.75C453.621069 485.664841 452.358559 484.818618 450.96 484.27L450.67 484.2C448.81 483.87 451.67 482.61 451.67 482.61 451.67 482.61 455.25 484.09 455.66 485.15zM469.41 479.15L468.41 480.74C467.375417 479.654315 466.116025 478.807895 464.72 478.26L464.43 478.19C462.56 477.86 465.43 476.6 465.43 476.6 465.43 476.6 469.01 478.09 469.41 479.15z"/>
    <path fill="#E7C4C3" fill-rule="nonzero" d="M510.66,496.92 C510.66,496.92 517.09,496.22 513.81,491.99 C510.326481,491.139659 506.682578,491.201654 503.23,492.17 C503.23,492.17 475.86,493.39 472.31,491.43 C472.31,491.43 447.51,487.43 446.51,486.17 C446.51,486.17 444.51,486.61 450.59,489.31 C456.67,492.01 476.12,494.83 476.12,494.83 L496.75,496.47 L504.17,495.55 L510.66,496.92 Z"/>
    <path fill="#FFFFFF" fill-rule="nonzero" d="M510.66,496.92 C510.66,496.92 517.09,496.22 513.81,491.99 C510.326481,491.139659 506.682578,491.201654 503.23,492.17 C503.23,492.17 475.86,493.39 472.31,491.43 C472.31,491.43 447.51,487.43 446.51,486.17 C446.51,486.17 444.51,486.61 450.59,489.31 C456.67,492.01 476.12,494.83 476.12,494.83 L496.75,496.47 L504.17,495.55 L510.66,496.92 Z" opacity=".2"/>
    <path fill="#FF7F8E" fill-rule="nonzero" d="M491.16,487.11 C490.550583,489.007782 490.897097,491.083144 492.09,492.68 C493.97,495.33 497.32,496.19 499.58,494.6 C501.84,493.01 502.13,489.6 500.24,486.9 C500.11,486.72 499.97,486.54 499.83,486.37 L499.23,486.57 L491.16,487.11 Z"/>
    <polygon fill="#CCCAD6" fill-rule="nonzero" points="490.92 533.67 565.21 468.03 567.49 482.52 492.89 552.02"/>
    <polygon fill="#CCCAD6" fill-rule="nonzero" points="574.85 471.77 565.21 468.03 602.66 361.61 609.8 366.65"/>
    <g fill="#FFFFFF" fill-rule="nonzero" opacity=".1" transform="translate(481 619)">
      <path d="M33.56 7.88C33.6349829 5.30570005 34.0074577 2.74871058 34.67.26L34.18.43C33.70012 2.88299459 33.4921969 5.38142642 33.56 7.88zM38.53 43.75C30.75 44.21 6.63 33.11 1.8 27.31 1.16242232 26.5284104.772465586 25.5744091.68 24.57.391398176 26.2177186.7967347 27.9114462 1.8 29.25 6.63 35.05 30.75 46.14 38.53 45.68 46.75 45.2 74.3 46.68 75.27 34.08 75.3370583 33.7414151 75.2913984 33.3901855 75.14 33.08 72.92 44.66 46.54 43.3 38.53 43.75z"/>
    </g>
    <path fill="#FFE09C" fill-rule="nonzero" d="M547.78,428.13 C547.78,428.13 549.5,426.13 547.94,424.69 C547.19,423.99 541.31,421.31 535.39,418.69 C532.48,417.41 529.55,416.15 527.22,415.15 L522.37,413.08 L520.8,412.68 L511.35,410.27 L502.46,408 L498.46,407.89 L497.12,423.28 L505.51,438.36 L508.33,436.92 L508.82,436.67 L515.75,435.11 L535.33,430.75 L544.12,428.75 L545.12,428.52 L547.78,428.13 Z"/>
    <path fill="#E7C4C3" fill-rule="nonzero" d="M491.86,407.42 C491.86,407.42 490.17,424.14 494.96,431.27 C494.96,431.27 498.8,437.55 501.56,439.71 C501.56,439.71 503.76,442.19 507.69,437.17 C507.69,437.17 499.15,428.73 499.24,418.74 L499.32,408.74 L491.86,407.42 Z"/>
    <ellipse cx="506.088" cy="419.821" fill="#FF7F8E" fill-rule="nonzero" transform="rotate(-44.19 506.088 419.82)" rx="4.38" ry="5.17"/>
    <ellipse cx="520.839" cy="426.998" fill="#FF7F8E" fill-rule="nonzero" transform="rotate(-44.19 520.839 426.998)" rx="4.38" ry="5.17"/>
    <path fill="#FF7F8E" fill-rule="nonzero" d="M515.79 435.12C516.059647 433.393327 515.478602 431.642744 514.23 430.42 512.23 428.42 509.23 428.08 507.48 429.77 505.73 431.46 505.96 434.48 507.95 436.53 508.082522 436.670971 508.222736 436.804508 508.37 436.93L508.86 436.68 515.79 435.12zM519.66 415.75C520.471653 414.941441 520.897645 413.823666 520.83 412.68L511.38 410.27C511.04886 412.034636 511.623237 413.847867 512.91 415.1 514.87 417.16 517.89 417.45 519.66 415.75zM534.32 422.67C535.349477 421.614304 535.754903 420.098693 535.39 418.67 532.48 417.39 529.55 416.13 527.22 415.13L527.11 415.22C525.38 416.91 525.59 419.94 527.58 421.99 529.57 424.04 532.59 424.36 534.32 422.67zM544.12 428.75C543.855053 428.253156 543.518073 427.798233 543.12 427.4 541.12 425.35 538.12 425.06 536.38 426.75 535.345178 427.802641 534.942274 429.323033 535.32 430.75L544.12 428.75z"/>
    <path fill="#94CC79" fill-rule="nonzero" d="M504.66 413.15L505.85 412C506.520629 413.13081 507.428071 414.103069 508.51 414.85L508.74 414.97C510.27 415.63 507.55 416.12 507.55 416.12 507.55 416.12 504.83 414.13 504.66 413.15zM509.82 424.75L511 423.59C511.669215 424.724622 512.576784 425.700428 513.66 426.45L513.89 426.56C515.42 427.23 512.7 427.72 512.7 427.72 512.7 427.72 509.94 425.67 509.82 424.75zM515.29 422.18L516.48 421.02C517.149215 422.154622 518.056784 423.130428 519.14 423.88L519.37 423.99C520.9 424.66 518.18 425.15 518.18 425.15 518.18 425.15 515.42 423.16 515.29 422.18zM525.97 421.1L527.16 419.94C527.827851 421.072462 528.731657 422.047889 529.81 422.8L530.05 422.92C531.57 423.58 528.86 424.07 528.86 424.07 528.86 424.07 526.1 422.08 525.97 421.1zM540.18 424.96L541.37 423.8C542.033739 424.935518 542.938296 425.911757 544.02 426.66L544.26 426.77C545.78 427.44 543.07 427.93 543.07 427.93 543.07 427.93 540.31 425.93 540.18 424.96zM527.22 427.31L528.41 426.16C529.080629 427.29081 529.988071 428.263069 531.07 429.01 531.141131 429.059817 531.218448 429.100156 531.3 429.13 532.83 429.79 530.11 430.29 530.11 430.29 530.11 430.29 527.35 428.29 527.22 427.31z"/>
    <path fill="#E7C4C3" fill-rule="nonzero" d="M495.54,403.84 C495.54,403.84 489.91,403.15 491.86,407.42 C494.662562,408.851307 497.785383,409.539911 500.93,409.42 C500.93,409.42 524.54,413.88 527.18,416.26 C527.18,416.26 547.55,424.64 548.18,425.94 C548.18,425.94 549.97,425.94 545.33,422.43 C540.69,418.92 524.66,412.57 524.66,412.57 L507.38,407.02 L500.86,406.31 L495.54,403.84 Z"/>
    <path fill="#FFFFFF" fill-rule="nonzero" d="M495.54,403.84 C495.54,403.84 489.91,403.15 491.86,407.42 C494.662562,408.851307 497.785383,409.539911 500.93,409.42 C500.93,409.42 524.54,413.88 527.18,416.26 C527.18,416.26 547.55,424.64 548.18,425.94 C548.18,425.94 549.97,425.94 545.33,422.43 C540.69,418.92 524.66,412.57 524.66,412.57 L507.38,407.02 L500.86,406.31 L495.54,403.84 Z" opacity=".2"/>
    <path fill="#A0616A" fill-rule="nonzero" d="M466.75,427.13 C469.621824,425.622793 472.221078,423.645467 474.44,421.28 C475.44,420.1 476.28,418.77 477.31,417.61 C479.906251,414.836026 483.280548,412.91184 486.99,412.09 C490.669978,411.281874 494.433272,410.915952 498.2,411 C500.720833,410.839421 503.249684,411.14451 505.66,411.9 C508.110957,412.701596 509.977207,414.707626 510.6,417.21 C511.15,420.21 509.19,423.12 506.84,425.05 C504.651659,426.835494 502.076632,428.085341 499.32,428.7 C497.073025,429.088748 494.806206,429.352487 492.53,429.49 C479.15,430.89 467.21,438.17 455.53,444.8 C445.23,450.63 439.39,450.36 428.7,455.42 C428.28,452.22 423.44,454.7 423.51,451.47 C423.57,449.06 423.69,445.38 425.97,443.96 C428.62,442.31 432.97,441.96 435.97,440.96 C442.862474,438.70003 449.594457,435.977168 456.12,432.81 C459.726667,431.043333 463.27,429.15 466.75,427.13 Z"/>
    <path fill="#000000" fill-rule="nonzero" d="M378.39,418.18 L429.66,464.58 C429.66,464.58 439.33,445.25 442.23,445.25 C445.13,445.25 407.43,388.25 407.43,388.25 C407.43,388.25 397.76,376.65 391.96,382.45 C386.16,388.25 368.72,384.34 378.39,418.18 Z" opacity=".1"/>
    <path fill="#6C63FF" fill-rule="nonzero" d="M377.42,416.25 L428.66,462.65 C428.66,462.65 438.33,443.31 441.23,443.31 C444.13,443.31 406.42,386.31 406.42,386.31 C406.42,386.31 396.75,374.7 390.95,380.5 C385.15,386.3 367.75,382.41 377.42,416.25 Z"/>
    <path fill="#3F3D56" fill-rule="nonzero" d="M461.78,334.46 C462.898925,333.215467 463.807505,331.796866 464.47,330.26 C468.89,320.26 461.88,307.7 449.91,304.26 C443.91,302.51 437.19,302.86 431.2,301 C426.38,299.51 422.32,296.69 417.9,294.49 C409.593941,290.397633 400.403802,288.425618 391.15,288.75 C382.1,289.07 372.26,292.25 368.55,299.24 C363.13,309.42 373.1,322.24 367.06,332.15 C362.62,339.43 351.85,341.58 342.92,344.74 C333.674815,347.937478 325.257747,353.153737 318.28,360.01 C311.28,367.01 306.28,376.61 309.8,385.29 C311.85,390.38 316.48,394.36 320.16,398.75 C332.783247,413.560333 333.886515,435.002285 322.85,451.03 C321.13,453.5 319.12,455.91 318.41,458.71 C316.71,465.39 323.57,472.11 331.5,473.41 C339.43,474.71 347.66,471.75 353.83,467.38 C359.526342,463.453003 364.111225,458.120622 367.14,451.9 C374.47,436.36 369.32,418.9 368.59,402.17 C368.5,400.22 368.59,398.1 369.96,396.57 C372.08,394.28 376.08,394.34 379.5,394.04 C388.35,393.26 396.5,388.3 400.25,381.46 C407.42,368.3 399.07,349.91 411.6,340.01 C427.37,327.55 450.07,347.25 461.78,334.46 Z"/>
    <path fill="#000000" fill-rule="nonzero" d="M449.91,304.22 L449.81,304.22 C454.49,309.64 456.25,316.96 453.47,323.28 C452.807505,324.816866 451.898925,326.235467 450.78,327.48 C439.07,340.27 416.37,320.57 400.6,333.03 C388.07,342.93 396.42,361.32 389.25,374.48 C385.53,381.32 377.35,386.28 368.5,387.06 C365.08,387.36 361.08,387.3 358.96,389.59 C357.55,391.12 357.5,393.24 357.59,395.19 C358.32,411.92 363.47,429.38 356.14,444.92 C353.111225,451.140622 348.526342,456.473003 342.83,460.4 C336.66,464.75 328.44,467.75 320.5,466.45 L319.95,466.33 C322.688991,470.156633 326.85076,472.722157 331.5,473.45 C339.44,474.74 347.61,471.74 353.83,467.38 C359.526342,463.453003 364.111225,458.120622 367.14,451.9 C374.47,436.36 369.32,418.9 368.59,402.17 C368.5,400.22 368.59,398.1 369.96,396.57 C372.08,394.28 376.08,394.34 379.5,394.04 C388.35,393.26 396.5,388.3 400.25,381.46 C407.42,368.3 399.07,349.91 411.6,340.01 C427.37,327.55 450.07,347.25 461.78,334.46 C462.898925,333.215467 463.807505,331.796866 464.47,330.26 C468.89,320.23 461.88,307.75 449.91,304.22 Z" opacity=".1"/>
  </g>
</svg>
