<svg xmlns="http://www.w3.org/2000/svg" width="1300" height="1300" viewBox="0 0 1300 1300">
  <defs>
    <linearGradient id="a" x1="49.998%" x2="49.998%" y1="100.006%" y2="-.002%">
      <stop stop-color="#808080" stop-opacity=".25" offset="0%"/>
      <stop stop-color="#808080" stop-opacity=".12" offset="54%"/>
      <stop stop-color="#808080" stop-opacity=".1" offset="100%"/>
    </linearGradient>
  </defs>
  <g fill="none" fill-rule="evenodd">
    <rect width="1300" height="1300" fill="#FFFFFF"/>
    <path fill="#6C63FF" fill-rule="nonzero" d="M737.86,490.42 C673.14,488.17 611.49,467.28 552.63,444.42 C493.77,421.56 435.47,396.23 372.3,384.12 C331.67,376.33 285.2,375.23 252.47,397.01 C220.96,418.01 210.78,454.16 205.31,487.74 C201.19,513 198.77,539.58 210.06,563.23 C217.89,579.65 231.8,593.45 241.41,609.23 C274.88,663.95 251.23,731.43 214.96,784.86 C197.96,809.93 178.21,833.86 165.09,860.52 C151.97,887.18 145.89,917.77 157.37,944.99 C168.76,971.99 195.89,992.23 225.27,1006.48 C284.96,1035.43 355.27,1043.71 423.88,1048.4 C575.71,1058.79 728.34,1054.29 880.57,1049.79 C936.91,1048.12 993.49,1046.43 1048.91,1037.72 C1079.69,1032.88 1111.46,1025.21 1133.81,1006.67 C1162.17,983.14 1169.2,943.29 1150.2,913.79 C1118.31,864.3 1030.2,852.01 1007.88,798.89 C995.62,769.66 1008.22,737.1 1026.04,709.98 C1064.28,651.82 1128.37,600.79 1131.75,534.31 C1134.07,488.64 1103.25,442.92 1055.61,421.31 C1005.68,398.58 936.42,401.46 899.6,438.95 C861.66,477.58 795,492.4 737.86,490.42 Z" opacity=".1"/>
    <polygon fill="#6C63FF" fill-rule="nonzero" points="573.45 1043.5 231.17 1041.83 197.16 962.06 317.42 953.33 296.46 865.87 534.32 835.04 306.55 755.86 326.67 751.08 692.92 810.83 672.75 947.32 643.92 1022.33"/>
    <path fill="#6C63FF" fill-rule="nonzero" d="M236.42 1008.42C236.42 1008.42 257.42 1005.06 270.02 1019.9 270.02 1019.9 260.78 1027.18 240.9 1017.1L236.42 1008.42zM234.22 1008.09C234.22 1008.09 220.82 1024.58 227.42 1042.94 227.42 1042.94 238.34 1038.57 239.53 1016.31L234.22 1008.09zM222.18 980.98C222.18 980.98 230.58 965.57 264.18 987.14 264.18 987.14 259.7 997.5 244.86 996.66 230.02 995.82 226.1 989.1 222.18 980.98zM220.01 979.87C220.01 979.87 202.58 977.87 200.89 1017.77 200.89 1017.77 211.94 1020.06 219.79 1007.44 227.64 994.82 224.42 987.74 220.01 979.87zM209.86 948.04C209.86 948.04 219.66 920.88 255.22 940.2 255.22 940.2 247.1 965.12 213.5 957.28L209.86 948.04zM198.94 907.44C198.94 907.44 217.42 880 250.18 905.44 250.18 905.44 238.7 931.2 201.74 917.2L198.94 907.44zM195.02 868.8C195.02 868.8 216.58 843.59 249.02 868.8 249.02 868.8 228.58 890.92 195.02 875.24L195.02 868.8zM191.66 831.27C191.66 831.27 213.5 804.95 244.58 829.87 244.58 829.87 219.94 853.11 191.66 837.43L191.66 831.27zM193.62 797.95C193.62 797.95 216.62 764.07 245.7 787.03 245.7 787.03 221.06 816.15 193.62 804.39L193.62 797.95zM198.94 759.03C198.94 759.03 223.3 725.43 251.58 751.19 251.58 751.19 222.74 780.31 198.94 765.19L198.94 759.03zM207.06 724.24C207.06 724.24 235.9 692.66 261.06 705.24 261.06 705.24 231.01 738.78 205.8 732.62L207.06 724.24zM217.14 691.26C217.14 691.26 250.42 652.58 269.78 665.5 269.78 665.5 245.26 695.5 214.78 698.5L217.14 691.26zM231.69 653.01C231.69 653.01 260.82 621.43 282.1 629.27 282.1 629.27 257.18 662.03 227.78 662.87L231.69 653.01zM244.86 617.23C244.86 617.23 277.06 586.99 291.06 592.31 291.06 592.31 267.82 625.91 243.46 623.95L244.86 617.23zM257.74 584.19C257.74 584.19 285.46 548.06 300.59 550.86 300.59 550.86 283.78 583.07 257.74 587.86L257.74 584.19zM271.72 539.64C271.72 539.64 296.22 511.95 309.46 512.009903 309.46 512.009903 290.12 549.01 270.71 548.67L271.72 539.64zM280 509.98L303.67 452.3C303.67 452.3 304.85 504.44 276.99 520.68L280 509.98zM289.61 446.37C289.61 446.37 293.53 398.2 291.01 394.28 291.01 394.28 307.93 434.33 289.45 467.65L289.61 446.37zM208.94 947.4C208.94 947.4 184.4 932.19 168.51 969.4 168.51 969.4 190.35 983.9 211.83 956.89L208.94 947.4zM198.15 905.89C198.15 905.89 168.05 892.16 153.45 931.01 153.45 931.01 176.7 947.01 200.89 915.71L198.15 905.89zM193.62 871.11C193.62 871.11 172.06 845.9 139.62 871.11 139.62 871.11 160.06 893.23 193.62 877.55L193.62 871.11zM190.92 831.27C190.92 831.27 169.08 804.95 138 829.87 138 829.87 162.64 853.11 190.92 837.43L190.92 831.27zM193.62 798.91C193.62 798.91 178.3 760.96 145 777.28 145 777.28 163 810.93 192.26 805.21L193.62 798.91z"/>
    <path fill="#6C63FF" fill-rule="nonzero" d="M200.87 758.84C200.87 758.84 185.64 720.23 151.87 738.13 151.87 738.13 172.55 773.52 199.37 764.8L200.87 758.84zM210.31 724.43C210.31 724.43 204.31 682.1 176.31 678.31 176.31 678.31 182.25 722.95 206.54 732.06L210.31 724.43zM217.85 691.34C217.85 691.34 215.51 640.34 192.36 638.56 192.36 638.56 193.14 677.27 215.24 698.56L217.85 691.34zM234.09 651.58C234.09 651.58 227.19 609.17 205.09 603.99 205.09 603.99 207.83 645.06 231.9 661.99L234.09 651.58zM247.48 617.58C247.48 617.58 247.25 573.4 233.75 566.91 233.75 566.91 225.38 606.91 243.57 623.22L247.48 617.58zM258.77 583.69C258.77 583.69 256.88 538.2 242.9 531.79 242.9 531.79 238.12 567.79 256.68 586.67L258.77 583.69zM273.67 543.27C273.67 543.27 273.59 506.27 263.61 497.59 263.61 497.59 253.69 538.12 268.46 550.71L273.67 543.27z"/>
    <path fill="#6C63FF" fill-rule="nonzero" d="M278.83 508.16L269.12 446.58C269.12 446.58 255.93 497.04 279.29 519.28L278.83 508.16zM280.72 446.95C280.72 446.95 255.8 405.55 256.31 400.95 256.31 400.95 258.96 444.34 290.31 465.95L280.72 446.95zM283.64 434.72C283.64 434.72 260.12 375.92 249.48 371.16 249.48 371.16 283.08 388.24 285.6 433.04L283.64 434.72z"/>
    <path fill="#444053" fill-rule="nonzero" d="M270.59,549.02 L268.98,548.53 C288.83,483.8 293.78,442.53 282.93,432.18 L284.08,430.96 C295.59,441.88 290.92,482.7 270.59,549.02 Z"/>
    <path fill="#444053" fill-rule="nonzero" d="M215.93,700.58 L213.55,699.73 C215.66,693.8 217.93,687.78 220.31,681.85 C241.03,630.21 258.67,582.17 269.98,545.29 L272.05,544.29 C260.72,581.24 243.39,631.12 222.65,682.83 C220.28,688.65 218.02,694.64 215.93,700.58 Z"/>
    <path fill="#444053" fill-rule="nonzero" d="M266.01,1056.86 C265.69,1056.51 233.52,1020.28 211.09,958.43 C197.947353,922.219364 190.633097,884.152828 189.42,845.65 C187.88,797.52 197.98,743.78 215.28,694.96 L217.16,697.16 C178.32,806.73 193.75,900.62 214.22,957.16 C236.41,1018.45 268.22,1054.28 268.53,1054.64 L266.01,1056.86 Z"/>
    <path fill="#D5D6DB" fill-rule="nonzero" d="M768.73,979.94 C768.73,979.94 746.06,1007.61 764.06,1049.44 L583.06,1127.94 L565.69,1131.58 L557.69,1096.58 L563.04,1052.41 L563.04,1028.27 L768.73,979.94 Z"/>
    <polygon fill="#6C63FF" fill-rule="nonzero" points="197.16 962.06 447.68 916.39 779.63 969.27 573.45 1043.5"/>
    <polygon fill="#6C63FF" fill-rule="nonzero" points="197.16 962.06 447.68 916.39 779.63 969.27 573.45 1043.5"/>
    <path fill="#6C63FF" fill-rule="nonzero" d="M197.16,962.05 C197.16,962.05 173.73,1006.44 200.73,1047.44 L572.23,1127.94 C572.23,1127.94 549.17,1092.58 573.42,1043.5 L197.16,962.05 Z"/>
    <path fill="#000000" fill-rule="nonzero" d="M197.16 962.05C197.16 962.05 173.73 1006.44 200.73 1047.44L572.23 1127.94C572.23 1127.94 549.17 1092.58 573.42 1043.5L197.16 962.05zM208.23 977.44C208.23 977.44 194.84 1009.92 208.23 1030.94" opacity=".1"/>
    <path fill="#6C63FF" fill-rule="nonzero" d="M572.23,1127.94 L779.63,1039.44 C779.63,1039.44 791.23,1041.94 783.73,1050.44 C776.23,1058.94 576.23,1136.44 576.23,1136.44 L200.73,1047.44 L572.23,1127.94 Z"/>
    <path fill="#000000" fill-rule="nonzero" d="M572.23 1127.94L779.63 1039.44C779.63 1039.44 791.23 1041.94 783.73 1050.44 776.23 1058.94 576.23 1136.44 576.23 1136.44L200.73 1047.44 572.23 1127.94zM555.23 1052.44C555.23 1052.44 535.23 1076.44 555.23 1112.44" opacity=".1"/>
    <rect width="94.57" height="1" x="560.076" y="1066.973" fill="#000000" fill-rule="nonzero" opacity=".1" transform="rotate(-18.45 607.36 1067.473)"/>
    <rect width="115.23" height="1" x="558.735" y="1069.502" fill="#000000" fill-rule="nonzero" opacity=".1" transform="rotate(-20.82 616.35 1070.002)"/>
    <rect width="133.56" height="1" x="558.133" y="1074.172" fill="#000000" fill-rule="nonzero" opacity=".1" transform="rotate(-22.26 624.913 1074.672)"/>
    <rect width="153.74" height="1" x="557.753" y="1076.181" fill="#000000" fill-rule="nonzero" opacity=".1" transform="rotate(-24.31 634.623 1076.68)"/>
    <rect width="168.15" height="1" x="558.635" y="1078.232" fill="#000000" fill-rule="nonzero" opacity=".1" transform="rotate(-23.61 642.71 1078.732)"/>
    <rect width="201.22" height="1" x="559.748" y="1078.852" fill="#000000" fill-rule="nonzero" opacity=".1" transform="rotate(-23.36 660.358 1079.352)"/>
    <polygon fill="#FFFFFF" fill-rule="nonzero" points="290.23 966.94 466.23 929.94 573.45 950.44 429.23 996.94" opacity=".3"/>
    <path fill="#6C63FF" fill-rule="nonzero" d="M779.63,969.27 C779.63,969.27 788.73,972.94 783.39,978.61 C778.05,984.28 573.42,1043.5 573.42,1043.5 L779.63,969.27 Z"/>
    <path fill="#D5D6DB" fill-rule="nonzero" d="M868.02,883.76 C868.02,883.76 845.36,911.42 863.36,953.26 L682.36,1031.76 L664.99,1035.42 L656.99,1000.42 L662.42,956.26 L662.42,932.09 L868.02,883.76 Z"/>
    <polygon fill="#3A3768" fill-rule="nonzero" points="296.46 865.87 546.97 820.21 878.93 873.09 672.75 947.32"/>
    <path fill="#3A3768" fill-rule="nonzero" d="M296.42,865.87 C296.42,865.87 272.98,910.26 299.98,951.26 L671.48,1031.76 C671.48,1031.76 648.43,996.37 672.71,947.31 L296.42,865.87 Z"/>
    <path fill="#000000" fill-rule="nonzero" d="M296.42 865.87C296.42 865.87 272.98 910.26 299.98 951.26L671.48 1031.76C671.48 1031.76 648.43 996.37 672.71 947.31L555.23 921.88 296.42 865.87zM307.52 881.26C307.52 881.26 294.14 913.73 307.52 934.76" opacity=".1"/>
    <path fill="#3A3768" fill-rule="nonzero" d="M671.52,1031.76 L878.93,943.26 C878.93,943.26 890.52,945.76 883.02,954.26 C875.52,962.76 675.52,1040.26 675.52,1040.26 L300.02,951.26 L671.52,1031.76 Z"/>
    <path fill="#000000" fill-rule="nonzero" d="M671.52 1031.76L878.93 943.26C878.93 943.26 890.52 945.76 883.02 954.26 875.52 962.76 675.52 1040.26 675.52 1040.26L300.02 951.26 671.52 1031.76zM654.52 956.26C654.52 956.26 634.52 980.26 654.52 1016.26" opacity=".1"/>
    <rect width="94.57" height="1" x="659.374" y="970.804" fill="#000000" fill-rule="nonzero" opacity=".1" transform="rotate(-18.45 706.659 971.304)"/>
    <rect width="115.23" height="1" x="658.046" y="973.327" fill="#000000" fill-rule="nonzero" opacity=".1" transform="rotate(-20.82 715.66 973.827)"/>
    <rect width="133.56" height="1" x="657.429" y="977.984" fill="#000000" fill-rule="nonzero" opacity=".1" transform="rotate(-22.26 724.21 978.484)"/>
    <rect width="153.74" height="1" x="657.061" y="979.995" fill="#000000" fill-rule="nonzero" opacity=".1" transform="rotate(-24.31 733.93 980.495)"/>
    <rect width="168.15" height="1" x="657.928" y="982.033" fill="#000000" fill-rule="nonzero" opacity=".1" transform="rotate(-23.61 742.003 982.533)"/>
    <rect width="201.22" height="1" x="659.048" y="982.653" fill="#000000" fill-rule="nonzero" opacity=".1" transform="rotate(-23.36 759.658 983.153)"/>
    <polygon fill="#FFFFFF" fill-rule="nonzero" points="389.53 870.76 565.53 833.76 672.75 854.26 528.53 900.76" opacity=".45"/>
    <path fill="#3A3768" fill-rule="nonzero" d="M878.93,873.09 C878.93,873.09 888.02,876.76 882.69,882.42 C877.36,888.08 672.75,947.31 672.75,947.31 L878.93,873.09 Z"/>
    <path fill="#D5D6DB" fill-rule="nonzero" d="M877.42,773.73 C877.42,773.73 854.75,823.4 872.75,865.23 L691.75,921.73 L674.42,925.4 L666.42,890.4 L671.77,846.23 L671.77,822.06 L877.42,773.73 Z"/>
    <polygon fill="#6C63FF" fill-rule="nonzero" points="305.89 755.85 556.41 710.18 888.37 763.06 682.18 837.29"/>
    <path fill="#6C63FF" fill-rule="nonzero" d="M305.89,755.84 C305.89,755.84 282.42,800.23 309.42,841.23 L680.92,921.73 C680.92,921.73 657.86,886.34 682.14,837.29 L305.89,755.84 Z"/>
    <path fill="#000000" fill-rule="nonzero" d="M305.89 755.84C305.89 755.84 282.42 800.23 309.42 841.23L680.92 921.73C680.92 921.73 657.86 886.34 682.14 837.29L305.89 755.84zM316.96 771.23C316.96 771.23 303.57 803.71 316.96 824.73" opacity=".1"/>
    <path fill="#6C63FF" fill-rule="nonzero" d="M680.96,921.73 L888.36,855.23 C888.36,855.23 899.96,857.73 892.46,866.23 C884.96,874.73 684.96,930.23 684.96,930.23 L309.46,841.23 L680.96,921.73 Z"/>
    <path fill="#000000" fill-rule="nonzero" d="M680.96 921.73L888.36 855.23C888.36 855.23 899.96 857.73 892.46 866.23 884.96 874.73 684.96 930.23 684.96 930.23L309.46 841.23 680.96 921.73zM663.96 846.23C663.96 846.23 643.96 870.23 663.96 906.23" opacity=".1"/>
    <rect width="94.57" height="1" x="668.817" y="860.772" fill="#000000" fill-rule="nonzero" opacity=".1" transform="rotate(-18.45 716.102 861.272)"/>
    <rect width="115.23" height="1" x="667.482" y="863.3" fill="#000000" fill-rule="nonzero" opacity=".1" transform="rotate(-20.82 725.097 863.8)"/>
    <rect width="133.56" height="1" x="666.856" y="867.962" fill="#000000" fill-rule="nonzero" opacity=".1" transform="rotate(-22.26 733.636 868.462)"/>
    <rect width="153.74" height="1" x="666.501" y="869.964" fill="#000000" fill-rule="nonzero" opacity=".1" transform="rotate(-24.31 743.371 870.464)"/>
    <rect width="168.15" height="1" x="667.374" y="872.011" fill="#000000" fill-rule="nonzero" opacity=".1" transform="rotate(-23.61 751.449 872.511)"/>
    <rect width="201.22" height="1" x="668.491" y="872.639" fill="#000000" fill-rule="nonzero" opacity=".1" transform="rotate(-23.36 769.1 873.139)"/>
    <polygon fill="#FFFFFF" fill-rule="nonzero" points="398.96 760.73 574.96 723.73 682.18 744.23 537.96 790.73" opacity=".3"/>
    <path fill="#6C63FF" fill-rule="nonzero" d="M888.36 763.06C888.36 763.06 897.46 766.73 892.12 772.4 886.78 778.07 682.18 837.29 682.18 837.29L888.36 763.06zM448.42 459.5C448.42 459.5 410.42 457.21 414.86 483.87 414.86 483.87 413.97 488.58 418.24 490.72 418.24 490.72 418.31 488.72 422.14 489.41 423.506731 489.644781 424.897002 489.711943 426.28 489.61 428.144288 489.482366 429.916616 488.752378 431.33 487.53L431.33 487.53C431.33 487.53 442.02 483.11 446.18 465.63 446.18 465.63 449.26 461.82 449.18 460.84L442.74 463.58C442.74 463.58 444.93 468.21 443.21 472.06 443.21 472.06 443 463.75 441.76 463.94 441.51 463.94 438.43 465.55 438.43 465.55 438.43 465.55 442.2 473.62 439.35 479.48 439.35 479.48 440.43 469.54 437.25 466.13L432.73 468.77C432.73 468.77 437.14 477.1 434.15 483.9 434.15 483.9 434.92 473.47 431.78 469.41L427.68 472.61C427.68 472.61 431.83 480.82 429.3 486.46 429.3 486.46 428.97 474.32 426.8 473.4 426.8 473.4 423.21 476.56 422.67 477.86 422.67 477.86 425.51 483.86 423.74 486.97 423.74 486.97 422.67 478.88 421.74 478.84 421.74 478.84 418.17 484.2 417.8 487.84 417.972899 484.446511 419.031332 481.157439 420.87 478.3 418.812474 478.689277 416.914202 479.67318 415.41 481.13 415.41 481.13 415.96 477.34 421.76 477.01 421.76 477.01 424.71 472.94 425.5 472.7 425.5 472.7 419.73 472.21 416.24 473.76 416.24 473.76 419.32 470.19 426.55 471.76L430.55 468.46C430.55 468.46 422.97 467.46 419.75 468.57 419.75 468.57 423.46 465.41 431.64 467.71L436.05 465.08C436.05 465.08 429.58 463.69 425.73 464.19 425.73 464.19 429.79 462 437.34 464.37L440.48 462.96C440.48 462.96 435.75 462.03 434.36 461.88 432.97 461.73 432.9 461.35 432.9 461.35 435.902138 460.856949 438.982135 461.203016 441.8 462.35 441.8 462.35 448.55 459.92 448.42 459.5z"/>
    <path fill="#6C63FF" fill-rule="nonzero" d="M983.02 569.08C983.02 569.08 945.02 566.79 949.46 593.45 949.46 593.45 948.57 598.16 952.84 600.3 952.84 600.3 952.91 598.3 956.74 598.99 958.107326 599.219311 959.496938 599.286442 960.88 599.19 962.727338 599.053901 964.481193 598.324297 965.88 597.11L965.88 597.11C965.88 597.11 976.58 592.69 980.73 575.21 980.73 575.21 983.81 571.4 983.73 570.42L977.31 573.16C977.31 573.16 979.5 577.79 977.78 581.64 977.78 581.64 977.57 573.33 976.34 573.52 976.09 573.52 973 575.13 973 575.13 973 575.13 976.77 583.2 973.93 589.06 973.93 589.06 975.01 579.12 971.82 575.71L967.3 578.35C967.3 578.35 971.71 586.68 968.72 593.48 968.72 593.48 969.49 583.05 966.35 578.99L962.26 582.19C962.26 582.19 966.4 590.4 963.87 596.04 963.87 596.04 963.54 583.9 961.37 582.98 961.37 582.98 957.79 586.14 957.24 587.44 957.24 587.44 960.08 593.44 958.32 596.55 958.32 596.55 957.24 588.46 956.32 588.42 956.32 588.42 952.75 593.78 952.38 597.42 952.55312 594.025076 953.615249 590.735235 955.46 587.88 953.399877 588.270226 951.498653 589.253858 949.99 590.71 949.99 590.71 950.55 586.92 956.34 586.59 956.34 586.59 959.29 582.52 960.08 582.27 960.08 582.27 954.32 581.79 950.82 583.34 950.82 583.34 953.9 579.77 961.13 581.34L965.13 578.04C965.13 578.04 957.54 577.04 954.33 578.15 954.33 578.15 958.03 574.99 966.22 577.29L970.62 574.66C970.62 574.66 964.15 573.27 960.3 573.77 960.3 573.77 964.36 571.58 971.91 573.95L975.06 572.54C975.06 572.54 970.32 571.61 968.93 571.46 967.54 571.31 967.47 570.93 967.47 570.93 970.471974 570.430612 973.553702 570.776873 976.37 571.93 976.37 571.93 983.14 569.5 983.02 569.08zM512.42 624.2C512.42 624.2 495.86 589.87 474.78 606.79 474.78 606.79 470.23 608.31 470.45 613.08 470.45 613.08 472.2 612.17 473.45 615.85 473.916937 617.150871 474.534468 618.392646 475.29 619.55 476.313155 621.118841 477.818933 622.312231 479.58 622.95L479.58 622.95C479.58 622.95 488.65 630.13 505.94 625.23 505.94 625.23 510.77 626.06 511.56 625.48L506.04 621.21C506.04 621.21 503.04 625.38 498.86 625.75 498.86 625.75 506.02 621.52 505.25 620.54 505.09 620.34 502.25 618.41 502.25 618.41 502.25 618.41 497.04 625.64 490.54 626.01 490.54 626.01 499.74 622.11 501.16 617.66L496.66 615C496.66 615 491.53 622.92 484.14 623.62 484.14 623.62 493.62 619.21 495.63 614.49L490.85 612.49C490.85 612.49 485.7 620.11 479.54 620.66 479.54 620.66 489.98 614.45 489.72 612.1 489.72 612.1 485.21 610.52 483.81 610.67 483.81 610.67 479.99 616.06 476.39 616.06 476.39 616.06 482.92 611.17 482.52 610.38 482.52 610.38 476.1 609.88 472.72 611.38 475.765732 609.86618 479.15489 609.176626 482.55 609.38 481.203069 607.773883 479.416721 606.595727 477.41 605.99 477.41 605.99 480.99 604.63 484.1 609.52 484.1 609.52 489.1 610.11 489.69 610.68 489.69 610.68 487.3 605.42 484.25 603.13 484.25 603.13 488.87 604.06 490.98 611.13L495.83 613.05C495.83 613.05 493.04 605.93 490.47 603.68 490.47 603.68 495.03 605.37 497.02 613.68L501.46 616.24C501.46 616.24 499.53 609.91 497.21 606.8 497.21 606.8 501.1 609.28 502.71 617.02L505.48 619.08C505.48 619.08 503.98 614.49 503.48 613.21 502.98 611.93 503.23 611.67 503.23 611.67 505.132331 614.044242 506.337186 616.90058 506.71 619.92 506.71 619.92 512.06 624.5 512.42 624.2zM896.2 520.58C896.2 520.58 879.65 486.25 858.56 503.17 858.56 503.17 854.02 504.69 854.23 509.46 854.23 509.46 855.99 508.56 857.23 512.23 857.696084 513.536199 858.317188 514.781765 859.08 515.94 860.099477 517.505895 861.602263 518.696186 863.36 519.33L863.36 519.33C863.36 519.33 872.44 526.51 889.72 521.62 889.72 521.62 894.55 522.44 895.35 521.86L889.86 517.58C889.86 517.58 886.86 521.76 882.69 522.13 882.69 522.13 889.84 517.89 889.07 516.91 888.91 516.71 886.07 514.78 886.07 514.78 886.07 514.78 880.87 522.01 874.36 522.38 874.36 522.38 883.57 518.48 884.99 514.04L880.42 511.4C880.42 511.4 875.3 519.31 867.9 520.02 867.9 520.02 877.38 515.6 879.4 510.88L874.61 508.88C874.61 508.88 869.46 516.51 863.31 517.05 863.31 517.05 873.74 510.84 873.48 508.5 873.48 508.5 868.98 506.91 867.58 507.07 867.58 507.07 863.76 512.45 860.15 512.45 860.15 512.45 866.69 507.56 866.29 506.77 866.29 506.77 859.87 506.27 856.48 507.77 859.52558 506.255736 862.914857 505.566157 866.31 505.77 864.968114 504.16286 863.184596 502.984278 861.18 502.38 861.18 502.38 864.76 501.02 867.87 505.91 867.87 505.91 872.87 506.51 873.46 507.08 873.46 507.08 871.07 501.81 868.01 499.52 868.01 499.52 872.63 500.46 874.74 507.57L879.6 509.49C879.6 509.49 876.81 502.36 874.24 500.11 874.24 500.11 878.8 501.8 880.78 510.11L885.23 512.67C885.23 512.67 883.29 506.35 880.97 503.23 880.97 503.23 884.87 505.71 886.47 513.45L889.24 515.51C889.24 515.51 887.75 510.92 887.24 509.64 886.73 508.36 886.99 508.11 886.99 508.11 888.886919 510.486443 890.088046 513.342148 890.46 516.36 890.46 516.36 895.89 520.9 896.2 520.58zM949.09 690.39C949.09 690.39 932.54 656.05 911.42 672.97 911.42 672.97 906.88 674.49 907.09 679.26 907.09 679.26 908.85 678.36 910.09 682.03 910.552839 683.335767 911.170582 684.581324 911.93 685.74 912.949477 687.305895 914.452263 688.496186 916.21 689.13L916.21 689.13C916.21 689.13 925.29 696.32 942.58 691.42 942.58 691.42 947.4 692.25 948.2 691.66L942.68 687.39C942.68 687.39 939.68 691.57 935.5 691.94 935.5 691.94 942.65 687.7 941.88 686.72 941.72 686.52 938.88 684.59 938.88 684.59 938.88 684.59 933.68 691.82 927.17 692.2 927.17 692.2 936.38 688.29 937.8 683.85L933.29 681.19C933.29 681.19 928.17 689.11 920.77 689.81 920.77 689.81 930.25 685.39 932.27 680.67L927.48 678.67C927.48 678.67 922.33 686.29 916.18 686.84 916.18 686.84 926.62 680.63 926.36 678.28 926.36 678.28 921.85 676.69 920.45 676.85 920.45 676.85 916.63 682.23 913.02 682.23 913.02 682.23 919.56 677.34 919.16 676.55 919.16 676.55 912.74 676.05 909.35 677.55 912.39948 676.036681 915.791716 675.347202 919.19 675.55 917.846219 673.940352 916.058726 672.761441 914.05 672.16 914.05 672.16 917.63 670.79 920.74 675.69 920.74 675.69 925.74 676.28 926.33 676.85 926.33 676.85 923.94 671.59 920.89 669.29 920.89 669.29 925.51 670.23 927.62 677.34L932.47 679.26C932.47 679.26 929.68 672.13 927.11 669.89 927.11 669.89 931.67 671.57 933.65 679.89L938.1 682.44C938.1 682.44 936.16 676.12 933.84 673 933.84 673 937.74 675.48 939.35 683.23L942.12 685.23C942.12 685.23 940.62 680.64 940.12 679.36 939.62 678.08 939.87 677.83 939.87 677.83 941.771483 680.203729 942.973178 683.060783 943.34 686.08 943.34 686.08 948.78 690.69 949.09 690.39z" opacity=".1"/>
    <ellipse cx="339.95" cy="1134.59" fill="#6C63FF" fill-rule="nonzero" opacity=".1" rx="22.99" ry="2.57"/>
    <ellipse cx="189.24" cy="1090.91" fill="#6C63FF" fill-rule="nonzero" opacity=".1" rx="22.99" ry="2.57"/>
    <ellipse cx="454.83" cy="1163.6" fill="#6C63FF" fill-rule="nonzero" opacity=".1" rx="22.99" ry="2.57"/>
    <ellipse cx="1043.53" cy="1100.41" fill="#6C63FF" fill-rule="nonzero" opacity=".1" rx="22.99" ry="2.57"/>
    <ellipse cx="852.22" cy="1087.94" fill="#6C63FF" fill-rule="nonzero" opacity=".1" rx="22.99" ry="2.57"/>
    <ellipse cx="728.46" cy="1146.66" fill="#6C63FF" fill-rule="nonzero" opacity=".1" rx="27.19" ry="4.67"/>
    <path fill="#6C63FF" fill-rule="nonzero" d="M740.59,1099.72 C740.59,1099.72 702.73,1119.28 722.29,1142.32 C722.29,1142.32 724.13,1147.32 729.45,1146.97 C729.45,1146.97 728.39,1145.03 732.45,1143.48 C733.894634,1142.92157 735.267633,1142.19311 736.54,1141.31 C738.259324,1140.1214 739.544252,1138.40465 740.2,1136.42 L740.2,1136.42 C740.2,1136.42 747.94,1126.06 741.94,1106.89 C741.94,1106.89 742.72,1101.47 742.04,1100.59 L737.44,1106.9 C737.44,1106.9 742.19,1110.09 742.74,1114.78 C742.74,1114.78 737.74,1106.91 736.74,1107.78 C736.52,1107.96 734.46,1111.23 734.46,1111.23 C734.46,1111.23 742.7,1116.82 743.31,1124.08 C743.31,1124.08 738.67,1113.91 733.66,1112.46 L730.79,1117.58 C730.79,1117.58 739.79,1123.06 740.79,1131.3 C740.79,1131.3 735.56,1120.85 730.22,1118.74 L728.11,1124.15 C728.11,1124.15 736.79,1129.67 737.59,1136.53 C737.59,1136.53 730.33,1125.06 727.72,1125.42 C727.72,1125.42 726.08,1130.5 726.3,1132.07 C726.3,1132.07 732.43,1136.17 732.54,1140.2 C732.54,1140.2 726.88,1133.05 726.01,1133.52 C726.01,1133.52 725.65,1140.71 727.39,1144.45 C727.39,1144.45 724.39,1139.11 724.88,1133.52 C723.126227,1135.07089 721.864414,1137.10091 721.25,1139.36 C721.25,1139.36 719.62,1135.41 724.99,1131.77 C724.99,1131.77 725.5,1126.18 726.12,1125.49 C726.12,1125.49 720.31,1128.33 717.84,1131.81 C717.84,1131.81 718.75,1126.62 726.63,1124.04 L728.63,1118.56 C728.63,1118.56 720.75,1121.9 718.32,1124.84 C718.32,1124.84 720.07,1119.69 729.25,1117.22 L731.97,1112.22 C731.97,1112.22 724.97,1114.58 721.55,1117.22 C721.55,1117.22 724.2,1112.79 732.81,1110.75 L735.02,1107.6 C735.02,1107.6 729.94,1109.41 728.52,1110.06 C727.1,1110.71 726.82,1110.39 726.82,1110.39 C729.415624,1108.19447 732.56904,1106.76142 735.93,1106.25 C735.93,1106.25 740.94,1100.06 740.59,1099.72 Z"/>
    <path fill="url(#a)" fill-rule="nonzero" d="M852.96,730.29 C846.42,712.52 810.42,710.85 794.8,715.38 C783.7,718.61 760.3,722.25 747.8,724.08 L746.99,723.31 C748.61,722.83 748.65,721.65 748.45,719.9 C748.333583,717.593599 748.366986,715.282074 748.55,712.98 C756.21,715.36 763.03,709.73 763.03,709.73 L763.03,709.73 C772.03,705.73 769.61,688.61 771.33,683.93 C772.62,680.43 774.01,659.81 774.63,649.53 L774.76,649.53 L774.83,646.08 C774.92,644.59 774.96,643.72 774.96,643.72 C774.96,643.72 775.84,618.58 777.56,613.49 C779.16,608.81 780.46,585.23 780.66,581.49 C780.66,581.17 780.66,581 780.66,581 L780.53,578.82 C780.62,577.23 780.66,575.46 780.65,573.6 C780.65,565.05 779.76,554.28 779.65,552.54 C779.65,552.29 779.65,551.99 779.65,551.63 C779.72,547.98 779.26,529.7 763.71,522.79 C757.98,520.23 751.09,517.18 744.42,514.21 C742.7,499.36 738.77,484.59 739.11,469.63 C739.11,467.38 739.31,465.13 739.53,462.89 C739.53,463.54 739.46,464.2 739.45,464.89 C739.45,466.34 739.45,467.8 739.45,469.25 C740.04,450.54 747.11,431.73 746.45,413.42 C746.39,415.21 746.26,417.01 746.09,418.81 C746.435256,412.616823 745.787058,406.408302 744.17,400.42 C743.57,398.31 742.76,396.13 741.03,394.72 C739.394753,393.584427 737.519368,392.841802 735.55,392.55 C730.818022,391.338769 726.010756,390.443462 721.16,389.87 C720.422892,387.613738 719.329027,385.490155 717.92,383.58 C707.78,369.66 692.76,356.58 675,353.58 C666.09,352.08 655.84,353.33 649.78,359.7 C649.147147,360.259589 648.552483,360.860935 648,361.5 C644.74,365.39 643.34,370.5 640,374.38 C639.78,374.64 639.53,374.88 639.29,375.13 C632.75,380.98 622.56,382.2 615.29,387.45 C614.008995,388.392459 612.808226,389.439369 611.7,390.58 C608.770624,393.48292 606.1438,396.675987 603.86,400.11 C600.59,404.71 597.23,409.5 596.19,414.99 C594.1,425.99 601.59,436.42 602.98,447.49 C606.08,472.26 578.67,494.24 583.86,518.68 C585.244882,524.684174 588.303045,530.172919 592.68,534.51 C581.99,544.19 572.89,553.58 572.89,553.58 L572.89,554.14 L571.2,554.14 L571.37,556.14 L571.2,556.14 L572.13,566.99 L571.2,582.79 C571.2,582.79 571.2,582.96 571.2,583.28 L571.2,583.36 L571.2,583.79 C571.2,583.79 571.2,583.96 571.2,584.28 L571.26,584.28 C571.57,590.07 572.8,610.89 574.26,615.28 C575.98,620.37 576.85,645.51 576.85,645.51 C576.85,645.51 578.75,681.04 580.49,685.74 C582.23,690.44 579.76,707.51 588.79,711.54 L588.79,711.54 C591.431685,713.56635 594.559454,714.862978 597.86,715.3 C597.4,719.04 597.69,721.75 599.18,722.6 C599.81776,722.974924 600.540433,723.181402 601.28,723.2 C600.667345,724.108639 600.122534,725.061222 599.65,726.05 C596.065824,725.675797 592.544048,724.84576 589.17,723.58 C579.47,719.58 547.28,710.58 537.93,716.91 C528.58,723.24 506.08,728.98 516.47,754.46 C526.86,779.94 531.7,780.58 531.7,780.58 C534.89816,782.901672 537.703712,785.720728 540.01,788.93 C543.13,793.62 572.2,804.35 579.47,804.35 C582.560049,804.302396 585.64992,804.456054 588.72,804.81 C588.72,804.81 580.83,811.73 581.88,815.75 C582.93,819.77 579.48,851.95 579.48,851.95 C579.48,851.95 587.48,860.01 590.9,849.44 L591.02,849.6 C591.66,850.47 595.12,854.4 601.63,849.44 C604.294301,847.418677 607.124331,845.625656 610.09,844.08 L641.61,839.62 C644.896189,839.414603 648.191228,839.391234 651.48,839.55 C656.48,839.96 661.39,837 664.48,834.71 C671.01,837.19 678.35,839.9 681.84,840.89 C688.92,842.89 721.46,851.62 729.07,848.89 C730.651863,848.261025 732.058409,847.259289 733.17,845.97 L740.43,846.2 L737.03,846.88 C737.03,846.88 743.65,846.99 752.65,847.11 L752.27,847.33 L763.56,847.23 C780.08,847.38 798.64,847.43 801.08,846.88 C804.9,846.03 824.75,846.63 830.6,846.88 L832.23,846.88 C832.23,846.88 854.04,842.53 845.04,820.4 C838.12,803.4 816.85,798.46 807.41,797.1 C810.07,796.57 812.36,796.16 813.88,795.92 C820.47,794.92 833.27,788.92 834.31,786.87 C835.35,784.82 846.08,778.87 848.85,775.48 C851.62,772.09 859.53,748.06 852.96,730.29 Z M672.31,780.02 L671.24,780.37 L670.52,780.61 L669.14,781.97 C668.04,781.23 666.86,780.45 665.63,779.65 C667.8,779.78 670.03,779.91 672.31,780.02 Z"/>
    <path fill="#BE6F72" fill-rule="nonzero" d="M736.07,674.58 C736.07,674.58 751.37,714.58 760.07,710.58 C768.77,706.58 766.41,689.58 768.07,684.92 C769.73,680.26 771.57,644.92 771.57,644.92 C771.57,644.92 772.41,619.92 774.07,614.86 C775.61,610.21 776.86,586.76 777.07,583.07 C777.07,582.75 777.07,582.58 777.07,582.58 L775.42,553.58 L766.08,551.25 L744.42,559.25 L741.42,576.38 L740.25,583.07 L739.75,585.92 L736.07,674.58 Z"/>
    <path fill="#000000" fill-rule="nonzero" d="M741.11,667.88 C741.11,667.88 755.71,679.83 760.11,680.88 C764.51,681.93 767.21,691.25 767.21,691.25" opacity=".1"/>
    <path fill="#BE6F72" fill-rule="nonzero" d="M616.42,676.33 C616.42,676.33 601.12,716.33 592.42,712.33 C583.72,708.33 586.08,691.33 584.42,686.67 C582.76,682.01 580.92,646.67 580.92,646.67 C580.92,646.67 580.08,621.67 578.42,616.61 C576.88,611.96 575.63,588.51 575.42,584.82 C575.42,584.5 575.42,584.33 575.42,584.33 L577.08,555.33 L586.42,553 L608.08,561 L611.08,578.13 L612.25,584.82 L612.75,587.67 L616.42,676.33 Z"/>
    <rect width="34.15" height="53.23" x="681.9" y="462.27" fill="#3E373A" fill-rule="nonzero"/>
    <rect width="34.15" height="53.23" x="681.9" y="462.27" fill="#000000" fill-rule="nonzero" opacity=".1"/>
    <path fill="#4B4B5B" fill-rule="nonzero" d="M610.42,716.17 C610.42,716.17 598.75,729 603.08,731.33 C607.41,733.66 635.42,777.33 635.42,777.33 C635.42,777.33 727.42,788.66 744.77,771.66 C762.12,754.66 761.77,724.29 761.77,724.29 C761.77,724.29 747.83,727.29 746.31,725.66 C744.79,724.03 736.44,716.17 736.44,716.17 C736.44,716.17 618.42,709.01 610.42,716.17 Z"/>
    <path fill="#000000" fill-rule="nonzero" d="M610.42,716.17 C610.42,716.17 598.75,729 603.08,731.33 C607.41,733.66 635.42,777.33 635.42,777.33 C635.42,777.33 727.42,788.66 744.77,771.66 C762.12,754.66 761.77,724.29 761.77,724.29 C761.77,724.29 747.83,727.29 746.31,725.66 C744.79,724.03 736.44,716.17 736.44,716.17 C736.44,716.17 618.42,709.01 610.42,716.17 Z" opacity=".02"/>
    <path fill="#BE6F72" fill-rule="nonzero" d="M776.04,554 L746.04,578 L736.97,578.66 L733.64,578.9 L677.71,583 L619.71,578.76 L611.08,578.13 L600.08,577.33 L577.08,555.33 C577.08,555.33 593.36,537.89 607.62,526.12 C613.24,521.47 618.55,517.71 622.42,516.23 L623.08,516 C625.514179,515.050728 627.687416,513.535633 629.42,511.58 C640.68,499.97 651.09,471.32 651.09,471.32 C651.09,471.32 700.76,445.66 694.76,479.32 C688.76,512.98 717.09,504.66 717.09,504.66 L726.43,508.92 L730.12,510.61 L739.53,514.92 L760.76,524.66 C777.42,532.33 776.04,554 776.04,554 Z"/>
    <circle cx="675.38" cy="454.06" r="44.67" fill="#000000" fill-rule="nonzero" opacity=".1"/>
    <path fill="#000000" fill-rule="nonzero" d="M776.11,585.82 L575.42,585.82 C575.42,585.5 575.42,585.33 575.42,585.33 L577.08,556.33 C577.08,556.33 593.36,538.89 607.62,527.12 L733.62,522.12 L739.48,515.94 L760.71,525.68 C777.38,533.34 776.04,555.01 776.04,555.01 C776.04,555.01 778.32,580.12 776.11,585.82 Z" opacity=".1"/>
    <path fill="#E7C7CA" fill-rule="nonzero" d="M776.11,584.82 L575.42,584.82 C575.42,584.5 575.42,584.33 575.42,584.33 L577.08,555.33 C577.08,555.33 593.36,537.89 607.62,526.12 L733.62,521.12 L739.48,514.94 L760.71,524.68 C777.38,532.34 776.04,554.01 776.04,554.01 C776.04,554.01 778.32,579.12 776.11,584.82 Z"/>
    <path fill="#000000" fill-rule="nonzero" d="M643.21,503.5 C643.21,503.5 674.87,543.84 717.04,502.67 C759.21,461.5 721.71,594.5 721.71,594.5 L630.71,605.3 L643.21,503.5 Z" opacity=".1"/>
    <path fill="#E7C7CA" fill-rule="nonzero" d="M643.21,505.5 C643.21,505.5 674.87,545.84 717.04,504.67 C759.21,463.5 721.71,596.5 721.71,596.5 L630.71,607.3 L643.21,505.5 Z"/>
    <path fill="#000000" fill-rule="nonzero" d="M730.07,512.58 L733.42,563.67 L737.01,580.67 L739.75,593.67 C739.75,593.67 746.75,693.67 744.75,698.67 C742.75,703.67 745.75,707.67 746.17,710.33 C746.59,712.99 745.75,719.67 746.08,722.67 C746.41,725.67 746.08,727 738.42,725.93 C730.76,724.86 720.08,723 720.08,723 C720.08,723 693.08,725 683.75,721.67 C674.42,718.34 656.75,718.33 656.75,718.33 C656.75,718.33 630.08,719 621.42,718 C612.76,717 608.08,728.67 602.42,725.33 C596.76,721.99 609.08,689.67 613.08,680.33 C617.08,670.99 607.75,647.33 607.75,647.33 L619.75,580.76 L622.42,565.67 L622.42,518.23 L623.08,518 C625.514179,517.050728 627.687416,515.535633 629.42,513.58 L632.42,561.32 L726.42,564.66 L726.42,510.93" opacity=".1"/>
    <path fill="#E7C7CA" fill-rule="nonzero" d="M730.07,510.58 L733.42,561.67 L737.01,578.67 L739.75,591.67 C739.75,591.67 746.75,691.67 744.75,696.67 C742.75,701.67 745.75,705.67 746.17,708.33 C746.59,710.99 745.75,717.67 746.08,720.67 C746.41,723.67 746.08,725 738.42,723.93 C730.76,722.86 720.08,721 720.08,721 C720.08,721 693.08,723 683.75,719.67 C674.42,716.34 656.75,716.33 656.75,716.33 C656.75,716.33 630.08,717 621.42,716 C612.76,715 608.08,726.67 602.42,723.33 C596.76,719.99 609.08,687.67 613.08,678.33 C617.08,668.99 607.75,645.33 607.75,645.33 L619.75,578.76 L622.42,563.67 L622.42,516.23 L623.08,516 C625.514179,515.050728 627.687416,513.535633 629.42,511.58 L632.42,559.32 L726.42,562.66 L726.42,508.93"/>
    <path fill="#000000" fill-rule="nonzero" d="M740.88,403.96 C740.31,401.87 739.52,399.7 737.88,398.3 C736.313961,397.175506 734.505156,396.435541 732.6,396.14 C728.038782,394.940597 723.401476,394.051892 718.72,393.48 C718.051228,391.259508 717.038974,389.157394 715.72,387.25 C705.92,373.41 691.42,360.36 674.36,357.41 C665.43,355.86 655.08,357.25 649.36,364.29 C646.22,368.16 644.87,373.29 641.7,377.09 C635.59,384.47 624.56,385.38 616.86,391.09 C612.75,394.09 609.77,398.44 606.86,402.66 C603.71,407.23 600.47,411.99 599.47,417.45 C597.47,428.36 604.68,438.76 606.01,449.77 C609.01,474.4 582.61,496.25 587.6,520.55 C590.51,534.72 603.6,544.7 617.14,549.76 C621.91,551.55 627.36,553.33 629.59,557.91 C630.59,559.91 630.76,562.22 631.7,564.24 C634.86,570.98 645.25,571.24 650.83,566.33 C656.41,561.42 658.17,553.48 658.83,546.07 C661.51,513.71 648.55,481.74 650.06,449.3 C650.51,439.49 653.27,428.36 662.06,423.92 C673.89,417.92 688.12,427.92 701.14,426.01 C707.301233,441.001381 708.609195,457.54675 704.88,473.32 C702.81,481.95 699.23,490.32 698.97,499.22 C698.58,512.77 705.89,525.15 712.21,537.13 C713.566098,539.370237 714.472975,541.853111 714.88,544.44 C714.97948,547.06471 714.490897,549.678458 713.45,552.09 C709.88,561.7 703.72,570.62 703.02,580.85 C702.814872,582.044175 703.083968,583.271255 703.77,584.27 C704.474563,584.936574 705.383787,585.345373 706.35,585.43 C717.15,587.28 726.49,577.71 731.76,568.1 C737.635611,557.485839 741.059405,545.69049 741.78,533.58 C742.87,513.22 735.57,493.19 736.02,472.81 C736.54,449.64 747.01,426.31 740.88,403.96 Z" opacity=".1"/>
    <path fill="#3E373A" fill-rule="nonzero" d="M741.88,402.96 C741.31,400.87 740.52,398.7 738.88,397.3 C737.313961,396.175506 735.505156,395.435541 733.6,395.14 C729.038782,393.940597 724.401476,393.051892 719.72,392.48 C719.051228,390.259508 718.038974,388.157394 716.72,386.25 C706.92,372.41 692.42,359.36 675.36,356.41 C666.43,354.86 656.08,356.25 650.36,363.29 C647.22,367.16 645.87,372.29 642.7,376.09 C636.59,383.47 625.56,384.38 617.86,390.09 C613.75,393.09 610.77,397.44 607.86,401.66 C604.71,406.23 601.47,410.99 600.47,416.45 C598.47,427.36 605.68,437.76 607.01,448.77 C610.01,473.4 583.61,495.25 588.6,519.55 C591.51,533.72 604.6,543.7 618.14,548.76 C622.91,550.55 628.36,552.33 630.59,556.91 C631.59,558.91 631.76,561.22 632.7,563.24 C635.86,569.98 646.25,570.24 651.83,565.33 C657.41,560.42 659.17,552.48 659.83,545.07 C662.51,512.71 649.55,480.74 651.06,448.3 C651.51,438.49 654.27,427.36 663.06,422.92 C674.89,416.92 689.12,426.92 702.14,425.01 C708.301233,440.001381 709.609195,456.54675 705.88,472.32 C703.81,480.95 700.23,489.32 699.97,498.22 C699.58,511.77 706.89,524.15 713.21,536.13 C714.566098,538.370237 715.472975,540.853111 715.88,543.44 C715.97948,546.06471 715.490897,548.678458 714.45,551.09 C710.88,560.7 704.72,569.62 704.02,579.85 C703.814872,581.044175 704.083968,582.271255 704.77,583.27 C705.474563,583.936574 706.383787,584.345373 707.35,584.43 C718.15,586.28 727.49,576.71 732.76,567.1 C738.635611,556.485839 742.059405,544.69049 742.78,532.58 C743.87,512.22 736.57,492.19 737.02,471.81 C737.54,448.64 748.01,425.31 741.88,402.96 Z"/>
    <polygon fill="#C3C7D9" fill-rule="nonzero" points="719.79 845.73 759.46 847 753.77 817.58 723.38 820.47"/>
    <path fill="#4B4B5B" fill-rule="nonzero" d="M842.71,776 C840.04,779.33 829.71,785.33 828.71,787.33 C827.71,789.33 815.38,795.33 809.04,796.33 C802.7,797.33 782.71,801.67 779.04,804 C776.41,805.68 755.3,811 741.43,813.95 C737.673194,814.838785 733.870942,815.523123 730.04,816 C724.04,816.33 658.38,794 658.38,794 L671.04,781 L671.74,780.76 C675.32,779.55 691.86,773.96 701.04,771.3 C711.38,768.3 723.38,755.97 723.38,755.97 C723.38,755.97 741.04,749.97 743.38,749.3 C745.72,748.63 737.38,725.97 737.38,725.97 C737.38,725.97 775.71,720.65 790.71,716.14 C805.71,711.63 840.38,713.3 846.71,730.97 C853.04,748.64 845.42,772.67 842.71,776 Z"/>
    <path fill="#E7C7CA" fill-rule="nonzero" d="M668.04,832.33 C668.04,832.33 660.38,840.33 652.71,839.67 C645.04,839.01 618.22,841.67 618.22,841.67 C613.359661,843.608719 608.808347,846.246528 604.71,849.5 C598.44,854.44 595.11,850.5 594.49,849.66 L594.38,849.5 C591.04,860.01 583.38,852 583.38,852 C583.38,852 586.71,820 585.69,816 C584.67,812 592.28,805.13 592.28,805.13 L601.28,802.84 L624.08,797 L656.75,808.33 L668.04,832.33 Z"/>
    <path fill="#000000" fill-rule="nonzero" d="M601.24 802.84L594.49 849.66 594.38 849.5C591.04 860.01 583.38 852 583.38 852 583.38 852 586.71 820 585.69 816 584.67 812 592.28 805.13 592.28 805.13L601.24 802.84zM648.42 669.66C648.42 669.66 666.08 675.66 681.42 669.66M708.71 681C708.71 681 716.04 684.66 721.71 681M708.71 689.68C708.71 689.68 721.04 691.33 723.38 688M704.71 708.33C704.71 708.33 727.87 705.33 733.62 701.33M634.04 701.33C634.04 701.33 647.04 708.66 656.71 708.33M741.42 813.95C737.663194 814.838785 733.860942 815.523123 730.03 816 724.03 816.33 658.37 794 658.37 794L671.03 781 671.73 780.76C673.73 782.17 675.37 783.38 676.54 784.3 682.05 788.64 687.37 782.97 689.37 782.97 691.37 782.97 708.7 797.3 708.7 797.3 708.7 797.3 724.7 800.97 727.37 804.3 730.04 807.63 739.37 806.97 741.03 809.3 741.53 810.02 741.59 811.79 741.42 813.95z" opacity=".1"/>
    <path fill="#4B4B5B" fill-rule="nonzero" d="M618.22,727.33 C618.22,727.33 602.04,728.26 592.71,724.33 C583.38,720.4 552.38,711.33 543.38,717.7 C534.38,724.07 512.71,729.7 522.71,755.04 C532.71,780.38 537.38,781.04 537.38,781.04 C540.474042,783.360284 543.175139,786.162673 545.38,789.34 C548.38,794.01 576.38,804.67 583.38,804.67 C590.38,804.67 602.71,804.67 620.04,816.67 C637.37,828.67 653.04,830.01 653.04,830.01 C653.04,830.01 675.04,839.01 681.89,841.01 C688.74,843.01 720.04,851.67 727.38,849.01 C734.72,846.35 739.38,829.67 739.38,829.67 C739.38,829.67 742.71,814.67 741.04,812.34 C739.37,810.01 730.04,810.67 727.38,807.34 C724.72,804.01 708.71,800.34 708.71,800.34 C708.71,800.34 691.42,786 689.42,786 C687.42,786 682.1,791.66 676.59,787.33 C665.614086,779.200425 654.08257,771.849125 642.08,765.33 C629.42,758.66 618.22,727.33 618.22,727.33 Z"/>
    <path fill="#000000" fill-rule="nonzero" d="M585.69 737C591.529677 735.806961 597.591532 737.408415 602.08 741.33 610.08 748 637 761.39 637 761.39M785.71 736.58C785.71 736.58 750.04 741.98 743.38 749.31" opacity=".1"/>
    <path fill="#E7C7CA" fill-rule="nonzero" d="M826.71,847 L825.14,847 C819.5,846.8 800.39,846.2 796.71,847 C792.38,848 735.04,847 735.04,847 L746.25,844.67 C746.25,844.67 742.09,830.09 744.73,828.88 C744.73,828.88 729.73,819 741.04,812.33 C752.35,805.66 764.54,808.47 764.54,808.47 L792.93,798.85 L798.38,797 C798.38,797 830.38,798.67 839.04,820.67 C847.7,842.67 826.71,847 826.71,847 Z"/>
    <path fill="#000000" fill-rule="nonzero" d="M826.71,847 L825.14,847 C834.45,839.32 855.51,815.94 792.93,798.9 L798.38,797.05 C798.38,797.05 830.38,798.72 839.04,820.72 C847.7,842.72 826.71,847 826.71,847 Z" opacity=".1"/>
    <circle cx="767.88" cy="819.33" r="1.75" fill="#4B4B5B" fill-rule="nonzero"/>
    <circle cx="757.71" cy="822.22" r="1.75" fill="#4B4B5B" fill-rule="nonzero"/>
    <g fill="#000000" fill-rule="nonzero" opacity=".1" transform="translate(588 415)">
      <path d="M120.16 37.41C120.547826 26.4108157 118.591182 15.4549743 114.42 5.27 101.42 7.21 87.18-2.82 75.34 3.18 66.58 7.62 63.83 18.75 63.34 28.56 63.22 31.15 63.2 33.74 63.25 36.33 63.25 35.41 63.25 34.48 63.34 33.56 63.8 23.75 66.55 12.62 75.34 8.18 87.18 2.18 101.4 12.18 114.42 10.27 117.952545 18.8970483 119.897119 28.091431 120.16 37.41zM19.42 35.58C19.5912753 33.4010128 19.5477322 31.2104596 19.29 29.04 18.23 20.24 13.42 11.83 12.55 3.25 11.43 13.6 18.02 23.54 19.29 34.04 19.42 34.58 19.42 35.06 19.42 35.58zM72.11 125.32C71.49 132.74 69.74 140.67 64.11 145.59 58.48 150.51 48.11 150.24 44.98 143.5 43.98 141.5 43.83 139.17 42.86 137.17 40.64 132.59 35.18 130.81 30.41 129.02 16.86 123.95 3.79 114.02.88 99.81.620042867 98.5226836.443012013 97.2200038.35 95.91.10407828 98.8867934.282529732 101.883431.88 104.81 3.79 118.98 16.88 128.95 30.41 134.02 35.18 135.81 40.64 137.59 42.86 142.17 43.86 144.17 44.03 146.48 44.98 148.5 48.13 155.24 58.52 155.5 64.11 150.59 69.7 145.68 71.44 137.74 72.11 130.32 72.414459 126.414565 72.5179289 122.49606 72.42 118.58 72.42 120.85 72.29 123.09 72.11 125.32zM149.35 52.07C149.35 53.52 149.35 54.96 149.35 56.4 149.91 37.8 156.73 19.1 156.06.89 155.54 17.73 149.73 34.95 149.35 52.07zM127.89 127.31C128.135971 126.12346 128.213399 124.908162 128.12 123.7 127.717234 121.112011 126.810063 118.628333 125.45 116.39 119.67 105.39 113.08 94.13 112.3 81.92 112.3 82.44 112.23 82.92 112.22 83.48 111.82 97.02 119.13 109.41 125.45 121.39 126.524104 123.245491 127.344739 125.23654 127.89 127.31L127.89 127.31zM155.1 112.84C154.353488 124.955214 150.905957 136.74994 145.01 147.36 139.73 156.97 130.4 166.54 119.59 164.69 118.621503 164.606534 117.710887 164.19358 117.01 163.52 116.806901 163.290967 116.647592 163.026582 116.54 162.74 116.42 163.52 116.32 164.31 116.26 165.11 116.05324 166.301036 116.322579 167.525631 117.01 168.52 117.710887 169.19358 118.621503 169.606534 119.59 169.69 130.4 171.54 139.73 161.97 145.01 152.36 150.905957 141.74994 154.353488 129.955214 155.1 117.84 155.22 115.5 155.23 113.17 155.16 110.84 155.14 111.51 155.14 112.17 155.1 112.84z"/>
    </g>
    <path stroke="#000000" d="M744.73 828.88C744.73 828.88 770.04 839.5 786.73 816M749.71 847.44C749.71 847.44 770.38 834 796.71 847M611.35 844.39C611.35 844.39 620.03 824.81 643.21 839.74" opacity=".1"/>
    <path fill="#000000" fill-rule="nonzero" d="M583.21,554.83 L600.91,538.83 C600.91,538.83 669.54,534.33 672.38,557.66 C672.38,557.66 696.71,530 747.88,536.16 L769.53,553.4 L709.69,579.66 L651.54,599.83 L608.71,580.66 L583.21,554.83 Z" opacity=".1"/>
    <path fill="#D5D6DB" fill-rule="nonzero" d="M583.21,555.83 L600.91,539.83 C600.91,539.83 669.54,535.33 672.38,558.66 C672.38,558.66 696.71,531 747.88,537.16 L769.53,554.4 L709.69,580.66 L651.54,600.83 L608.71,581.66 L583.21,555.83 Z"/>
    <polygon fill="#000000" fill-rule="nonzero" points="575.38 557.83 583.21 651.5 666.21 655.67 662.61 562.4 662.54 560.83" opacity=".1"/>
    <polygon fill="#6C63FF" fill-rule="nonzero" points="575.38 555.83 583.21 649.5 666.21 653.67 662.61 560.4 662.54 558.83"/>
    <polygon fill="#000000" fill-rule="nonzero" points="773.33 555.83 687.71 568.67 687.71 662.76 771.38 650.67" opacity=".1"/>
    <polygon fill="#6C63FF" fill-rule="nonzero" points="773.33 553.83 687.71 566.67 687.71 660.76 771.38 648.67"/>
    <polygon fill="#FFFFFF" fill-rule="nonzero" points="753.14 576.79 706.89 581.93 707.9 597.69 753.11 592.75" opacity=".3"/>
    <path fill="#BE6F72" fill-rule="nonzero" d="M587.71,699.66 L592.42,712.33 C592.42,712.33 599.42,718.33 607.08,715.33 C614.74,712.33 621.42,710.84 624.75,707.92 C628.08,705 632.75,690.33 632.75,690.33 C632.75,690.33 637.42,674.33 642.08,670.33 C646.74,666.33 659.08,611.22 642.08,616.61 C625.08,622 612.08,672 612.08,672 C612.08,672 609.08,675.66 604.75,676 C600.42,676.34 591.75,675.33 590.08,679 C588.41,682.67 582.71,692.33 587.71,699.66 Z"/>
    <path fill="#000000" fill-rule="nonzero" d="M687.71,568.66 C678.820996,570.66304 669.508433,568.34139 662.6,562.4 L666.21,655.66 C666.21,655.66 674.71,664.86 687.71,662.76 L687.71,568.66 Z" opacity=".1"/>
    <path fill="#6C63FF" fill-rule="nonzero" d="M687.71,566.66 C678.820996,568.66304 669.508433,566.34139 662.6,560.4 L666.21,653.66 C666.21,653.66 674.71,662.86 687.71,660.76 L687.71,566.66 Z"/>
    <path fill="#000000" fill-rule="nonzero" d="M687.71 566.66C678.820996 568.66304 669.508433 566.34139 662.6 560.4L666.21 653.66C666.21 653.66 674.71 662.86 687.71 660.76L687.71 566.66zM689.71 556.15C689.71 556.15 724.54 545.5 733.62 547M650.75 551.5C650.75 551.5 616.99 543.5 611.35 545.77M711.67 557.48C711.67 557.48 734.96 548.94 743.38 553M699.94 771.71C703.549017 768.999588 707.390646 766.613629 711.42 764.58 717.42 761.69 728.42 754.19 728.42 754.19M611.35 669.66C611.35 669.66 596.74 681.61 592.35 682.66 587.96 683.71 585.25 693.03 585.25 693.03" opacity=".1"/>
    <path fill="#BE6F72" fill-rule="nonzero" d="M764.74,697.88 L760.08,710.58 C760.08,710.58 753.08,716.58 745.41,713.58 C737.74,710.58 731.08,709.09 727.74,706.17 C724.4,703.25 719.74,688.58 719.74,688.58 C719.74,688.58 715.08,672.58 710.41,668.58 C705.74,664.58 693.41,609.47 710.41,614.86 C727.41,620.25 740.41,670.25 740.41,670.25 C740.41,670.25 743.41,673.91 747.74,674.25 C752.07,674.59 760.74,673.58 762.41,677.25 C764.08,680.92 769.74,690.58 764.74,697.88 Z"/>
    <path fill="#000000" fill-rule="nonzero" d="M756.57,674.52 C756.57,674.52 766.12,680.66 766.08,688" opacity=".1"/>
    <circle cx="675.54" cy="451.87" r="44.67" fill="#BE6F72" fill-rule="nonzero"/>
    <path fill="#3E373A" fill-rule="nonzero" d="M647.49,439.88 C652.91,439.03 657.66,435.88 662.84,434.07 C674.43,430 687.25,432.79 698.98,436.46 C703.48,437.87 708.05,439.46 712.77,439.46 C717.49,439.46 722.5,437.53 724.91,433.46 C727.13,429.72 726.7,424.86 724.83,420.93 C722.96,417 719.83,413.84 716.67,410.86 C706.27,401.04 693.37,391.86 679.1,392.86 C673.36,393.27 667.87,395.32 662.59,397.59 C655.941638,400.454999 649.470139,403.714124 643.21,407.35 C638.4,410.14 629.49,413.87 626.72,418.97 C620.42,430.46 637.69,441.42 647.49,439.88 Z"/>
    <path fill="#000000" fill-rule="nonzero" d="M724.91,429.26 C722.5,433.33 717.49,435.26 712.77,435.26 C708.05,435.26 703.48,433.73 698.97,432.32 C687.24,428.65 674.43,425.85 662.83,429.93 C657.66,431.74 652.9,434.93 647.48,435.73 C639.58,436.97 626.86,430.09 625.48,421.34 C623.93,431.45 638.68,440.11 647.48,438.73 C652.9,437.88 657.66,434.73 662.83,432.93 C674.43,428.85 687.24,431.65 698.97,435.32 C703.48,436.73 708.04,438.32 712.77,438.26 C717.5,438.2 722.5,436.34 724.91,432.26 C726.159225,430.040428 726.650729,427.474078 726.31,424.95 C726.153987,426.469635 725.676778,427.938758 724.91,429.26 L724.91,429.26 Z" opacity=".1"/>
    <path fill="#6C63FF" fill-rule="nonzero" d="M1087.42,971.21 C1087.42,971.21 1093.35,978.96 1084.68,990.67 C1076.01,1002.38 1068.87,1012.26 1071.75,1019.56 C1071.75,1019.56 1084.83,997.82 1095.47,997.51 C1106.11,997.2 1099.11,984.28 1087.42,971.21 Z"/>
    <path fill="#000000" fill-rule="nonzero" d="M1087.42,971.21 C1087.9364,971.958598 1088.3438,972.776776 1088.63,973.64 C1099.01,985.84 1104.55,997.23 1094.56,997.51 C1085.26,997.78 1074.11,1014.41 1071.44,1018.6 C1071.5254,1018.93863 1071.62889,1019.27244 1071.75,1019.6 C1071.75,1019.6 1084.83,997.86 1095.47,997.55 C1106.11,997.24 1099.11,984.28 1087.42,971.21 Z" opacity=".1"/>
    <path fill="#FFD037" fill-rule="nonzero" d="M1098.42,981.09 C1098.42,983.82 1098.11,986.03 1097.74,986.03 C1097.37,986.03 1097.05,983.82 1097.05,981.09 C1097.05,978.36 1097.43,979.65 1097.81,979.65 C1098.19,979.65 1098.42,978.36 1098.42,981.09 Z"/>
    <path fill="#FFD037" fill-rule="nonzero" d="M1102.21,984.35 C1099.82,985.65 1097.73,986.44 1097.55,986.11 C1097.37,985.78 1099.16,984.45 1101.55,983.11 C1103.94,981.77 1103,982.75 1103.18,983.11 C1103.36,983.47 1104.61,983.04 1102.21,984.35 Z"/>
    <path fill="#6C63FF" fill-rule="nonzero" d="M1056.08,971.21 C1056.08,971.21 1050.15,978.96 1058.82,990.67 C1067.49,1002.38 1074.63,1012.26 1071.74,1019.56 C1071.74,1019.56 1058.67,997.82 1048.02,997.51 C1037.37,997.2 1044.42,984.28 1056.08,971.21 Z"/>
    <path fill="#000000" fill-rule="nonzero" d="M1056.08,971.21 C1055.5636,971.958598 1055.1562,972.776776 1054.87,973.64 C1044.49,985.84 1038.95,997.23 1048.94,997.51 C1058.23,997.78 1069.39,1014.41 1072.06,1018.6 C1071.97615,1018.94021 1071.86924,1019.27431 1071.74,1019.6 C1071.74,1019.6 1058.67,997.86 1048.02,997.55 C1037.37,997.24 1044.42,984.28 1056.08,971.21 Z" opacity=".1"/>
    <path fill="#FFD037" fill-rule="nonzero" d="M1045.06,981.09 C1045.06,983.82 1045.36,986.03 1045.74,986.03 C1046.12,986.03 1046.43,983.82 1046.43,981.09 C1046.43,978.36 1046.04,979.65 1045.67,979.65 C1045.3,979.65 1045.06,978.36 1045.06,981.09 Z"/>
    <path fill="#FFD037" fill-rule="nonzero" d="M1041.28,984.35 C1043.67,985.65 1045.76,986.44 1045.94,986.11 C1046.12,985.78 1044.33,984.45 1041.94,983.11 C1039.55,981.77 1040.49,982.75 1040.31,983.11 C1040.13,983.47 1038.88,983.04 1041.28,984.35 Z"/>
    <ellipse cx="1071.75" cy="1069.37" fill="#6C63FF" fill-rule="nonzero" opacity=".1" rx="62" ry="9.51"/>
    <path fill="#65617D" fill-rule="nonzero" d="M1103.66,1009.11 L1103.36,1011.53 L1102.94,1014.95 L1102.77,1016.38 L1102.35,1019.8 L1102.17,1021.23 L1101.76,1024.64 L1097.01,1063.54 C1096.59,1067.01 1090.92,1069.72 1084.07,1069.72 L1059.42,1069.72 C1052.57,1069.72 1046.91,1067.01 1046.48,1063.54 L1041.73,1024.64 L1041.31,1021.23 L1041.14,1019.8 L1040.72,1016.38 L1040.54,1014.95 L1040.13,1011.53 L1039.83,1009.11 C1039.6,1007.11 1042.66,1005.49 1046.54,1005.49 L1096.96,1005.49 C1100.83,1005.49 1103.9,1007.14 1103.66,1009.11 Z"/>
    <polygon fill="#9D9CB5" fill-rule="nonzero" points="1103.36 1011.53 1102.95 1014.95 1040.55 1014.95 1040.13 1011.53"/>
    <polygon fill="#9D9CB5" fill-rule="nonzero" points="1102.77 1016.38 1102.36 1019.8 1041.14 1019.8 1040.72 1016.38"/>
    <polygon fill="#9D9CB5" fill-rule="nonzero" points="1102.18 1021.23 1101.76 1024.65 1041.73 1024.65 1041.32 1021.23"/>
  </g>
</svg>
