<svg xmlns="http://www.w3.org/2000/svg" width="1300" height="1000" viewBox="0 0 1300 1000">
  <defs>
    <linearGradient id="a" x1="50.004%" x2="50.004%" y1="100.01%" y2=".014%">
      <stop stop-color="#808080" stop-opacity=".25" offset="0%"/>
      <stop stop-color="#808080" stop-opacity=".12" offset="54%"/>
      <stop stop-color="#808080" stop-opacity=".1" offset="100%"/>
    </linearGradient>
    <linearGradient id="b" x1="49.993%" x2="49.993%" y1="99.996%" y2=".01%">
      <stop stop-color="#808080" stop-opacity=".25" offset="0%"/>
      <stop stop-color="#808080" stop-opacity=".12" offset="54%"/>
      <stop stop-color="#808080" stop-opacity=".1" offset="100%"/>
    </linearGradient>
  </defs>
  <g fill="none" fill-rule="evenodd">
    <rect width="1300" height="1000" fill="#FFFFFF"/>
    <g fill-rule="nonzero" opacity=".2" transform="translate(287 230)">
      <path fill="#3F3D56" d="M196.55,573.42 C197.093294,575.647941 197.815642,577.828363 198.71,579.94 C212.61,574.48 226.663333,569.246667 240.87,564.24 C240.75,563.65 240.63,563.03 240.48,562.42 C239.048799,556.128944 235.994004,550.322764 231.62,545.58 C225.94,539.58 218.62,536.68 211.5,538.45 C204.38,540.22 199.21,546.28 196.85,554.25 C195.085565,560.505319 194.982166,567.112533 196.55,573.42 Z"/>
      <ellipse cx="209.919" cy="531.929" fill="#3F3D56" transform="rotate(-12.59 209.92 531.93)" rx="22.64" ry="30.29"/>
      <ellipse cx="201.356" cy="495.913" fill="#3F3D56" transform="rotate(-12.59 201.356 495.913)" rx="22.64" ry="30.29"/>
      <ellipse cx="192.775" cy="459.919" fill="#3F3D56" transform="rotate(-12.59 192.775 459.919)" rx="22.64" ry="30.29"/>
      <ellipse cx="184.195" cy="423.915" fill="#3F3D56" transform="rotate(-12.59 184.195 423.915)" rx="22.64" ry="30.29"/>
      <path fill="#2FB8BE" d="M207.74,156.94 C209.820541,152.272766 211.578011,147.468123 213,142.56 L153,147.28 L215.54,132.15 C218.528205,116.422622 218.149897,100.240554 214.43,84.67 C211.168507,70.8856968 205.321824,57.8451853 197.2,46.24 L124,111.69 L187.37,34.22 C161.5,6.6 122.37,-6.54 83.48,3.22 C25.37,17.75 -10.24,77.79 3.94,137.32 C9.57657089,161.365311 23.0892706,182.836389 42.33,198.32 C39.097529,205.587987 36.6406064,213.176626 35,220.96 L119.42,242.1 L33,234.61 C31.9663522,246.676126 32.8711351,258.829927 35.68,270.61 C41.3263966,294.653671 54.8413619,316.122757 74.08,331.61 C63.9695395,354.311745 61.6354534,379.716021 67.44,403.88 C81.62,463.41 140.22,499.88 198.33,485.36 C256.44,470.84 292.05,410.8 277.87,351.27 C272.223603,327.226329 258.708638,305.757243 239.47,290.27 C249.580461,267.568255 251.914547,242.163979 246.11,218 C240.488876,193.93653 226.982783,172.443643 207.74,156.94 L207.74,156.94 Z"/>
      <path fill="#000000" d="M35.7,270.57 C41.3463966,294.613671 54.8613619,316.082757 74.1,331.57 C63.9895395,354.271745 61.6554534,379.676021 67.46,403.84 C81.64,463.37 140.24,499.84 198.35,485.32 C256.46,470.8 292.07,410.76 277.89,351.23 C272.243603,327.186329 258.728638,305.717243 239.49,290.23 C249.23,268.37 32.82,258.5 35.7,270.57 Z" opacity=".1"/>
    </g>
    <g fill-rule="nonzero" opacity=".2" transform="translate(683 137)">
      <path fill="#3F3D56" d="M70.24,655.43 C69.8758098,658.033238 69.731966,660.662569 69.81,663.29 C87.2433333,663.57 104.743333,664.156667 122.31,665.05 C122.43,664.36 122.55,663.66 122.65,662.95 C123.782373,655.61772 122.936581,648.116066 120.2,641.22 C116.58,632.4 109.83,626.09 101.38,624.87 C92.93,623.65 84.69,627.81 78.74,635.23 C74.1580263,641.086045 71.2235411,648.059763 70.24,655.43 L70.24,655.43 Z"/>
      <ellipse cx="102.506" cy="617.287" fill="#3F3D56" transform="rotate(-81.82 102.506 617.287)" rx="34.66" ry="26.48"/>
      <ellipse cx="108.531" cy="575.352" fill="#3F3D56" transform="rotate(-81.82 108.531 575.352)" rx="34.66" ry="26.48"/>
      <ellipse cx="114.554" cy="533.428" fill="#3F3D56" transform="rotate(-81.82 114.554 533.428)" rx="34.66" ry="26.48"/>
      <ellipse cx="120.589" cy="491.495" fill="#3F3D56" transform="rotate(-81.82 120.589 491.495)" rx="34.66" ry="26.48"/>
      <path fill="#2FB8BE" d="M259.9,218.62 C264.139294,214.568543 268.088999,210.224536 271.72,205.62 L204.49,184.5 L278.88,195.75 C297.828864,166.407723 303.865025,130.559651 295.57,96.63 L188.21,134.07 L290.09,79.57 C272.403183,35.525738 231.604718,5.04270477 184.353323,0.567647808 C137.101927,-3.90740916 91.3062303,18.374516 65.6654045,58.3153294 C40.0245787,98.2561429 38.8302178,149.170812 62.57,190.27 C55.983659,196.563507 50.093134,203.546981 45,211.1 L127.71,270.38 L37,224.7 C17.6137906,262.932714 18.8399554,308.368515 40.26,345.5 C-7.61490108,391.144063 -12.3679996,465.918606 29.3421277,517.257206 C71.0522549,568.595807 145.215703,579.254477 199.695647,541.740183 C254.175592,504.225889 270.672908,431.139209 237.59,373.86 C279.960858,333.462547 289.179753,269.314574 259.9,218.62 Z"/>
      <path fill="#000000" d="M24.55,264.02 C20.4611198,292.174182 25.9966568,320.884274 40.26,345.5 C-7.61490108,391.144063 -12.3679996,465.918606 29.3421277,517.257206 C71.0522549,568.595807 145.215703,579.254477 199.695647,541.740183 C254.175592,504.225889 270.672908,431.139209 237.59,373.86 C257.49,354.91 26.58,249.93 24.55,264.02 Z" opacity=".1"/>
    </g>
    <ellipse cx="650" cy="831" fill="#2FB8BE" fill-rule="nonzero" opacity=".1" rx="541" ry="31"/>
    <ellipse cx="1003.7" cy="813.64" fill="#2FB8BE" fill-rule="nonzero" rx="25.3" ry="4.87"/>
    <ellipse cx="1003.28" cy="811.58" fill="#3F3D56" fill-rule="nonzero" rx="2.95" ry="3.86"/>
    <ellipse cx="1003.28" cy="806.86" fill="#3F3D56" fill-rule="nonzero" rx="2.95" ry="3.86"/>
    <ellipse cx="1003.28" cy="802.15" fill="#3F3D56" fill-rule="nonzero" rx="2.95" ry="3.86"/>
    <ellipse cx="1003.28" cy="797.44" fill="#3F3D56" fill-rule="nonzero" rx="2.95" ry="3.86"/>
    <ellipse cx="1003.28" cy="792.72" fill="#3F3D56" fill-rule="nonzero" rx="2.95" ry="3.86"/>
    <ellipse cx="1003.28" cy="788.01" fill="#3F3D56" fill-rule="nonzero" rx="2.95" ry="3.86"/>
    <ellipse cx="1003.28" cy="783.3" fill="#3F3D56" fill-rule="nonzero" rx="2.95" ry="3.86"/>
    <path fill="#2FB8BE" fill-rule="nonzero" d="M1014.3,751.05 C1014.70517,750.537174 1015.07279,749.995767 1015.4,749.43 L1007.66,748.16 L1016.03,748.22 C1017.65014,744.688228 1017.74777,740.645862 1016.3,737.04 L1005.07,742.87 L1015.43,735.25 C1012.79512,730.653255 1007.80863,727.91845 1002.51612,728.167482 C997.223619,728.416515 992.515953,731.607468 990.324353,736.431317 C988.132753,741.255166 988.826114,746.899946 992.12,751.05 C991.494553,751.847738 990.954907,752.709161 990.51,753.62 L1000.51,758.84 L989.8,755.24 C988.275384,759.767488 989.148732,764.759122 992.12,768.5 C987.569798,774.284402 988.229686,782.594603 993.635753,787.588407 C999.04182,792.582212 1007.37818,792.582212 1012.78425,787.588407 C1018.19031,782.594603 1018.8502,774.284402 1014.3,768.5 C1018.32635,763.383837 1018.32635,756.176163 1014.3,751.06 L1014.3,751.05 Z"/>
    <path fill="#000000" fill-rule="nonzero" d="M989.1,759.77 C989.090468,762.931404 990.147427,766.003632 992.1,768.49 C987.549798,774.274402 988.209686,782.584603 993.615753,787.578407 C999.02182,792.572212 1007.35818,792.572212 1012.76425,787.578407 C1018.17031,782.584603 1018.8302,774.274402 1014.28,768.49 C1016.19,766.09 989.1,758.19 989.1,759.77 Z" opacity=".1"/>
    <ellipse cx="422.7" cy="851.18" fill="#2FB8BE" fill-rule="nonzero" rx="33.8" ry="6.5"/>
    <ellipse cx="422.13" cy="848.42" fill="#3F3D56" fill-rule="nonzero" rx="3.94" ry="5.15"/>
    <ellipse cx="422.13" cy="842.12" fill="#3F3D56" fill-rule="nonzero" rx="3.94" ry="5.15"/>
    <ellipse cx="422.13" cy="835.82" fill="#3F3D56" fill-rule="nonzero" rx="3.94" ry="5.15"/>
    <ellipse cx="422.13" cy="829.53" fill="#3F3D56" fill-rule="nonzero" rx="3.94" ry="5.15"/>
    <ellipse cx="422.13" cy="823.23" fill="#3F3D56" fill-rule="nonzero" rx="3.94" ry="5.15"/>
    <ellipse cx="422.13" cy="816.93" fill="#3F3D56" fill-rule="nonzero" rx="3.94" ry="5.15"/>
    <ellipse cx="422.13" cy="810.64" fill="#3F3D56" fill-rule="nonzero" rx="3.94" ry="5.15"/>
    <path fill="#2FB8BE" fill-rule="nonzero" d="M436.87,767.55 C437.403266,766.862621 437.890975,766.141079 438.33,765.39 L428,763.69 L439.18,763.78 C441.354453,759.062575 441.484716,753.656682 439.54,748.84 L424.54,756.62 L438.37,746.5 C434.822141,740.423508 428.185219,736.828918 421.157454,737.1776 C414.129689,737.526282 407.881177,741.76018 404.95223,748.158018 C402.023283,754.555857 402.90156,762.052418 407.23,767.6 C406.39442,768.667914 405.67377,769.820955 405.08,771.04 L418.51,778.04 L404.19,773.24 C402.143391,779.268571 403.271179,785.922519 407.19,790.94 C401.115391,798.668451 401.999622,809.767543 409.221246,816.436724 C416.442871,823.105905 427.577129,823.105905 434.798754,816.436724 C442.020378,809.767543 442.904609,798.668451 436.83,790.94 C442.202782,784.09879 442.202782,774.47121 436.83,767.63 L436.87,767.55 Z"/>
    <path fill="#000000" fill-rule="nonzero" d="M403.2,779.2 C403.187334,783.425374 404.596198,787.532213 407.2,790.86 C401.125391,798.588451 402.009622,809.687543 409.231246,816.356724 C416.452871,823.025905 427.587129,823.025905 434.808754,816.356724 C442.030378,809.687543 442.914609,798.588451 436.84,790.86 C439.39,787.65 403.2,777.09 403.2,779.2 Z" opacity=".1"/>
    <path fill="url(#a)" fill-rule="nonzero" d="M600.66,564.93 C598.11,551.59 595.26,538.22 594.79,524.65 C594.51,516.65 595.07,508.51 594.04,500.53 C593.53,496.61 592.64,492.76 591.76,488.91 L588.22,473.5 C588.621379,470.545963 588.506334,467.544643 587.88,464.63 C587.525427,463.092983 587.054058,461.585271 586.47,460.12 C589.774509,455.46918 592.498045,450.431814 594.58,445.12 C595.52,442.72 596.33,440.17 595.96,437.63 C595.24,432.76 590.52,429.55 586.13,427.15 C583.47,425.7 580.67,424.3 577.63,424.07 C573.320742,423.8964 569.177798,425.745929 566.43,429.07 C565.691188,425.127603 565.938526,421.063698 567.15,417.24 C564.54,416.07 561.91,414.97 559.26,413.9 C558.877004,410.444097 558.743325,406.965103 558.86,403.49 C558.92,399.32 558.99,395.11 559.23,390.93 C573.794173,385.61469 583.517429,371.803519 583.61,356.3 C583.61,355.87 583.61,355.45 583.61,355.03 C587.524953,347.992238 588.454304,339.67851 586.19,331.95 C583.26,321.95 575.6,313.71 566.37,308.62 C557.14,303.53 546.44,301.38 535.85,301 C532.295929,300.791981 528.729749,301.016966 525.23,301.67 C521.484266,302.591803 517.854603,303.933637 514.41,305.67 C509.12,308.11 503.79,310.78 499.83,314.99 C492.96,322.32 491.42,333.09 492.17,342.99 C493.17,355.99 497.51,368.57 502.53,380.67 C504.2,384.67 505.98,388.73 508.73,392.14 C510.86,394.77 514.56,394.93 517.5,393.09 C517.26657,396.284327 517.193145,399.488334 517.28,402.69 C511.85,402.5 506.56,403.39 502.2,406.45 C500.2,407.88 498.3,410.13 498.74,412.55 C501.497452,412.623307 503.802048,414.670431 504.2,417.4 C504.42,419.53 503.35,421.56 502.31,423.4 C501.86,424.22 501.41,425.05 500.95,425.87 C496.65,430.47 492.24,436.23 491.85,441.94 C491.148374,442.006565 490.45074,442.110042 489.76,442.25 C485.86,442.97 481.98,444.3 478.15,445.3 L450.43,452.6 L443.58,454.5 L432.58,457.4 C425.58,459.24 418.45,461.13 412.24,464.83 C406.03,468.53 400.76,474.34 399.51,481.34 C398.89,484.82 399.27,488.44 398.51,491.89 C398.51,492.05 398.45,492.2 398.41,492.35 C397.774784,494.533882 396.920442,496.647961 395.86,498.66 C389.65,511.75 385.23,526.02 386.06,540.43 C386.57,549.28 389.06,557.91 391.48,566.43 C394.02,575.143333 396.526667,583.856667 399,592.57 C400.630906,598.807829 402.699363,604.922976 405.19,610.87 C409.456728,620.39666 415.785732,628.856962 423.72,635.64 C425.946548,637.637051 428.436402,639.319385 431.12,640.64 C435.211676,642.409241 439.678789,643.134288 444.12,642.75 C445.32,642.67 446.5,642.54 447.67,642.35 C456.26,640.99 464.27,636.85 471.62,632.19 C474.693333,630.243333 477.693333,628.193333 480.62,626.04 C480.99171,629.39935 481.661005,632.719055 482.62,635.96 C483.27,638.19 484.07,640.48 483.81,642.79 C483.45,646.01 481.11,648.65 479.9,651.67 C477.33,658.05 479.97,665.16 480.4,672 C480.81,678.41 479.25,684.77 478,691.08 C475.912491,701.60328 474.678477,712.277997 474.31,723 C474.298814,727.059461 474.031617,731.114175 473.51,735.14 C472.58,740.82 470.4,746.3 470.02,752.04 C469.44,760.98 473.3,769.73 472.95,778.68 C472.54,789.19 466.37,799.4 468.52,809.68 C468.79,810.97 469.52,812.46 470.7,812.79 L470.12,813.32 C468.35,814.96 466.63,817.99 468.64,819.32 C469.102439,819.594854 469.616382,819.771841 470.15,819.84 C473.26,820.49 476.39,821.08 479.52,821.63 C479.451161,824.521223 479.815188,827.406481 480.6,830.19 C481.17,830.6 481.75,830.97 482.33,831.32 C481.89,832.5 481.92,833.64 482.96,834.32 C483.422439,834.594854 483.936382,834.771841 484.47,834.84 C510.229477,840.154891 536.53685,842.337379 562.82,841.34 C567.52,841.16 572.43,840.82 576.44,838.42 C580.45,836.02 583.16,830.91 581.25,826.7 C579.56,822.98 575.14,821.37 571.17,820.13 L566.51,818.69 C567.719695,816.54561 567.874613,813.963649 566.93,811.69 C565.24,807.97 560.82,806.36 556.85,805.12 L546.12,801.79 C544.707777,801.455286 543.379994,800.832249 542.22,799.96 C541.451418,799.195464 540.742669,798.373047 540.1,797.5 C538.55174,795.729869 536.517487,794.453679 534.25,793.83 C534.129348,791.556115 534.179489,789.276382 534.4,787.01 L537.4,750.8 C538.07,742.6 538.73,734.24 536.82,726.23 C536.05,722.98 534.82,719.65 535.57,716.39 C536.74,711.07 542.34,708.11 546.16,704.16 C551.92,698.16 553.71,689.63 555.03,681.51 C560.496115,648.001563 562.213366,613.988586 560.15,580.1 C572.154521,576.715857 584.509698,574.729365 596.97,574.18 C599.09,574.09 600.13,573.09 600.79,571.11 C601.45,569.13 601.05,566.98 600.66,564.93 Z M540.81,566.7 C540.88,566.35 540.96,566 541.02,565.65 L541.85,566.71 L540.81,566.7 Z"/>
    <path fill="#A1616A" fill-rule="nonzero" d="M521.31,383.15 C521.05,386.63 519.82,389.97 519.37,393.44 C518.86,397.26 519.31,401.15 519.06,405 C518.81,408.85 517.7,412.9 514.77,415.41 C531.799706,416.884841 548.573569,420.513802 564.69,426.21 C559.82,420.21 559.69,411.83 559.81,404.13 C559.97,392.74 560.17,381.13 563.89,370.38 C552.794973,367.899973 541.305926,367.750145 530.15,369.94 C527.73,370.42 520.4,370.12 519.31,372.38 C518.52,374.04 521.49,380.63 521.31,383.15 Z"/>
    <path fill="#000000" fill-rule="nonzero" d="M521.31,383.15 C521.05,386.63 519.82,389.97 519.37,393.44 C518.86,397.26 519.31,401.15 519.06,405 C518.81,408.85 517.7,412.9 514.77,415.41 C531.799706,416.884841 548.573569,420.513802 564.69,426.21 C559.82,420.21 559.69,411.83 559.81,404.13 C559.97,392.74 560.17,381.13 563.89,370.38 C552.794973,367.899973 541.305926,367.750145 530.15,369.94 C527.73,370.42 520.4,370.12 519.31,372.38 C518.52,374.04 521.49,380.63 521.31,383.15 Z" opacity=".1"/>
    <path fill="#46455B" fill-rule="nonzero" d="M541.47,797.55 C542.070931,798.436998 542.739594,799.276169 543.47,800.06 C544.596079,800.932922 545.894738,801.556688 547.28,801.89 L557.76,805.22 C561.65,806.46 565.97,808.06 567.62,811.78 C569.48,815.98 566.83,821.09 562.91,823.48 C558.99,825.87 554.19,826.22 549.6,826.4 C523.900352,827.390209 498.176597,825.210458 473.01,819.91 C472.490633,819.834774 471.991145,819.658085 471.54,819.39 C469.54,818.04 471.25,815.02 472.98,813.39 C479.73,806.99 487.07,800.28 496.26,798.8 C501.09,798.01 505.94,798.33 510.74,797.18 C514.19,796.35 517.45,794.92 520.89,794.07 C527.3,792.5 536.89,791.94 541.47,797.55 Z"/>
    <path fill="#000000" fill-rule="nonzero" d="M541.47,797.55 C542.070931,798.436998 542.739594,799.276169 543.47,800.06 C544.596079,800.932922 545.894738,801.556688 547.28,801.89 L557.76,805.22 C561.65,806.46 565.97,808.06 567.62,811.78 C569.48,815.98 566.83,821.09 562.91,823.48 C558.99,825.87 554.19,826.22 549.6,826.4 C523.900352,827.390209 498.176597,825.210458 473.01,819.91 C472.490633,819.834774 471.991145,819.658085 471.54,819.39 C469.54,818.04 471.25,815.02 472.98,813.39 C479.73,806.99 487.07,800.28 496.26,798.8 C501.09,798.01 505.94,798.33 510.74,797.18 C514.19,796.35 517.45,794.92 520.89,794.07 C527.3,792.5 536.89,791.94 541.47,797.55 Z" opacity=".1"/>
    <path fill="#BBBDC8" fill-rule="nonzero" d="M488.85,571.37 C483.678722,585.016494 483.36093,600.026865 487.95,613.88 C484.46,613.5 482.95,618.22 483.04,621.74 C483.164239,626.640449 483.906779,631.505597 485.25,636.22 C485.89,638.46 486.67,640.74 486.42,643.04 C486.06,646.26 483.78,648.9 482.59,651.91 C480.09,658.28 482.66,665.38 483.09,672.21 C483.49,678.62 481.96,684.97 480.73,691.27 C478.69243,701.781928 477.488683,712.438427 477.13,723.14 C477.122801,727.19595 476.85894,731.247379 476.34,735.27 C475.44,740.95 473.34,746.42 472.94,752.15 C472.37,761.07 476.14,769.82 475.8,778.76 C475.4,789.25 469.36,799.45 471.47,809.76 C471.77,811.21 472.58,812.92 474.07,812.94 C489.15,813.13 503.24,808.94 518.16,811.13 C519.68,776.61 521.16,741.93 527.96,708.04 C533.96,677.87 544.13,648.04 543.18,617.28 C542.63,599.69 538.45,582.44 535.91,565.02 C519.967032,561.480039 503.284555,563.731075 488.85,571.37 Z"/>
    <path fill="#000000" fill-rule="nonzero" d="M488.85,571.37 C483.678722,585.016494 483.36093,600.026865 487.95,613.88 C484.46,613.5 482.95,618.22 483.04,621.74 C483.164239,626.640449 483.906779,631.505597 485.25,636.22 C485.89,638.46 486.67,640.74 486.42,643.04 C486.06,646.26 483.78,648.9 482.59,651.91 C480.09,658.28 482.66,665.38 483.09,672.21 C483.49,678.62 481.96,684.97 480.73,691.27 C478.69243,701.781928 477.488683,712.438427 477.13,723.14 C477.122801,727.19595 476.85894,731.247379 476.34,735.27 C475.44,740.95 473.34,746.42 472.94,752.15 C472.37,761.07 476.14,769.82 475.8,778.76 C475.4,789.25 469.36,799.45 471.47,809.76 C471.77,811.21 472.58,812.92 474.07,812.94 C489.15,813.13 503.24,808.94 518.16,811.13 C519.68,776.61 521.16,741.93 527.96,708.04 C533.96,677.87 544.13,648.04 543.18,617.28 C542.63,599.69 538.45,582.44 535.91,565.02 C519.967032,561.480039 503.284555,563.731075 488.85,571.37 Z" opacity=".1"/>
    <path fill="#46455B" fill-rule="nonzero" d="M555.47,812.55 C556.070931,813.436998 556.739594,814.276169 557.47,815.06 C558.596079,815.932922 559.894738,816.556688 561.28,816.89 L571.76,820.22 C575.65,821.46 579.97,823.06 581.62,826.78 C583.48,830.98 580.83,836.09 576.91,838.48 C572.99,840.87 568.19,841.22 563.6,841.4 C537.900352,842.390209 512.176597,840.210458 487.01,834.91 C486.490633,834.834774 485.991145,834.658085 485.54,834.39 C483.54,833.04 485.25,830.02 486.98,828.39 C493.73,821.99 501.07,815.28 510.26,813.8 C515.09,813.01 519.94,813.33 524.74,812.18 C528.19,811.35 531.45,809.92 534.89,809.07 C541.3,807.5 550.89,806.94 555.47,812.55 Z"/>
    <path fill="#BBBDC8" fill-rule="nonzero" d="M494.05,572.36 C490.19,577.36 489.05,583.96 489.57,590.22 C490.09,596.48 492.2,602.49 494.27,608.42 C491.52,610.95 492.09,615.31 492.45,619.03 C493.76,632.85 488.96,646.64 489.66,660.5 C489.95,666.33 491.22,672.08 491.52,677.91 C491.85,684.28 491.04,690.65 490.28,696.98 C485.425279,737.503705 482.754751,778.259296 482.28,819.07 C482.28,822.83 482.22,826.65 483.28,830.25 C490.55,835.6 499.68,836.32 508.48,834.32 C517.28,832.32 525.31,827.86 533.2,823.46 C537.522537,821.222926 541.6212,818.577547 545.44,815.56 C546.608229,814.733342 547.472538,813.545795 547.9,812.18 C548.74,808.18 543.18,806.37 539.99,803.78 C535.35,800.01 535.42,793.03 535.9,787.07 L538.8,750.91 C539.46,742.72 540.1,734.37 538.24,726.37 C537.48,723.13 536.31,719.8 537.01,716.54 C538.15,711.24 543.63,708.28 547.36,704.33 C553,698.33 554.74,689.82 556.04,681.72 C562.166779,643.29261 563.4702,604.250455 559.92,565.5 C552.57,568.05 543.86,566.66 536.11,567.26 C528.36,567.86 520.66,570.45 512.81,570.66 C506.27,570.81 498.07,567.2 494.05,572.36 Z"/>
    <circle cx="547" cy="357" r="37" fill="#A1616A" fill-rule="nonzero"/>
    <path fill="#46455B" fill-rule="nonzero" d="M567.91,417.86 C556.05374,412.414412 543.690988,408.147236 531,405.12 C522.06,402.99 511.85,401.71 504.38,407.06 C502.38,408.49 500.57,410.74 501,413.16 C503.722377,413.249936 505.978755,415.298879 506.33,418 C506.55,420.12 505.51,422.15 504.49,424 L495.86,440 C494.206447,442.882309 492.785279,445.89184 491.61,449 C489.87,454.08 489.49,459.52 489.12,464.88 L488.12,479.4 C487.5,488.55 486.87,497.74 487.7,506.87 C488.32,513.76 489.76,520.68 488.78,527.53 C487.99,533.04 485.66,538.21 484.35,543.63 C481.89,553.83 483.01,565.01 478.24,574.37 C480.177199,573.475778 482.363769,573.277962 484.43,573.81 C498.91,576.48 510.3,587.91 524.36,592.28 C527.91,587.1 532.72,583.28 536.69,578.46 C539.642511,574.84678 541.597352,570.523374 542.36,565.92 C545.36,569.92 547.91,573.04 549.7,577.68 C550.018527,578.759491 550.564039,579.758459 551.3,580.61 C553.19,582.45 556.3,581.74 558.83,580.97 C571.23342,577.228656 584.056494,575.055083 597,574.5 C599.08,574.41 600.09,573.41 600.74,571.43 C601.39,569.45 601.03,567.31 600.64,565.27 C598.15,551.94 595.37,538.59 594.91,525.04 C594.63,517.04 595.18,508.93 594.17,500.95 C593.67,497.04 592.8,493.19 591.94,489.35 L584.8,457.62 C584.4,455.85 582.5,454.69 581.69,453.06 C578.41,446.42 572.14,441.62 568.9,434.96 C566.452598,429.582036 566.099581,423.484469 567.91,417.86 L567.91,417.86 Z"/>
    <path fill="#3F3D56" fill-rule="nonzero" d="M516,371.81 C515.95672,371.29203 516.079294,370.773717 516.35,370.33 C516.745607,369.914596 517.241536,369.608085 517.79,369.44 C520.853505,367.985276 522.580195,364.674767 522.02,361.33 L525.52,360.6 L525.63,348.41 C530.83,345.53 537.92,347.71 542.81,344.32 C545.56,342.4 546.97,339.14 548.65,336.24 C550.33,333.34 552.83,330.42 556.17,330.18 C553.844759,336.094685 554.266055,342.736521 557.32,348.31 C560.821724,346.537785 563.745912,343.804381 565.75,340.43 L567.49,350.43 C567.525131,351.046514 567.789003,351.627744 568.23,352.06 C569.14,352.73 570.37,351.89 571.17,351.06 L575.7,346.61 C577.606489,351.39368 578.913104,356.39509 579.59,361.5 C587.03,354.28 589.34,342.68 586.48,332.72 C583.62,322.76 576.13,314.51 567.11,309.42 C558.09,304.33 547.63,302.19 537.28,301.81 C533.805616,301.606677 530.319414,301.831701 526.9,302.48 C523.2315,303.402847 519.681455,304.745019 516.32,306.48 C511.15,308.91 505.93,311.58 502.07,315.78 C495.35,323.1 493.84,333.86 494.58,343.78 C495.58,356.78 499.8,369.33 504.71,381.41 C506.34,385.41 508.08,389.46 510.77,392.87 C514.82,398 524.77,393.74 523.5,383.6 C522.62,376.36 516,379.15 516,371.81 Z"/>
    <path fill="#2FB8BE" fill-rule="nonzero" d="M530,569.9 C517.520361,595.398875 498.35628,617.034068 474.55,632.5 C467.36,637.15 459.55,641.29 451.14,642.65 C449.99,642.84 448.84,642.97 447.67,643.05 C443.333111,643.409124 438.975645,642.669696 435,640.9 C432.367953,639.574652 429.931594,637.892084 427.76,635.9 C419.978068,629.088854 413.794476,620.644888 409.65,611.17 C407.213959,605.223563 405.192461,599.115631 403.6,592.89 C401.146667,584.183333 398.7,575.473333 396.26,566.76 C393.87,558.24 391.46,549.62 390.96,540.76 C390.15,526.37 394.47,512.12 400.54,499.05 C401.575253,497.037038 402.409296,494.926808 403.03,492.75 C403.03,492.6 403.1,492.45 403.13,492.29 C403.85,488.84 403.48,485.23 404.13,481.75 C405.35,474.75 410.51,468.95 416.57,465.26 C422.63,461.57 429.57,459.68 436.46,457.84 L447.19,454.95 L453.85,453.16 L480.94,445.87 C484.69,444.87 488.48,443.54 492.29,442.87 C496.54,442.07 496.51,442.49 496.84,446.65 C497.45,454.19 497.25,461.6 498.84,469.07 C500.35,476.2 503.01,483.07 505.01,490.07 C510.06,507.74 510.9,526.34 514.88,544.29 C515.79,548.38 517.05,552.74 520.34,555.29 C524.11,558.29 530.46,559.03 531.46,563.73 C531.83,565.82 530.9,567.96 530,569.9 Z"/>
    <path fill="#000000" fill-rule="nonzero" d="M451.14 642.61C449.99 642.8 448.84 642.93 447.67 643.01 443.336494 643.381667 438.979171 642.65602 435 640.9 432.367953 639.574652 429.931594 637.892084 427.76 635.9 419.978068 629.088854 413.794476 620.644888 409.65 611.17 407.213959 605.223563 405.192461 599.115631 403.6 592.89 401.146667 584.183333 398.7 575.473333 396.26 566.76 393.87 558.24 391.46 549.62 390.96 540.76 390.15 526.37 394.47 512.12 400.54 499.05 401.575253 497.037038 402.409296 494.926808 403.03 492.75 403.03 492.6 403.1 492.45 403.13 492.29 419.45 495.16 439.03 526.38 449.13 567.29 456.57 597.88 456.89 626.05 451.14 642.61zM480.64 534.97L477.91 535.44C475.1 528.06 472.3 520.67 469.01 513.49 467.3 509.74 465.45 506.04 464.01 502.17 458.61 487.31 459.53 469.68 449.52 457.44 448.805496 456.530867 447.990298 455.705605 447.09 454.98L453.75 453.19C459.582081 462.411033 463.69518 472.612466 465.89 483.3 466.97 488.52 467.58 493.86 469.34 498.88 470.83703 502.687753 472.549806 506.407115 474.47 510.02 478.27 517.81 481.13 526.32 480.64 534.97z" opacity=".1"/>
    <path fill="#2FB8BE" fill-rule="nonzero" d="M507.22,422.3 C514.41,416.14 524.22,412.76 533.53,414.3 C539.01,415.19 544.1,417.66 549.01,420.3 C558.58,425.38 568.01,431.23 574.91,439.58 C579.047475,444.846334 582.482918,450.628096 585.13,456.78 C586.428116,459.467882 587.433881,462.287375 588.13,465.19 C590.57,476.49 584.58,487.72 578.81,497.74 L567.71,517 C562.61,525.85 557.47,534.76 550.83,542.53 C547.77,546.11 544.41,549.42 541.06,552.73 L526.35,567.25 C526.085433,567.561953 525.739137,567.793972 525.35,567.92 C524.700068,567.954721 524.067638,567.70248 523.62,567.23 L518.76,563.36 C523.236427,560.267262 527.396602,556.740157 531.18,552.83 C537.54,546.25 542.77,538.68 547.97,531.14 L564.15,507.68 C568.88,500.81 573.82,493.25 573.29,484.93 C573.04,480.93 571.54,477.17 569.97,473.5 C567.19,466.973333 564.17,460.55 560.91,454.23 C557.25,447.14 553.25,440.14 547.98,434.15 C542.71,428.16 536.05,423.15 528.38,420.98 C526.092418,420.232616 523.667856,420.000405 521.28,420.3 C516.02,421.17 512.28,425.69 508.95,429.89 L498.81,442.89 C496.5,445.84 494.38,449.26 494.24,443.66 C494,435.67 502.08,427.44 507.22,422.3 Z"/>
    <path fill="#A1616A" fill-rule="nonzero" d="M510.36,510 C512.36,517.7 515.31,526.44 522.72,529.36 C527.97,531.43 534.12,529.75 538.66,526.36 C543.2,522.97 546.42,518.19 549.38,513.36 C551.885351,509.019575 554.646903,504.832167 557.65,500.82 C563.58,493.38 571.65,487.48 575.65,478.82 C576.83,476.24 577.65,473.48 578.99,471 C580.421974,468.71343 582.040839,466.549369 583.83,464.53 C588.434206,458.825675 592.115575,452.434737 594.74,445.59 C595.66,443.2 596.45,440.64 596.09,438.11 C595.38,433.24 590.77,430.04 586.48,427.65 C583.87,426.2 581.14,424.79 578.17,424.57 C573.83,424.23 569.56,426.57 566.89,430 C564.319651,433.547764 562.883344,437.790448 562.77,442.17 C562.47,447.5 563.51,453.04 561.77,458.08 C560.849791,460.431241 559.578703,462.629514 558,464.6 C552.382853,472.115092 545.430344,478.532011 537.49,483.53 C537.272279,479.747426 536.451951,476.023882 535.06,472.5 C534.3,470.56 519.4,472.5 517.46,472.82 C513.62,473.38 506.18,473.82 503.76,477.48 C501.34,481.14 504.34,487.29 505.32,490.98 L510.36,510 Z"/>
    <path fill="#46455B" fill-rule="nonzero" d="M510,425.97 C507.786501,427.798692 505.726298,429.805383 503.84,431.97 C499.4,437.32 497.23,444.28 496.67,451.21 C496.11,458.14 497.06,465.1 498.25,471.95 C499.33,478.096667 500.606667,484.2 502.08,490.26 C502.49,485.69 506.19,481.91 510.48,480.26 C514.77,478.61 519.48,478.79 524.05,479.46 C529.931934,480.331239 535.670012,481.989429 541.11,484.39 L543.22,454.82 C543.664183,450.830929 543.640691,446.803617 543.15,442.82 C541.805682,435.342027 537.310513,428.803269 530.81,424.87 C522.79,419.99 517.2,419.68 510,425.97 Z"/>
    <path fill="url(#b)" fill-rule="nonzero" d="M887.78,569.86 C886.830978,561.835312 884.496329,554.036232 880.88,546.81 C878.67,542.41 875.98,538.2 874.59,533.49 C873.46,529.66 873.24,525.63 872.34,521.74 C871.44,517.85 869.85,514.13 868.57,510.33 C859.52,483.33 866.32,453.79 863.4,425.49 C862.31,415.05 859.11,403.6 850.06,398.16 C844.68,394.93 838.22,394.43 831.89,394.16 L829,394.03 L824.36,393.8 C817.64,393.47 810.9,393.22 804.36,394.63 C796.36,396.38 786.88,402.01 784.36,410.18 C782.98,409.47 781.59,408.84 780.31,408.25 C775.158771,405.964852 769.759124,404.286901 764.22,403.25 C768.971454,402.053137 773.558803,400.27999 777.88,397.97 C787.88,392.15 790.2,375.15 792.24,363.78 C794.28,352.41 792.42,340.66 789.03,329.61 C787.910296,325.688987 786.385409,321.895204 784.48,318.29 C779.15899,308.690644 770.083018,301.738764 759.429035,299.101827 C748.775052,296.46489 737.50424,298.380797 728.32,304.39 C718.99,310.5 710.32,319.39 703.2,327.98 C702.2,329.16 698.02,333.34 699.41,335.1 C700.19,336.1 702.76,335.3 705.46,334.1 C703.382864,338.792429 702.313164,343.868398 702.32,349 C702.332037,362.113092 709.261829,374.24688 720.55,380.92 L721.55,390.12 L721.55,390.19 C721.66,393.26 721.71,396.33 721.75,399.39 C721.75,401.54 721.75,403.74 721.69,405.94 C717.54057,410.63499 712.459528,414.415122 706.77,417.04 C711.47,417.82 715.95,416.72 720.31,414.84 C719.601244,417.296301 718.411548,419.587315 716.81,421.58 C718.01,421.16 719.21,420.78 720.41,420.38 C719.782828,421.387618 719.224875,422.436702 718.74,423.52 C718.000159,425.232307 717.459935,427.024107 717.13,428.86 C714.583732,432.580612 712.378135,436.523242 710.54,440.64 L710.54,440.64 C709.7,442.51 708.95,444.41 708.27,446.34 L708.27,446.47 C707.603333,448.39 707.013333,450.336667 706.5,452.31 L706.5,452.31 C706.26,453.256667 706.04,454.206667 705.84,455.16 C705.84,455.23 705.84,455.3 705.84,455.37 C705.44,457.3 705.11,459.24 704.84,461.2 C704.84,461.33 704.84,461.46 704.84,461.6 C704.73,462.51 704.63,463.43 704.56,464.35 C704.56,464.35 704.56,464.44 704.56,464.49 C704.48,465.49 704.42,466.44 704.39,467.42 C704.39,467.55 704.39,467.67 704.39,467.8 C704.39,468.63 704.39,469.47 704.39,470.3 L704.39,470.87 C704.39,472.75 704.51,474.64 704.69,476.53 C704.69,476.76 704.69,477 704.76,477.23 C704.84,478 704.93,478.77 705.04,479.55 C705.04,479.73 705.04,479.91 705.11,480.08 C705.24,481.01 705.39,481.93 705.56,482.85 C705.56,483.05 705.65,483.26 705.69,483.46 C705.83,484.2 705.98,484.93 706.15,485.67 L706.33,486.43 C706.55,487.35 706.78,488.26 707.04,489.18 C707.19,489.7 707.34,490.18 707.5,490.73 C707.977465,492.625554 708.31174,494.554324 708.5,496.5 L703.03,496.68 C691.323333,497.013333 679.626667,497.543333 667.94,498.27 C666.48,492.64 661.5,489.39 655.23,488.62 C654.234497,488.500084 653.232699,488.439976 652.23,488.44 L652.23,488.44 C653.311532,487.52899 654.272601,486.483911 655.09,485.33 C656.177986,483.833314 656.953402,482.13284 657.37,480.33 C655.758403,481.247135 654.34992,482.482109 653.23,483.96 C652.86,484.46 652.53,484.96 652.23,485.42 L652.23,482.42 C652.232756,482.291871 652.183071,482.168173 652.092449,482.077551 C652.001827,481.986929 651.878129,481.937244 651.75,481.94 L650.75,481.94 C650.621871,481.937244 650.498173,481.986929 650.407551,482.077551 C650.316929,482.168173 650.267244,482.291871 650.27,482.42 L650.27,488.53 L650.07,488.53 L649.73,488.53 C649.07,488.59 648.43,488.67 647.8,488.79 C640.99,490.06 636,494.43 636,501.79 C636.003826,506.480427 638.065585,510.932949 641.64,513.97 C641.933338,516.262248 642.452529,518.519889 643.19,520.71 C643.88,522.88 644.78,525.24 646.8,526.32 C648.034252,526.879998 649.387463,527.127285 650.74,527.04 C661.86,527.04 672.38,521.91 683.45,521.04 C690.29,520.49 697.16,521.55 704.02,521.34 C705.02,521.34 706.02,521.24 707.02,521.16 C697.64,567.61 686.29,614.65 692.22,661.57 C692.61,664.69 693.22,668.07 695.55,670.19 C698.64,673.01 703.4,672.55 707.55,672.19 C718.938408,671.151328 730.420572,672.067872 741.5,674.9 C743.057978,675.330583 744.69537,675.388817 746.28,675.07 C746.61873,674.99302 746.95264,674.896186 747.28,674.78 L747.56,674.67 C747.77,674.59 747.97,674.51 748.16,674.42 L748.45,674.27 L748.94,673.97 C749.02,673.91 749.11,673.86 749.18,673.8 C749.353948,673.680225 749.517825,673.546447 749.67,673.4 L749.81,673.28 C749.997193,673.096555 750.174128,672.902928 750.34,672.7 L750.46,672.52 C750.575729,672.369699 750.682578,672.212765 750.78,672.05 C750.83,671.97 750.88,671.89 750.92,671.81 C750.96,671.73 751.08,671.51 751.15,671.36 C751.22,671.21 751.23,671.18 751.26,671.09 C751.29,671 751.39,670.76 751.45,670.59 C751.51,670.42 751.45,670.43 751.53,670.34 C751.61,670.25 751.67,669.84 751.72,669.59 L751.72,669.43 C751.72,669.22 751.8,669 751.83,668.79 C751.86,668.58 751.83,668.57 751.83,668.46 C751.83,668.35 751.83,668.13 751.83,667.97 L751.83,667.61 C751.83,667.45 751.83,667.29 751.83,667.13 L751.83,666.24 C751.83,666.14 751.83,666.03 751.83,665.92 L751.83,665.92 C751.83,665.03 751.73,664.13 751.64,663.27 C752.354714,663.477721 753.083188,663.634777 753.82,663.74 L753.82,663.74 C754.507787,663.849226 755.203658,663.899409 755.9,663.89 L756,663.89 C756.33,663.89 756.66,663.89 757,663.81 L757,663.81 C757.289677,663.765412 757.576756,663.705326 757.86,663.63 L757.99,663.63 C758.251696,663.552642 758.506024,663.452249 758.75,663.33 L758.87,663.26 C759.077987,663.144178 759.27541,663.010332 759.46,662.86 L759.55,662.79 C759.737495,662.615649 759.905177,662.421138 760.05,662.21 L760.14,662.06 C760.288262,661.818902 760.405838,661.560234 760.49,661.29 C761.06,659.36 759.76,657.18 761.84,655.41 C763.84,661.82 765.84,668.24 766.17,674.87 C766.28,677.29 766.17,679.87 767.59,681.87 C768.514128,682.961714 769.516798,683.984437 770.59,684.93 C773.65,688.24 773.72,693.23 773.51,697.71 C773.42,699.52 773.32,701.33 773.19,703.14 C771.537858,727.293597 766.626681,751.112802 758.59,773.95 C757.806722,776.379818 756.781586,778.7249 755.53,780.95 C753.500483,784.099548 750.962726,786.890742 748.02,789.21 C743.850684,792.750711 739.384181,795.925776 734.67,798.7 C732.261962,799.973192 729.987308,801.484046 727.88,803.21 C727.8,802.98 727.71,802.76 727.65,802.52 C727.54,802.06 727.39,801.52 726.94,801.35 C726.598499,801.272609 726.240306,801.32992 725.94,801.51 C721.25,803.57 716.56,805.63 712.05,808.04 C709.77324,809.077519 707.767554,810.62799 706.19,812.57 C704.75,814.57 704.32,817.57 705.81,819.57 C707.12,821.32 709.47,821.9 711.64,822.29 C714.42,822.78 717.21,823.13 720,823.39 C718.566204,824.229944 717.312251,825.344569 716.31,826.67 C714.87,828.67 714.44,831.67 715.93,833.67 C717.24,835.42 719.59,836 721.76,836.39 C739.49,839.52 757.67,837.39 775.67,836.86 C781.52,836.67 787.5,836.63 793.04,834.73 C794.132684,834.406989 795.151761,833.873672 796.04,833.16 C798.56,830.94 798.31,827.04 797.87,823.73 L796.04,810.21 C795.77,810.21 795.51,810.3 795.25,810.36 C796.78314,797.659265 799.532426,785.135112 803.46,772.96 C809.56,754.01 818.64,735.34 818.52,715.51 C818.52,715.03 818.52,714.51 818.52,714.07 C818.35,707.86 817.24,701.72 816.52,695.54 C815.39,685.2 815.52,674.77 815.59,664.38 C815.502648,660.305925 815.78716,656.232377 816.44,652.21 C816.44,652.07 816.5,651.94 816.53,651.8 L833.14,651.36 C834.980463,651.453064 836.816908,651.110444 838.5,650.36 C840.148603,649.636542 840.985581,647.785699 840.44,646.07 C847.52,649.28 856.99,644.91 859.08,637.47 C859.225193,636.946684 859.34203,636.415912 859.43,635.88 C859.425183,635.840145 859.425183,635.799855 859.43,635.76 C859.5,635.26 859.55,634.76 859.57,634.27 C859.57,634.19 859.57,634.1 859.57,634.02 L859.57,634.02 C859.673551,630.585349 859.141274,627.161148 858,623.92 C854.6,614.29 849.2,605.52 844.12,596.65 C841.5,592.06 838.96,587.41 836.49,582.74 L838.66,585.53 C839.421564,586.667869 840.421297,587.626657 841.59,588.34 C845.64,590.43 849.88,586.22 854,584.28 C859.47,581.7 865.87,583.22 871.91,583.65 C877.95,584.08 885.23,582.52 887.39,576.92 C888.090086,574.633023 888.223927,572.210173 887.78,569.86 L887.78,569.86 Z M783.65,419.57 C783.65,421.71 783.79,423.88 783.96,426.06 C781.93028,422.742709 779.58615,419.628365 776.96,416.76 L783.65,419.57 Z"/>
    <path fill="#99D55C" fill-rule="nonzero" d="M653,485.76 C654.107142,484.29428 655.498128,483.066539 657.09,482.15 C656.684057,483.951078 655.918778,485.651698 654.84,487.15 C653.1,489.52 651.27,491.15 650.76,490.76 C650.25,490.37 651.24,488.13 653,485.76 Z"/>
    <path fill="#000000" fill-rule="nonzero" d="M653.22,485.94 C654.028968,484.850749 655.04931,483.935842 656.22,483.25 C655.915568,484.582334 655.347768,485.840334 654.55,486.95 C653.25,488.71 651.89,489.95 651.55,489.64 C651.21,489.33 651.92,487.7 653.22,485.94 Z" opacity=".1"/>
    <path fill="#F6987E" fill-rule="nonzero" d="M650.57,483.77 L651.57,483.77 C651.697304,483.77 651.819394,483.820571 651.909411,483.910589 C651.999429,484.000606 652.05,484.122696 652.05,484.25 L652.05,495.58 L650.149985,495.58 L650.15,484.25 C650.148092,484.00667 650.32857,483.80041 650.57,483.77 Z"/>
    <path fill="#FC4A4A" fill-rule="nonzero" d="M668,503.58 C668,512.416556 660.836556,519.58 652,519.58 C643.163444,519.58 636,512.416556 636,503.58 C636,496.25 640.93,491.91 647.66,490.64 C649.091474,490.375924 650.544379,490.245364 652,490.25 C653.002738,490.248652 654.004617,490.308764 655,490.43 C662.4,491.35 668,495.77 668,503.58 Z"/>
    <path fill="#000000" fill-rule="nonzero" d="M655,490.43 C654.71,490.98 653.14,491.43 651.24,491.43 C649.999948,491.520634 648.7594,491.260743 647.66,490.68 C649.091474,490.415924 650.544379,490.285364 652,490.29 C653.00192,490.275374 654.003796,490.322128 655,490.43 Z" opacity=".1"/>
    <path fill="#000000" fill-rule="nonzero" d="M654.67,519.2 C645.833444,519.2 638.67,512.036556 638.67,503.2 C638.67,496 643.42,491.69 649.96,490.34 C649.188508,490.398677 648.420731,490.498822 647.66,490.64 C640.93,491.91 636,496.25 636,503.58 C636,512.416556 643.163444,519.58 652,519.58 C653.208468,519.582132 654.413131,519.444552 655.59,519.17 C655.28,519.19 655,519.2 654.67,519.2 Z" opacity=".1"/>
    <path fill="#FDA8A8" fill-rule="nonzero" d="M725.2,815.35 C727.41,817.35 730.79,817.3 733.79,817.08 L747.46,816.08 C758.32,815.28 769.55,814.38 779.13,809.21 C780.143922,808.746262 781.042211,808.063153 781.76,807.21 C782.521558,805.901897 782.918664,804.413614 782.91,802.9 C784.203954,788.08833 787.148891,773.467621 791.69,759.31 C797.69,740.46 806.69,721.88 806.57,702.15 C806.57,701.67 806.57,701.15 806.57,700.72 C806.4,694.54 805.31,688.43 804.64,682.28 C803.53,671.99 803.64,661.62 803.72,651.28 C803.634468,647.226267 803.915613,643.173102 804.56,639.17 C805.19,635.92 807.56,632.66 806.11,629.8 C803.3,624.25 793.11,622.21 787.63,622.01 C780.25,621.75 772.99,623.68 765.86,625.6 C763.69,626.19 761.42,626.82 759.78,628.35 C757.58,630.41 756.95,633.64 756.87,636.65 C756.49,650 764.18,662.42 764.79,675.75 C764.9,678.15 764.79,680.75 766.19,682.75 C767.113543,683.839142 768.116271,684.858582 769.19,685.8 C772.19,689.09 772.28,694.05 772.07,698.51 C771.98,700.31 771.88,702.11 771.76,703.91 C770.126443,727.933555 765.27304,751.628792 757.33,774.36 C756.5643,776.786932 755.559364,779.131782 754.33,781.36 C752.323638,784.487952 749.816908,787.26495 746.91,789.58 C742.791004,793.097592 738.3782,796.255808 733.72,799.02 C730.61,800.86 727.29,802.62 725.16,805.54 C723.03,808.46 722.56,812.89 725.2,815.35 Z"/>
    <path fill="#000000" fill-rule="nonzero" d="M725.2,815.35 C727.41,817.35 730.79,817.3 733.79,817.08 L747.46,816.08 C758.32,815.28 769.55,814.38 779.13,809.21 C780.143922,808.746262 781.042211,808.063153 781.76,807.21 C782.521558,805.901897 782.918664,804.413614 782.91,802.9 C784.203954,788.08833 787.148891,773.467621 791.69,759.31 C797.69,740.46 806.69,721.88 806.57,702.15 C806.57,701.67 806.57,701.15 806.57,700.72 C806.4,694.54 805.31,688.43 804.64,682.28 C803.53,671.99 803.64,661.62 803.72,651.28 C803.634468,647.226267 803.915613,643.173102 804.56,639.17 C805.19,635.92 807.56,632.66 806.11,629.8 C803.3,624.25 793.11,622.21 787.63,622.01 C780.25,621.75 772.99,623.68 765.86,625.6 C763.69,626.19 761.42,626.82 759.78,628.35 C757.58,630.41 756.95,633.64 756.87,636.65 C756.49,650 764.18,662.42 764.79,675.75 C764.9,678.15 764.79,680.75 766.19,682.75 C767.113543,683.839142 768.116271,684.858582 769.19,685.8 C772.19,689.09 772.28,694.05 772.07,698.51 C771.98,700.31 771.88,702.11 771.76,703.91 C770.126443,727.933555 765.27304,751.628792 757.33,774.36 C756.5643,776.786932 755.559364,779.131782 754.33,781.36 C752.323638,784.487952 749.816908,787.26495 746.91,789.58 C742.791004,793.097592 738.3782,796.255808 733.72,799.02 C730.61,800.86 727.29,802.62 725.16,805.54 C723.03,808.46 722.56,812.89 725.2,815.35 Z" opacity=".1"/>
    <path fill="#EEEFF3" fill-rule="nonzero" d="M725.2,815.35 C727.41,817.35 730.79,817.3 733.79,817.08 L747.46,816.08 C758.32,815.28 769.55,814.38 779.13,809.21 C780.143922,808.746262 781.042211,808.063153 781.76,807.21 C782.521558,805.901897 782.918664,804.413614 782.91,802.9 C784.203954,788.08833 787.148891,773.467621 791.69,759.31 C797.69,740.46 806.69,721.88 806.57,702.15 C795.012225,703.427992 783.387463,704.002385 771.76,703.87 C770.126443,727.893555 765.27304,751.588792 757.33,774.32 C756.5643,776.746932 755.559364,779.091782 754.33,781.32 C752.323638,784.447952 749.816908,787.22495 746.91,789.54 C742.791004,793.057592 738.3782,796.215808 733.72,798.98 C730.61,800.82 727.29,802.58 725.16,805.5 C723.03,808.42 722.56,812.89 725.2,815.35 Z"/>
    <path fill="#000000" fill-rule="nonzero" d="M725.2,815.35 C727.41,817.35 730.79,817.3 733.79,817.08 L747.46,816.08 C758.32,815.28 769.55,814.38 779.13,809.21 C780.143922,808.746262 781.042211,808.063153 781.76,807.21 C782.521558,805.901897 782.918664,804.413614 782.91,802.9 C784.203954,788.08833 787.148891,773.467621 791.69,759.31 C797.69,740.46 806.69,721.88 806.57,702.15 C795.012225,703.427992 783.387463,704.002385 771.76,703.87 C770.126443,727.893555 765.27304,751.588792 757.33,774.32 C756.5643,776.746932 755.559364,779.091782 754.33,781.32 C752.323638,784.447952 749.816908,787.22495 746.91,789.54 C742.791004,793.057592 738.3782,796.215808 733.72,798.98 C730.61,800.82 727.29,802.58 725.16,805.5 C723.03,808.42 722.56,812.89 725.2,815.35 Z" opacity=".1"/>
    <path fill="#BBBDC8" fill-rule="nonzero" d="M755.4,811.13 C758.68432,809.952951 761.840532,808.445207 764.82,806.63 L779.89,798.13 C781.251519,797.248242 782.768566,796.633957 784.36,796.32 L786.16,809.77 C786.61,813.07 786.85,816.95 784.36,819.16 C783.470802,819.869897 782.451823,820.399766 781.36,820.72 C775.89,822.61 769.99,822.65 764.2,822.83 C746.42,823.4 728.46,825.48 710.94,822.36 C708.8,821.98 706.48,821.36 705.19,819.66 C703.72,817.66 704.14,814.76 705.56,812.73 C707.116533,810.800433 709.098143,809.2569 711.35,808.22 C715.81,805.82 720.44,803.78 725.07,801.73 C725.355883,801.560743 725.694448,801.503721 726.02,801.57 C726.47,801.72 726.61,802.27 726.73,802.73 C727.54,806.01 730.18,808.6 733.19,810.15 C733.23,810.15 748.74,813.25 755.4,811.13 Z"/>
    <path fill="#000000" fill-rule="nonzero" d="M755.4,811.13 C758.68432,809.952951 761.840532,808.445207 764.82,806.63 L779.89,798.13 C781.251519,797.248242 782.768566,796.633957 784.36,796.32 L786.16,809.77 C786.61,813.07 786.85,816.95 784.36,819.16 C783.470802,819.869897 782.451823,820.399766 781.36,820.72 C775.89,822.61 769.99,822.65 764.2,822.83 C746.42,823.4 728.46,825.48 710.94,822.36 C708.8,821.98 706.48,821.36 705.19,819.66 C703.72,817.66 704.14,814.76 705.56,812.73 C707.116533,810.800433 709.098143,809.2569 711.35,808.22 C715.81,805.82 720.44,803.78 725.07,801.73 C725.355883,801.560743 725.694448,801.503721 726.02,801.57 C726.47,801.72 726.61,802.27 726.73,802.73 C727.54,806.01 730.18,808.6 733.19,810.15 C733.23,810.15 748.74,813.25 755.4,811.13 Z" opacity=".1"/>
    <path fill="#FDA8A8" fill-rule="nonzero" d="M735.2,829.35 C737.41,831.35 740.79,831.3 743.79,831.08 L757.46,830.08 C768.32,829.28 779.55,828.38 789.13,823.21 C790.143922,822.746262 791.042211,822.063153 791.76,821.21 C792.521558,819.901897 792.918664,818.413614 792.91,816.9 C794.203954,802.08833 797.148891,787.467621 801.69,773.31 C807.69,754.46 816.69,735.88 816.57,716.15 C816.57,715.67 816.57,715.15 816.57,714.72 C816.4,708.54 815.31,702.43 814.64,696.28 C813.53,685.99 813.64,675.62 813.72,665.28 C813.634468,661.226267 813.915613,657.173102 814.56,653.17 C815.19,649.92 817.56,646.66 816.11,643.8 C813.3,638.25 803.11,636.21 797.63,636.01 C790.25,635.75 782.99,637.68 775.86,639.6 C773.69,640.19 771.42,640.82 769.78,642.35 C767.58,644.41 766.95,647.64 766.87,650.65 C766.49,664 774.18,676.42 774.79,689.75 C774.9,692.15 774.79,694.75 776.19,696.75 C777.113543,697.839142 778.116271,698.858582 779.19,699.8 C782.19,703.09 782.28,708.05 782.07,712.51 C781.98,714.31 781.88,716.11 781.76,717.91 C780.126443,741.933555 775.27304,765.628792 767.33,788.36 C766.5643,790.786932 765.559364,793.131782 764.33,795.36 C762.323638,798.487952 759.816908,801.26495 756.91,803.58 C752.791004,807.097592 748.3782,810.255808 743.72,813.02 C740.61,814.86 737.29,816.62 735.16,819.54 C733.03,822.46 732.56,826.89 735.2,829.35 Z"/>
    <path fill="#EEEFF3" fill-rule="nonzero" d="M735.2,829.35 C737.41,831.35 740.79,831.3 743.79,831.08 L757.46,830.08 C768.32,829.28 779.55,828.38 789.13,823.21 C790.143922,822.746262 791.042211,822.063153 791.76,821.21 C792.521558,819.901897 792.918664,818.413614 792.91,816.9 C794.203954,802.08833 797.148891,787.467621 801.69,773.31 C807.69,754.46 816.69,735.88 816.57,716.15 C805.012225,717.427992 793.387463,718.002385 781.76,717.87 C780.126443,741.893555 775.27304,765.588792 767.33,788.32 C766.5643,790.746932 765.559364,793.091782 764.33,795.32 C762.323638,798.447952 759.816908,801.22495 756.91,803.54 C752.791004,807.057592 748.3782,810.215808 743.72,812.98 C740.61,814.82 737.29,816.58 735.16,819.5 C733.03,822.42 732.56,826.89 735.2,829.35 Z"/>
    <path fill="#BBBDC8" fill-rule="nonzero" d="M765.4,825.13 C768.68432,823.952951 771.840532,822.445207 774.82,820.63 L789.89,812.13 C791.251519,811.248242 792.768566,810.633957 794.36,810.32 L796.16,823.77 C796.61,827.07 796.85,830.95 794.36,833.16 C793.470802,833.869897 792.451823,834.399766 791.36,834.72 C785.89,836.61 779.99,836.65 774.2,836.83 C756.42,837.4 738.46,839.48 720.94,836.36 C718.8,835.98 716.48,835.36 715.19,833.66 C713.72,831.66 714.14,828.76 715.56,826.73 C717.116533,824.800433 719.098143,823.2569 721.35,822.22 C725.81,819.82 730.44,817.78 735.07,815.73 C735.355883,815.560743 735.694448,815.503721 736.02,815.57 C736.47,815.72 736.61,816.27 736.73,816.73 C737.54,820.01 740.18,822.6 743.19,824.15 C743.23,824.15 758.74,827.25 765.4,825.13 Z"/>
    <path fill="#FDA8A8" fill-rule="nonzero" d="M715.81,423.71 C720.68,417.71 720.81,409.33 720.69,401.63 C720.69,398.63 720.6,395.53 720.49,392.48 L720.49,392.41 C720.35488,386.804478 719.762919,381.219306 718.72,375.71 L718.72,375.71 C718.193997,373.066249 717.492443,370.460479 716.62,367.91 C717.28,367.76 717.94,367.62 718.62,367.5 C729.102113,365.429982 739.887887,365.429982 750.37,367.5 C752.18,367.86 756.76,367.78 759.37,368.67 C760.113024,368.847444 760.760368,369.301658 761.18,369.94 C761.69,371.01 760.64,374.11 759.88,376.86 L759.88,376.86 C759.462152,378.099402 759.226362,379.392879 759.18,380.7 C759.281145,381.928258 759.46827,383.147914 759.74,384.35 C760.21,386.56 760.83,388.75 761.12,390.99 C761.63,394.81 761.18,398.7 761.43,402.55 C761.68,406.4 762.79,410.45 765.72,412.96 C748.695857,414.419523 731.925461,418.03166 715.81,423.71 L715.81,423.71 Z"/>
    <path fill="#000000" fill-rule="nonzero" d="M763.73,383.91 C762.4,384.02 761.08,384.15 759.73,384.3 C746.409928,385.722065 733.26488,388.468991 720.49,392.5 L720.49,392.43 L718.72,375.73 L718.72,375.73 C718.72,374.73 718.72,373.73 718.72,372.68 C718.72,370.97 718.67,369.24 718.63,367.52 C729.112113,365.449982 739.897887,365.449982 750.38,367.52 C752.19,367.88 756.77,367.8 759.38,368.69 C759.38,370.32 759.38,371.95 759.44,373.58 C759.505669,374.689862 759.656108,375.793078 759.89,376.88 L759.89,376.88 C760.368409,379.579638 761.717025,382.048589 763.73,383.91 Z" opacity=".1"/>
    <circle cx="738.5" cy="351.5" r="37" fill="#FDA8A8" fill-rule="nonzero"/>
    <path fill="#F75842" fill-rule="nonzero" d="M706,491.01 C699.43,467.76 705.43,442.79 721.12,424.43 C724.61,420.34 728.12,416.14 732.7,413.69 C738.15,410.79 744.6,410.69 750.77,410.63 C756.22,410.63 761.84,410.63 766.85,412.8 C773.62,415.69 778.29,421.97 782.23,428.2 C786.43,434.84 790.23,442.03 790.87,449.87 C791.21,454.52 790.39,459.24 791.08,463.87 C791.96,469.74 795.23,475 796.57,480.78 C797.3,483.9 797.45,487.13 797.92,490.31 C798.628182,494.660186 799.657666,498.951931 801,503.15 C810.935954,536.140534 824.541006,567.912491 841.56,597.87 C846.56,606.7 851.91,615.43 855.27,625 C856.79,629.33 857.89,634 856.65,638.46 C854.58,645.86 845.23,650.21 838.24,647.02 C838.775495,648.721584 837.949527,650.554201 836.32,651.28 C834.658049,652.030237 832.841065,652.373064 831.02,652.28 L769.26,653.92 C767.63778,653.960855 766.024878,654.178815 764.45,654.57 C757.19,656.43 759.92,659.57 759.14,662.19 C758.19,665.39 753.6,665.13 750.4,664.19 C750.89,668.86 751,674.57 744.97,675.93 C743.405846,676.247026 741.789095,676.192221 740.25,675.77 C729.30788,672.951356 717.9621,672.03801 706.71,673.07 C702.59,673.45 697.88,673.91 694.83,671.07 C692.53,668.96 691.93,665.6 691.54,662.5 C685.39,613.5 698.04,564.43 707.54,516.02 C708.82,509.49 708.36,498.91 706.44,492.53 L706,491.01 Z"/>
    <path fill="#2FB8BE" fill-rule="nonzero" d="M788,457.24 C789.45,461.42 791.26,465.53 791.75,469.93 C792.14,473.45 791.67,477.01 791.88,480.54 C792.263486,484.459257 793.071559,488.325265 794.29,492.07 C796.215152,499.353314 798.589701,506.510358 801.4,513.5 C802.74,516.65 804.29,520.12 803.21,523.37 C802.13,526.62 798.78,528.63 797.82,531.86 C796.82,535.27 798.82,538.86 801.37,541.35 C803.92,543.84 807.11,545.61 809.47,548.26 C812.04,551.15 813.47,554.84 815.28,558.26 C817.850152,562.783417 820.797265,567.081988 824.09,571.11 L836.18,586.8 C836.933788,587.93125 837.923005,588.886357 839.08,589.6 C843.08,591.68 847.27,587.49 851.34,585.6 C856.74,583.03 863.06,584.54 869.03,584.97 C875,585.4 882.19,583.85 884.32,578.27 C885.025204,576.005388 885.172724,573.603899 884.75,571.27 C883.814358,563.290902 881.507086,555.533462 877.93,548.34 C875.75,543.96 873.09,539.77 871.72,535.08 C870.6,531.27 870.38,527.26 869.49,523.39 C868.6,519.52 867.03,515.82 865.77,512.04 C856.83,485.18 863.55,455.79 860.66,427.63 C859.59,417.24 856.42,405.85 847.48,400.44 C842.17,397.23 835.79,396.73 829.48,396.44 L826.63,396.31 L822.04,396.08 C815.4,395.75 808.74,395.5 802.27,396.91 C793.17,398.91 782.22,405.98 781.86,416.14 C781.468696,430.09478 783.547345,444.008867 788,457.24 L788,457.24 Z"/>
    <path fill="#000000" fill-rule="nonzero" d="M822.09,396.04 C823.31725,402.84453 823.92972,409.74569 823.92,416.66 C824.1,436.4 826.23,456.06 828.37,475.66 L829.78,488.66 C830.04,491.06 830.35,493.58 831.78,495.51 C833.21,497.44 836.21,498.45 838.1,496.96 C839.26,492.37 839.03,487.55 838.8,482.82 C838.3,472.76 837.803333,462.696667 837.31,452.63 C836.83,442.83 836.31,433.02 835.12,423.28 C834.186571,415.735784 832.810869,408.252901 831,400.87 C830.656725,399.340571 830.178175,397.844684 829.57,396.4 L826.72,396.27 L822.09,396.04 Z" opacity=".1"/>
    <path fill="#2FB8BE" fill-rule="nonzero" d="M756.75,404.5 C750.62,403.62 744.2,403.17 738.38,405.3 C732.82,407.35 728.38,411.56 724.38,415.99 C721.652718,418.844635 719.397775,422.115653 717.7,425.68 C714.29,433.52 715.62,442.56 717.7,450.86 C723.37,473.72 734.63,495.77 752.7,510.86 C758.200748,515.32935 764.056824,519.342652 770.21,522.86 C778.21,527.55 786.47,531.86 795.32,534.57 C797.79,535.33 800.42,535.97 802.95,535.43 C805.48,534.89 807.87,532.84 807.95,530.25 C793.45,522.1 780.45,511.57 767.54,501.09 C764.001148,498.360027 760.68717,495.350359 757.63,492.09 C753.05,486.94 749.82,480.72 745.38,475.45 C741.38,470.72 736.38,466.73 733.38,461.32 C731.497253,457.625199 730.236996,453.645085 729.65,449.54 C728.17,441.17 727.89,432.28 731.21,424.45 C734.53,416.62 742.14,410.19 750.64,410.33 C755,410.4 759.15,412.13 763.17,413.82 L788.47,424.5 C788.16,424.36 789.92,419.97 789.84,419.36 C789.6,417.45 789.26,417.42 787.84,415.97 C785.42,413.55 781.66,411.85 778.59,410.44 C771.632194,407.423841 764.276994,405.423388 756.75,404.5 L756.75,404.5 Z"/>
    <path fill="#FFD566" fill-rule="nonzero" d="M706.39,344.5 C713.608176,342.896298 720.288226,339.451197 725.78,334.5 L720.49,362.26 C725.759852,359.841115 730.870207,357.088872 735.79,354.02 C736.5,366.72 735.47,379.71 730.79,391.53 C726.11,403.35 717.48,413.93 705.9,419.18 C716.18,420.9 725.41,413.52 734.56,408.53 C740.94,405.06 751.84,408.63 758.82,406.53 C764.74,404.79 770.82,403.27 776.16,400.16 C786.08,394.37 788.33,377.46 790.34,366.16 C792.35,354.86 790.52,343.16 787.18,332.16 C786.068407,328.264335 784.56402,324.491642 782.69,320.9 C777.481987,311.364209 768.519598,304.444298 757.976368,301.818466 C747.433138,299.192633 736.2721,301.100727 727.2,307.08 C717.98,313.15 709.43,322.08 702.39,330.55 C701.39,331.72 697.26,335.88 698.63,337.63 C700.3,339.75 710.1,333.71 711.76,332.89 C711.28,334.7 708.3,344.03 706.39,344.5 Z"/>
    <g fill="#000000" fill-rule="nonzero" opacity=".1" transform="translate(689 442)">
      <path d="M59 225.93C57.435846 226.247026 55.8190948 226.192221 54.28 225.77 43.3378798 222.951356 31.9920996 222.03801 20.74 223.07 16.62 223.45 11.91 223.91 8.86 221.07 6.56 218.96 5.96 215.6 5.57 212.5-.58 163.5 12.07 114.43 21.57 66.02 22.85 59.49 22.39 48.91 20.47 42.53L20.02 40.98C16.3180952 27.759566 16.536966 13.7483558 20.65.65 13.8274347 15.8501975 12.5362162 32.9579586 17 49.01L17.45 50.56C19.37 56.94 19.83 67.56 18.55 74.05 9.08 122.46-3.57 171.56 2.55 220.53 2.94 223.63 3.55 226.99 5.84 229.1 8.84 231.91 13.6 231.45 17.72 231.1 28.9720996 230.06801 40.3178798 230.981356 51.26 233.8 52.7990948 234.222221 54.415846 234.277026 55.98 233.96 60.9 232.85 61.73 228.84 61.61 224.87 60.8112373 225.378217 59.9269285 225.737361 59 225.93zM152.26 197.02C152.795495 198.721584 151.969527 200.554201 150.34 201.28 148.678049 202.030237 146.861065 202.373064 145.04 202.28L83.28 203.92C81.6577799 203.960855 80.0448782 204.178815 78.47 204.57 71.21 206.43 73.94 209.57 73.16 212.19 72.21 215.39 67.62 215.13 64.42 214.19 64.72 217.04 64.87 220.27 63.58 222.67 66.39 223.09 69.41 222.72 70.16 220.19 70.91 217.66 68.21 214.43 75.47 212.57 77.0448782 212.178815 78.6577799 211.960855 80.28 211.92L142 210.28C143.821065 210.373064 145.638049 210.030237 147.3 209.28 148.929527 208.554201 149.755495 206.721584 149.22 205.02 156.22 208.21 165.56 203.86 167.63 196.46 167.941821 195.338584 168.11643 194.183477 168.15 193.02 164.41 197.5 157.64 199.5 152.26 197.02z"/>
    </g>
    <path fill="#FDA8A8" fill-rule="nonzero" d="M758.41,430.06 C763.722033,441.354373 768.418902,452.927965 772.48,464.73 C775.76,474.24 778.65,484.23 777.56,494.23 C776.47,504.23 770.56,514.33 760.96,517.48 C756.88,518.82 752.51,518.83 748.22,518.93 C737.944459,519.171176 727.691087,519.999191 717.51,521.41 C712.771617,522.193719 707.994849,522.72447 703.2,523 C696.42,523.22 689.64,522.16 682.88,522.71 C671.94,523.6 661.55,528.71 650.57,528.71 C649.230671,528.792721 647.891506,528.545491 646.67,527.99 C644.67,526.91 643.78,524.57 643.1,522.41 C641.57,517.53 640.37,511.93 642.96,507.52 C646.15,502.09 653.4,501 659.69,500.52 C673.85,499.52 688.026667,498.82 702.22,498.42 C714.33,498.08 727.45,497.62 736.84,489.96 C737.473435,489.507115 737.990837,488.910903 738.35,488.22 C738.704502,487.049291 738.662316,485.794261 738.23,484.65 C734.508112,470.106604 732.91155,455.10094 733.49,440.1 C733.425685,438.754453 733.77464,437.421444 734.49,436.28 C735.339807,435.364611 736.443648,434.723895 737.66,434.44 C746.043717,431.749933 755.019688,431.500215 763.54,433.72"/>
    <path fill="#F75842" fill-rule="nonzero" d="M733.24,440.09 C731.78888,440.58924 730.525531,441.521047 729.62,442.76 C730.02,438.59 729.48,434.38 729.56,430.18 C729.64,425.98 730.42,421.6 733.07,418.34 C736.44,414.18 742.17,412.69 747.53,412.55 C755.31,412.34 763.36,414.6 769.06,419.9 C772.728898,423.335084 775.111007,427.92285 775.81,432.9 C775.99,434.27 776.59,439.41 775.16,440.29 C773.91,441.07 769.16,438.38 767.63,437.95 C756.270082,434.611297 744.098366,435.368711 733.24,440.09 Z"/>
    <circle cx="582" cy="197" r="7" fill="#2FB8BE" fill-rule="nonzero" opacity=".1"/>
    <circle cx="629" cy="332" r="7" fill="#2FB8BE" fill-rule="nonzero" opacity=".1"/>
    <circle cx="496" cy="204" r="7" fill="#2FB8BE" fill-rule="nonzero" opacity=".1"/>
    <circle cx="281" cy="523" r="18" fill="#2FB8BE" fill-rule="nonzero" opacity=".1"/>
    <circle cx="1006" cy="237" r="7" fill="#2FB8BE" fill-rule="nonzero" opacity=".1"/>
    <circle cx="1014" cy="332" r="23" fill="#2FB8BE" fill-rule="nonzero" opacity=".1"/>
    <circle cx="1051" cy="267" r="7" fill="#2FB8BE" fill-rule="nonzero" opacity=".1"/>
    <circle cx="989" cy="395" r="7" fill="#2FB8BE" fill-rule="nonzero" opacity=".1"/>
    <circle cx="568" cy="253" r="7" fill="#2FB8BE" fill-rule="nonzero" opacity=".1"/>
    <circle cx="306" cy="607" r="7" fill="#2FB8BE" fill-rule="nonzero" opacity=".1"/>
    <circle cx="295" cy="447" r="7" fill="#2FB8BE" fill-rule="nonzero" opacity=".1"/>
    <circle cx="679" cy="190" r="7" fill="#2FB8BE" fill-rule="nonzero" opacity=".1"/>
    <circle cx="702" cy="253" r="7" fill="#2FB8BE" fill-rule="nonzero" opacity=".1"/>
  </g>
</svg>
