<svg xmlns="http://www.w3.org/2000/svg" width="1300" height="1000" viewBox="0 0 1300 1000">
  <g fill="none" fill-rule="evenodd">
    <rect width="1300" height="1000" fill="#FFFFFF"/>
    <path fill="#F2F2F2" fill-rule="nonzero" d="M495.5807,147 L337.72751,232.50223 C345.076742,245.154527 344.96238,260.8028 337.429008,273.34633 C329.895637,285.88986 316.135813,293.342965 301.514016,292.799939 C286.892219,292.256912 273.723126,283.803717 267.14091,270.73596 L213.31747,299.88978 L352.73677,557.28397 L635,404.39422 L495.5807,147 Z"/>
    <circle cx="300.604" cy="252.668" r="32.587" fill="#6C63FF" fill-rule="nonzero"/>
    <path fill="#F2F2F2" fill-rule="nonzero" d="M891.95458,836.06419 L1062.62672,780.39303 C1057.67671,766.623937 1060.60781,751.252259 1070.27731,740.270849 C1079.94681,729.289438 1094.82399,724.436678 1109.1088,727.604481 C1123.3936,730.772284 1134.8247,741.45918 1138.94554,755.49874 L1197.13988,736.51646 L1106.36288,458.21978 L801.17759,557.76747 L891.95458,836.06419 Z"/>
    <circle cx="1102.776" cy="767.244" r="32.587" fill="#6C63FF" fill-rule="nonzero"/>
    <rect width="788" height="358" x="321.5" y="299.678" fill="#3F3D56" fill-rule="nonzero"/>
    <rect width="762" height="325" x="334.5" y="312.678" fill="#FFFFFF" fill-rule="nonzero"/>
    <rect width="74" height="25" x="945" y="622.178" fill="#3F3D56" fill-rule="nonzero"/>
    <rect width="54" height="7" x="887" y="641.178" fill="#6C63FF" fill-rule="nonzero"/>
    <polyline stroke="#3F3D56" stroke-width="2" points="396.5 435.678 687.5 435.678 732.616 457.657 804.5 492.678 851.5 404.678 984.5 404.678"/>
    <polyline stroke="#3F3D56" stroke-width="2" points="510.925 435.678 532.5 486.678 585.5 486.678"/>
    <polyline stroke="#3F3D56" stroke-width="2" points="591.807 435.678 665.5 395.678 717.5 395.678"/>
    <circle cx="510.5" cy="435.678" r="9" fill="#6C63FF" fill-rule="nonzero"/>
    <circle cx="594.5" cy="435.678" r="9" fill="#6C63FF" fill-rule="nonzero"/>
    <polyline stroke="#3F3D56" stroke-width="2" points="732.5 457.678 738.5 546.678 790.5 546.678"/>
    <polyline stroke="#3F3D56" stroke-width="2" points="832.65 439.971 775.5 395.678 829.5 395.678"/>
    <polyline stroke="#3F3D56" stroke-width="2" points="927.051 404.678 982.5 448.678 1034.5 448.678"/>
    <circle cx="732.5" cy="457.678" r="9" fill="#6C63FF" fill-rule="nonzero"/>
    <circle cx="926.5" cy="404.678" r="9" fill="#6C63FF" fill-rule="nonzero"/>
    <circle cx="832.5" cy="439.678" r="9" fill="#6C63FF" fill-rule="nonzero"/>
    <path stroke="#3F3D56" stroke-width="2" d="M533.5,494.67774 L585.5,494.67774"/>
    <circle cx="1015.542" cy="222.53" r="14.756" stroke="#3F3D56" stroke-width="2"/>
    <ellipse cx="358" cy="889.178" fill="#F2F2F2" fill-rule="nonzero" rx="152" ry="28"/>
    <polygon fill="#6C63FF" fill-rule="nonzero" points="462.389 640.658 435.272 654.339 437.027 657.834 464.143 644.153"/>
    <path fill="#FBBEBE" fill-rule="nonzero" d="M457.9802 615.21132L456.76197 622.52072C456.76197 622.52072 458.58932 673.07744 445.18874 657.2404 431.78816 641.40336 440.92492 620.08426 440.92492 620.08426L444.57963 613.99309 457.9802 615.21132zM380.01322 381.31036C380.01322 381.31036 377.57675 406.89327 376.35851 408.11151 375.14027 409.32975 394.63203 432.47619 394.63203 432.47619L411.6873 416.63919C411.6873 416.63919 410.46907 393.49274 414.12377 388.6198 417.77847 383.74686 380.01322 381.31036 380.01322 381.31036z"/>
    <path fill="#000000" fill-rule="nonzero" d="M380.01322,381.31036 C380.01322,381.31036 377.57675,406.89327 376.35851,408.11151 C375.14027,409.32975 394.63203,432.47619 394.63203,432.47619 L411.6873,416.63919 C411.6873,416.63919 410.46907,393.49274 414.12377,388.6198 C417.77847,383.74686 380.01322,381.31036 380.01322,381.31036 Z" opacity=".1"/>
    <polygon fill="#3F3D56" fill-rule="nonzero" points="334.939 847.894 334.939 869.822 326.411 871.041 314.229 867.386 317.883 844.239"/>
    <path fill="#2F2E41" fill-rule="nonzero" d="M323.97444,858.85816 C323.97444,858.85816 320.31974,849.11228 314.22857,850.33052 C308.1374,851.54876 306.91916,858.85816 306.91916,858.85816 C306.91916,858.85816 302.04623,877.13167 294.73682,883.22284 C287.42741,889.31401 280.11801,905.15106 294.73682,907.58752 C309.35563,910.02398 321.53797,903.93282 321.53797,902.71459 C321.53797,901.49636 325.19268,894.18695 331.28385,892.96871 C337.37502,891.75047 342.24796,890.53225 342.24796,885.65931 C342.24796,880.78637 338.59325,875.91344 338.59325,875.91344 C338.59325,875.91344 337.37502,852.80536 334.93855,855.83176 C333.253579,858.222734 332.01538,860.898998 331.28385,863.73109 L323.97444,858.85816 Z"/>
    <polygon fill="#3F3D56" fill-rule="nonzero" points="387.323 836.93 382.45 855.203 394.632 857.64 400.723 851.549 401.941 835.712"/>
    <path fill="#2F2E41" fill-rule="nonzero" d="M386.10439,852.76699 C386.10439,852.76699 390.97732,849.11228 393.41379,849.11228 L397.06849,849.11228 C397.06849,849.11228 397.06849,840.58464 403.15967,840.58464 C409.25085,840.58464 408.0326,846.67581 408.0326,846.67581 C408.0326,846.67581 421.43318,867.38581 425.08788,871.0405 C428.74258,874.69519 448.23433,885.65931 432.39729,890.53225 C416.56025,895.40519 405.59613,895.40518 398.28673,886.87754 C398.28673,886.87754 390.97732,883.22284 386.10439,883.22284 C381.23146,883.22284 375.14028,880.78637 375.14028,877.13167 C375.14028,873.47697 378.79498,866.16756 378.79498,866.16756 C378.79498,866.16756 381.23145,844.23935 382.44968,846.67581 C383.66791,849.11227 386.10439,852.76699 386.10439,852.76699 Z"/>
    <path fill="#2F2E41" fill-rule="nonzero" d="M333.72032,556.73608 L333.72032,596.93781 C333.72032,596.93781 320.31974,674.90481 320.31974,700.48771 C320.31974,726.07061 299.60974,847.89405 309.35563,850.33052 C319.10152,852.76699 342.24796,856.42169 343.46619,852.76699 C344.68442,849.11229 353.21206,733.37999 354.4303,732.1618 C355.64854,730.94361 381.23145,634.70307 381.23145,634.70307 L386.10439,635.9213 L388.54085,745.56238 C388.54085,745.56238 376.35851,844.23938 382.44968,844.23938 C388.54085,844.23938 414.12377,843.02114 414.12377,835.71174 C414.12377,828.40234 427.52435,693.17834 427.52435,693.17834 C427.52435,693.17834 443.36135,585.97373 437.27022,575.00962 C431.17909,564.04551 431.17905,557.95434 431.17905,557.95434 L333.72032,556.73608 Z"/>
    <circle cx="400.114" cy="375.828" r="24.365" fill="#FBBEBE" fill-rule="nonzero"/>
    <path fill="#D0CDE1" fill-rule="nonzero" d="M394.63203,417.85738 C394.63203,417.85738 379.4041,405.06592 378.18586,400.19299 C378.18586,400.19299 370.26734,408.11151 370.26734,409.32974 C370.26734,410.54797 336.15678,414.20268 327.62915,423.94855 C319.10152,433.69442 311.7921,454.40441 311.7921,454.40441 L332.5021,493.3879 C332.5021,493.3879 333.72034,515.31612 333.72034,517.75258 C333.72034,520.18904 327.62917,559.17258 330.06563,560.39078 C332.50209,561.60898 356.86679,573.79136 377.57677,571.35489 C398.28675,568.91842 418.99677,565.26372 425.0879,565.26372 C431.17903,565.26372 436.05201,567.70019 436.05201,565.26372 C436.05201,562.82725 432.39731,557.95431 432.39731,555.51784 C432.39731,553.08137 431.17907,546.9902 431.17907,543.3355 C431.17907,539.6808 428.7426,533.58963 428.7426,528.71669 C428.7426,523.84375 455.54376,458.05911 455.54376,458.05911 C455.54376,458.05911 454.32552,437.34911 434.83376,427.60325 C415.342,417.85739 412.90555,414.20268 412.90555,414.20268 C412.90555,414.20268 412.52576,406.89327 411.49742,406.89327 C410.46908,406.89327 406.81442,417.85738 397.0685,419.07562 L394.63203,417.85738 Z"/>
    <polygon fill="#FBBEBE" fill-rule="nonzero" points="328.847 579.883 337.375 593.283 359.303 588.41 343.466 570.137"/>
    <path fill="#D0CDE1" fill-rule="nonzero" d="M448.23433,448.31324 L455.54374,458.05911 C455.54374,458.05911 470.16255,528.71669 467.72608,554.29961 C465.28961,579.88253 462.85314,599.37427 462.85314,599.37427 C462.85314,599.37427 467.72608,617.64779 464.07137,617.64779 C460.41666,617.64779 438.48846,618.86602 438.48846,615.21132 C438.48846,611.55662 440.92494,588.41017 440.92494,588.41017 L434.83375,534.80787 L421.43318,516.53436 L448.23433,448.31324 Z"/>
    <path fill="#2F2E41" fill-rule="nonzero" d="M383.56538,363.99962 C385.05888,363.36662 386.78545,363.88012 388.38491,363.6101 C390.26315,363.29302 391.9437,361.90148 393.8404,362.0771 C394.73923,362.243753 395.612402,362.527251 396.4377,362.92038 C397.274525,363.313602 398.23564,363.348023 399.09845,363.01567 C399.510569,362.82432 399.814798,362.457793 399.926977,362.017482 C400.039156,361.577172 399.947392,361.109757 399.67707,360.74454 C401.281814,360.603133 402.79874,359.95016 404.00446,358.88178 C404.244738,358.632312 404.52358,358.423116 404.8303,358.26221 C405.553005,358.073604 406.321569,358.193319 406.95267,358.5928 L409.74034,359.8778 C410.368305,360.099576 410.920618,360.494669 411.33334,361.01734 C411.66492,361.53434 411.72982,362.22953 412.19947,362.6254 C412.7987,363.13049 413.69447,362.88332 414.47658,362.93283 C415.946364,363.075839 417.076495,364.296237 417.10636,365.77266 C417.09528,366.59071 416.79773,367.59433 417.44475,368.095 C417.82003,368.38539 418.35283,368.33892 418.79248,368.51741 C419.93194,368.98001 419.93638,370.56624 419.76803,371.78441 C419.59968,373.00258 419.68297,374.60966 420.85416,374.98474 C421.67881,375.24884 422.52158,374.68583 423.37834,374.56026 C424.67085,374.37082 425.86682,375.17926 427.01742,375.79782 C428.16802,376.41638 429.69657,376.83363 430.69385,375.98989 C431.62185,375.20476 431.56231,373.76839 431.30712,372.57989 C430.940835,370.875895 430.339244,369.23115 429.51965,367.69296 C429.216357,367.240316 429.037638,366.71577 429.00148,366.17211 C429.142166,365.397996 429.60726,364.72103 430.2794,364.31204 C431.68919,363.19751 433.31091,362.07546 433.7673,360.33725 C434.1023,359.06154 433.72548,357.71613 433.75457,356.3975 C433.78998,354.79296 434.42797,353.19532 434.12877,351.6185 C433.58644,348.76035 430.40551,347.38483 428.35216,345.32403 C425.53062,342.49224 424.61456,337.96296 421.28467,335.75119 C418.62077,333.98178 415.13636,334.193 412.10284,333.18063 C408.77043,332.06852 406.08798,329.51353 402.80084,328.27404 C399.16788,326.934276 395.126208,327.288776 391.78195,329.24052 C390.801189,329.967749 389.706472,330.527067 388.54247,330.89565 C387.56215,331.009215 386.571372,330.997723 385.59395,330.86145 C383.651094,330.761234 381.71498,331.160703 379.97045,332.02172 C379.302786,332.288587 378.74676,332.776233 378.39506,333.40337 C377.80654,334.71046 378.66153,336.75384 377.37148,337.37882 C376.77001,337.67021 376.05993,337.39106 375.39175,337.40573 C374.09242,337.43426 373.09281,338.56488 372.47456,339.70805 C371.992513,340.916581 371.300488,342.030316 370.43047,342.99778 C368.84222,344.38878 365.95668,344.61865 365.54171,346.68872 C365.53422,347.565145 365.583992,348.441124 365.69071,349.31106 C365.57071,351.14556 363.6075,352.53976 363.70996,354.37532 C363.82815,356.49257 366.51813,357.527 367.2372,359.5219 C367.78473,361.0409 367.0642,362.6833 366.56842,364.2199 C366.07264,365.7565 365.92312,367.72612 367.20353,368.7098 C367.70559,369.09551 368.35109,369.25364 368.86309,369.62603 C370.18801,370.58967 370.17128,372.53438 370.02415,374.16603 C369.851941,374.853761 370.032296,375.58212 370.50552,376.11003 C370.948069,376.37795 371.484543,376.44237 371.97794,376.28684 C373.585784,375.896954 374.961783,374.861483 375.78164,373.42447 C376.20832,372.719 376.29407,372.09722 377.06918,371.7229 C377.59513,371.4689 378.23381,371.69561 378.76918,371.36599 C381.31617,369.79803 380.43941,365.32447 383.56538,363.99962 Z"/>
    <path fill="#D0CDE1" fill-rule="nonzero" d="M315.4468,450.7497 L311.7921,454.40441 C311.7921,454.40441 289.86394,520.18905 297.17329,534.80787 C304.48264,549.42669 319.10151,585.97371 323.97444,584.75547 C328.84737,583.53723 345.90266,572.57313 345.90266,571.3549 C345.90266,570.13667 325.19266,536.02611 325.19266,536.02611 C325.19266,536.02611 322.75619,528.7167 323.97442,527.49847 C325.19265,526.28024 325.19266,527.49847 323.97442,525.062 C322.75618,522.62553 322.75619,525.062 325.19266,522.62553 C327.62913,520.18906 327.62913,520.18906 327.62913,518.97083 C327.62913,517.7526 334.93853,487.29674 334.93853,487.29674 L315.4468,450.7497 Z"/>
    <polygon fill="#2F2E41" fill-rule="nonzero" points="334.329 593.892 361.131 585.365 364.785 593.892 335.548 599.983"/>
    <polygon fill="#000000" fill-rule="nonzero" points="334.329 593.892 361.131 585.365 364.785 593.892 335.548 599.983" opacity=".1"/>
    <polygon fill="#000000" fill-rule="nonzero" points="370.876 409.939 391.586 426.994 394.023 423.339" opacity=".1"/>
    <polygon fill="#000000" fill-rule="nonzero" points="412.296 414.812 397.678 423.339 398.896 426.994" opacity=".1"/>
  </g>
</svg>
